<svg width="20" height="20" viewBox="0 0 20 20" fill="none" xmlns="http://www.w3.org/2000/svg">
<path d="M15.625 19.75H4.375C1.715 19.75 0.25 18.285 0.25 15.625V4.375C0.25 1.715 1.715 0.25 4.375 0.25H15.625C18.285 0.25 19.75 1.715 19.75 4.375V15.625C19.75 18.285 18.285 19.75 15.625 19.75ZM4.375 1.75C2.535 1.75 1.75 2.535 1.75 4.375V15.625C1.75 17.465 2.535 18.25 4.375 18.25H15.625C17.465 18.25 18.25 17.465 18.25 15.625V4.375C18.25 2.535 17.465 1.75 15.625 1.75H4.375ZM5.53 12.53L8.321 9.73901C8.419 9.64101 8.577 9.64101 8.675 9.73901L10.264 11.324C10.946 12.005 12.056 12.005 12.738 11.323L15.531 8.53003C15.824 8.23703 15.824 7.76199 15.531 7.46899C15.238 7.17599 14.763 7.17599 14.47 7.46899L11.677 10.262C11.579 10.359 11.421 10.36 11.323 10.262L9.73399 8.677C9.05199 7.996 7.94199 7.99598 7.25999 8.67798L4.469 11.469C4.176 11.762 4.176 12.237 4.469 12.53C4.615 12.676 4.807 12.75 4.999 12.75C5.191 12.75 5.384 12.677 5.53 12.53Z" fill="#8CC640"/>
</svg>
