<svg width="21" height="20" viewBox="0 0 21 20" fill="none" xmlns="http://www.w3.org/2000/svg">
<path d="M18.8718 19.6839H2.12669C1.34237 19.6839 0.695312 19.0564 0.695312 18.2721V3.01723C0.695312 2.23292 1.34237 1.60547 2.12669 1.60547H18.8718C19.6561 1.60547 20.3032 2.23292 20.3032 3.01723V18.2721C20.3032 19.0564 19.6561 19.6839 18.8718 19.6839ZM2.12669 2.56625C1.89139 2.56625 1.6757 2.76233 1.6757 2.99763V18.2721C1.6757 18.5074 1.87178 18.7035 2.12669 18.7035H18.8718C19.1071 18.7035 19.3228 18.5074 19.3228 18.2721V3.01723C19.3228 2.78194 19.1267 2.58586 18.8914 2.58586H2.12669V2.56625Z" fill="white"/>
<path d="M19.813 6.76233H1.18551C0.930607 6.76233 0.695312 6.54665 0.695312 6.27214V3.01723C0.695312 2.23292 1.34237 1.60547 2.12669 1.60547H18.8718C19.6561 1.60547 20.3032 2.23292 20.3032 3.01723V6.27214C20.3032 6.54665 20.0679 6.76233 19.813 6.76233ZM1.6757 5.78194H19.3228V3.01723C19.3228 2.78194 19.1267 2.58586 18.8914 2.58586H2.12669C1.89139 2.58586 1.6757 2.78194 1.6757 3.01723V3.03684V5.78194Z" fill="white"/>
<path d="M4.63473 3.88113C4.36022 3.88113 4.14453 3.66544 4.14453 3.39093V0.802696C4.14453 0.528186 4.36022 0.3125 4.63473 0.3125C4.90924 0.3125 5.12492 0.528186 5.12492 0.802696V3.39093C5.12492 3.66544 4.90924 3.88113 4.63473 3.88113ZM8.53669 3.88113C8.26218 3.88113 8.04649 3.66544 8.04649 3.39093V0.802696C8.04649 0.528186 8.26218 0.3125 8.53669 0.3125C8.8112 0.3125 9.02688 0.528186 9.02688 0.802696V3.39093C9.02688 3.66544 8.8112 3.88113 8.53669 3.88113ZM12.4583 3.88113C12.1837 3.88113 11.9681 3.66544 11.9681 3.39093V0.802696C11.9681 0.528186 12.1837 0.3125 12.4583 0.3125C12.7328 0.3125 12.9485 0.528186 12.9485 0.802696V3.39093C12.9485 3.66544 12.7328 3.88113 12.4583 3.88113ZM16.3602 3.88113C16.0857 3.88113 15.87 3.66544 15.87 3.39093V0.802696C15.87 0.528186 16.0857 0.3125 16.3602 0.3125C16.6347 0.3125 16.8504 0.528186 16.8504 0.802696V3.39093C16.8504 3.66544 16.6347 3.88113 16.3602 3.88113ZM11.7328 16.8811H9.26218C8.98767 16.8811 8.77198 16.6654 8.77198 16.3909V14.4694H6.85041C6.5759 14.4694 6.36022 14.2537 6.36022 13.9792V11.489C6.36022 11.2145 6.5759 10.9988 6.85041 10.9988H8.77198V9.07721C8.77198 8.8027 8.98767 8.58701 9.26218 8.58701H11.7328C12.0073 8.58701 12.223 8.8027 12.223 9.07721V10.9988H14.1445C14.419 10.9988 14.6347 11.2145 14.6347 11.489V13.9596C14.6347 14.2341 14.419 14.4498 14.1445 14.4498H12.223V16.3713C12.223 16.6458 12.0073 16.8811 11.7328 16.8811ZM9.75238 15.9007H11.2426V13.9792C11.2426 13.7047 11.4583 13.489 11.7328 13.489H13.6543V11.9988H11.7328C11.4583 11.9988 11.2426 11.7831 11.2426 11.5086V9.58701H9.75238V11.5086C9.75238 11.7831 9.53669 11.9988 9.26218 11.9988H7.34061V13.489H9.26218C9.53669 13.489 9.75238 13.7047 9.75238 13.9792V15.9007Z" fill="white"/>
</svg>
