<svg width="22" height="22" viewBox="0 0 22 22" fill="none" xmlns="http://www.w3.org/2000/svg">
<path d="M19.25 2H16.25V1.25C16.25 1.05109 16.171 0.860322 16.0303 0.71967C15.8897 0.579018 15.6989 0.5 15.5 0.5C15.3011 0.5 15.1103 0.579018 14.9697 0.71967C14.829 0.860322 14.75 1.05109 14.75 1.25V2H7.25V1.25C7.25 1.05109 7.17098 0.860322 7.03033 0.71967C6.88968 0.579018 6.69891 0.5 6.5 0.5C6.30109 0.5 6.11032 0.579018 5.96967 0.71967C5.82902 0.860322 5.75 1.05109 5.75 1.25V2H2.75C2.15326 2 1.58097 2.23705 1.15901 2.65901C0.737053 3.08097 0.5 3.65326 0.5 4.25V19.25C0.5 19.8467 0.737053 20.419 1.15901 20.841C1.58097 21.2629 2.15326 21.5 2.75 21.5H19.25C19.8467 21.5 20.419 21.2629 20.841 20.841C21.2629 20.419 21.5 19.8467 21.5 19.25V4.25C21.5 3.65326 21.2629 3.08097 20.841 2.65901C20.419 2.23705 19.8467 2 19.25 2ZM2.75 3.5H19.25C19.4489 3.5 19.6397 3.57902 19.7803 3.71967C19.921 3.86032 20 4.05109 20 4.25V6.5H2V4.25C2 4.05109 2.07902 3.86032 2.21967 3.71967C2.36032 3.57902 2.55109 3.5 2.75 3.5ZM19.25 20H2.75C2.55109 20 2.36032 19.921 2.21967 19.7803C2.07902 19.6397 2 19.4489 2 19.25V8H20V19.25C20 19.4489 19.921 19.6397 19.7803 19.7803C19.6397 19.921 19.4489 20 19.25 20Z" fill="#303B8D"/>
<path d="M14.2624 10.4313L9.53737 14.4813L7.77787 12.7225C7.63642 12.5859 7.44697 12.5103 7.25032 12.512C7.05367 12.5137 6.86556 12.5926 6.72651 12.7316C6.58745 12.8707 6.50857 13.0588 6.50686 13.2555C6.50516 13.4521 6.58075 13.6415 6.71737 13.783L8.96737 16.033C9.10096 16.1664 9.27995 16.2445 9.46861 16.2518C9.65727 16.259 9.84171 16.1948 9.98512 16.072L15.2351 11.572C15.3142 11.5093 15.3797 11.4313 15.4279 11.3427C15.4761 11.2541 15.5059 11.1567 15.5156 11.0563C15.5253 10.9559 15.5146 10.8546 15.4842 10.7584C15.4538 10.6622 15.4043 10.5731 15.3387 10.4965C15.2731 10.4199 15.1927 10.3573 15.1024 10.3125C15.012 10.2677 14.9135 10.2415 14.8128 10.2357C14.7121 10.2298 14.6113 10.2443 14.5163 10.2783C14.4213 10.3122 14.3342 10.3651 14.2601 10.4335L14.2624 10.4313Z" fill="#303B8D"/>
</svg>
