<svg width="24" height="25" viewBox="0 0 24 25" fill="none" xmlns="http://www.w3.org/2000/svg">
<path d="M14.5 9.48633C14.5 10.867 13.3807 11.9863 12 11.9863C10.6193 11.9863 9.5 10.867 9.5 9.48633C9.5 8.10562 10.6193 6.98633 12 6.98633C13.3807 6.98633 14.5 8.10562 14.5 9.48633Z" stroke="#303B8D" stroke-width="1.5"/>
<path d="M18.2222 17.4863C19.6167 19.4748 20.2838 20.5338 19.8865 21.3863C19.8466 21.4718 19.7999 21.5543 19.7469 21.6331C19.1724 22.4863 17.6875 22.4863 14.7178 22.4863H9.28223C6.31251 22.4863 4.82765 22.4863 4.25311 21.6331C4.20005 21.5543 4.15339 21.4718 4.11355 21.3863C3.71619 20.5338 4.38326 19.4748 5.77778 17.4863" stroke="#303B8D" stroke-width="1.5" stroke-linecap="round" stroke-linejoin="round"/>
<path d="M13.2574 17.9799C12.9201 18.3047 12.4693 18.4863 12.0002 18.4863C11.531 18.4863 11.0802 18.3047 10.7429 17.9799C7.6543 14.9871 3.51519 11.6439 5.53371 6.79006C6.6251 4.16565 9.24494 2.48633 12.0002 2.48633C14.7554 2.48633 17.3752 4.16565 18.4666 6.79006C20.4826 11.6377 16.3536 14.9974 13.2574 17.9799Z" stroke="#303B8D" stroke-width="1.5"/>
</svg>
