<svg width="36" height="46" viewBox="0 0 36 46" fill="none" xmlns="http://www.w3.org/2000/svg">
<path d="M30.8123 24.5595L27.6892 23.4423L27.7602 23.2348C27.8212 23.0564 27.8105 22.8612 27.7302 22.6906C27.65 22.52 27.5065 22.3873 27.3301 22.3206L24.4293 21.2224C24.2654 21.1604 24.0846 21.1597 23.9203 21.2205C23.7559 21.2813 23.6191 21.3994 23.535 21.5531L23.3506 21.8902L22.3134 21.5192V20.4009C23.6605 19.3769 24.598 17.8425 24.837 16.0883C26.474 16.0823 27.8039 14.749 27.8039 13.1107C27.8039 12.2792 27.4609 11.5267 26.9097 10.9859V8.62166C26.9094 3.86768 23.0418 0 18.2879 0C13.5339 0 9.66626 3.86768 9.66626 8.62166V10.9861C9.11498 11.5268 8.77214 12.2793 8.77214 13.1108C8.77214 14.7491 10.1021 16.0824 11.739 16.0884C11.978 17.8426 12.9155 19.377 14.2626 20.401V21.52L12.1484 22.2763L11.9941 21.8054C11.9638 21.7128 11.9151 21.6272 11.851 21.5538C11.7869 21.4804 11.7087 21.4206 11.621 21.3781C11.5333 21.3355 11.4379 21.311 11.3406 21.3061C11.2432 21.3012 11.1459 21.3159 11.0543 21.3494L8.40737 22.3179C8.26016 22.3717 8.13431 22.4717 8.04865 22.603C7.96298 22.7343 7.9221 22.8898 7.9321 23.0462L7.9781 23.7682L5.78232 24.5536C5.47937 24.6472 3.04461 25.4759 2.39935 28.1006C1.81582 30.4745 0.565558 39.6648 0.513269 40.0504C0.50114 40.1354 0.230441 42.1485 1.36472 43.4552C1.9752 44.1587 2.843 44.5152 3.94395 44.5152H9.30114L9.35244 45.3201C9.36422 45.5043 9.44571 45.6771 9.58035 45.8035C9.715 45.9298 9.89268 46.0001 10.0773 46.0001H18.9214C19.0168 46.0001 19.1112 45.9813 19.1994 45.9449C19.2875 45.9084 19.3676 45.8549 19.435 45.7874C19.5025 45.72 19.556 45.6399 19.5925 45.5518C19.629 45.4636 19.6477 45.3692 19.6477 45.2738C19.6479 45.1787 19.6293 45.0845 19.593 44.9966L19.4352 44.5152H20.1391C20.9839 45.4625 22.1729 46.0001 23.4576 46.0001H34.7984C34.8938 46.0001 34.9882 45.9813 35.0764 45.9449C35.1645 45.9084 35.2446 45.8549 35.312 45.7874C35.3795 45.72 35.433 45.6399 35.4694 45.5518C35.5059 45.4636 35.5247 45.3692 35.5247 45.2738V31.1348C35.5246 26.3583 31.0119 24.6334 30.8123 24.5595ZM3.94386 43.0624C3.27551 43.0624 2.79179 42.8806 2.46494 42.5066C1.88374 41.8415 1.89731 40.6537 1.95193 40.25C1.96478 40.1552 3.2446 30.7467 3.80981 28.4472C4.27933 26.5373 6.13478 25.9641 6.21007 25.9416C6.22498 25.9374 6.23981 25.9326 6.25445 25.9274L8.07423 25.2765L8.82757 37.0905H7.68845C7.59306 37.0905 7.49861 37.1092 7.41049 37.1457C7.32237 37.1822 7.2423 37.2357 7.17485 37.3032C7.10741 37.3706 7.05391 37.4507 7.01741 37.5388C6.98092 37.6269 6.96214 37.7214 6.96215 37.8168C6.96215 38.0094 7.03867 38.1941 7.17488 38.3303C7.31108 38.4666 7.49582 38.5431 7.68845 38.5431H8.9202L9.20842 43.0624H3.94386ZM25.479 11.7334C25.5546 11.7695 25.6271 11.8117 25.6958 11.8596C25.7043 11.8656 25.713 11.8712 25.7214 11.8774C26.1026 12.1549 26.351 12.6043 26.351 13.1108C26.3511 13.9274 25.7059 14.5963 24.8985 14.6343V11.5884C24.9055 11.5887 24.9125 11.5887 24.9195 11.5893C24.9543 11.5914 24.9887 11.5948 25.0228 11.5993C25.0338 11.6007 25.045 11.6016 25.056 11.6032C25.1506 11.6175 25.2424 11.6404 25.3305 11.6714C25.3332 11.6724 25.3357 11.6735 25.3384 11.6744C25.3791 11.6889 25.4189 11.7053 25.4578 11.7231L25.479 11.7334ZM11.6774 14.6343C10.87 14.5963 10.2248 13.9274 10.2248 13.1108C10.2248 12.6041 10.4734 12.1547 10.8549 11.8771C10.8631 11.8712 10.8713 11.8657 10.8795 11.86C10.9173 11.8335 10.9563 11.8088 10.9964 11.7859C11.0291 11.7672 11.0626 11.7497 11.0969 11.7333C11.104 11.7299 11.111 11.7264 11.1182 11.7231C11.1571 11.7054 11.1967 11.6891 11.2374 11.6746C11.2401 11.6736 11.2428 11.6724 11.2457 11.6714C11.3338 11.6404 11.4256 11.6177 11.5201 11.6033C11.5311 11.6017 11.5424 11.6007 11.5534 11.5993C11.5875 11.5948 11.6219 11.5914 11.6566 11.5893C11.6636 11.5889 11.6706 11.5888 11.6776 11.5884V14.6343H11.6774ZM11.9221 9.35038C11.8452 9.41853 11.7836 9.50222 11.7414 9.59594C11.6992 9.68965 11.6774 9.79125 11.6774 9.89402V10.1337C11.6621 10.1341 11.6468 10.1353 11.6315 10.1359C11.6115 10.1367 11.5914 10.1375 11.5715 10.1387C11.5399 10.1406 11.5083 10.143 11.4767 10.1459C11.461 10.1474 11.4453 10.1486 11.4297 10.1504C11.3913 10.1545 11.3531 10.1595 11.315 10.1651L11.2903 10.1686C11.2328 10.1775 11.1755 10.1874 11.1189 10.1996V8.62166C11.1189 4.66863 14.335 1.45268 18.2879 1.45268C22.2408 1.45268 25.4567 4.66872 25.4567 8.62166V10.1994C25.3999 10.1874 25.3428 10.1771 25.2854 10.1685C25.2772 10.1672 25.269 10.1662 25.2608 10.165C25.2226 10.1595 25.1844 10.1545 25.146 10.1503C25.1303 10.1487 25.1147 10.1474 25.099 10.1459C25.0475 10.141 24.9958 10.1376 24.9442 10.1358C24.9289 10.1353 24.9136 10.134 24.8983 10.1336V9.89393C24.8983 9.71038 24.8288 9.53364 24.7037 9.39925L22.3914 6.91364C22.269 6.78233 22.1023 6.70095 21.9234 6.68516C21.7446 6.66937 21.5662 6.72029 21.4227 6.82811C21.3903 6.85246 18.1406 9.25533 13.8602 9.25533C13.4018 9.25533 12.9412 9.22756 12.4914 9.17294C12.3894 9.16058 12.2859 9.17 12.1877 9.20059C12.0896 9.23118 11.9991 9.28223 11.9221 9.35038ZM13.13 15.2033V10.6875C13.3729 10.7013 13.6169 10.7083 13.8602 10.7083C17.6088 10.7083 20.5739 9.10565 21.7518 8.35887L23.4458 10.1798V15.2033C23.4458 17.3881 22.0576 19.2549 20.1169 19.9679L20.1118 19.9697C19.9566 20.0266 19.7986 20.0758 19.6385 20.1171L19.6376 20.1173C19.5486 20.1402 19.4589 20.1605 19.3686 20.1782C19.3016 20.1916 19.2342 20.2038 19.1663 20.2144C19.1563 20.216 19.1463 20.2179 19.1362 20.2195C19.0601 20.231 18.9833 20.2407 18.9061 20.2489C18.8883 20.2507 18.8705 20.2521 18.8527 20.2538C18.7921 20.2595 18.7315 20.2641 18.6707 20.2676C18.6489 20.2689 18.6271 20.2702 18.6052 20.2712C18.5278 20.2747 18.4501 20.2772 18.3719 20.2772H18.2039C18.1257 20.2772 18.048 20.2747 17.9706 20.2712C17.9487 20.2702 17.9269 20.2689 17.9051 20.2676C17.8444 20.2641 17.7837 20.2595 17.7232 20.2538C17.7054 20.2522 17.6874 20.2507 17.6695 20.2489C17.5927 20.2408 17.516 20.2311 17.4396 20.2195C17.4294 20.2179 17.4192 20.216 17.4089 20.2144C17.3252 20.2011 17.2419 20.1857 17.159 20.1684C17.0852 20.153 17.0117 20.136 16.9386 20.1173L16.9369 20.117C16.7771 20.0757 16.6195 20.0267 16.4645 19.97L16.4581 19.9676C14.5179 19.2544 13.13 17.388 13.13 15.2033ZM20.8605 21.2379V22.6407L18.2878 24.6042L15.7152 22.6407V21.2379C15.79 21.2688 15.8658 21.2971 15.9417 21.3251C15.9502 21.3282 15.9584 21.3316 15.9667 21.3347C16.0514 21.3657 16.137 21.3942 16.2229 21.4216C16.2401 21.4271 16.257 21.4332 16.2743 21.4386C16.3527 21.4627 16.4318 21.4847 16.5109 21.5059C16.5365 21.5128 16.5617 21.5204 16.5873 21.527C16.66 21.5456 16.7334 21.5617 16.8068 21.5778C16.8395 21.585 16.8717 21.593 16.9044 21.5997C16.9731 21.6135 17.0423 21.625 17.1115 21.6368C17.1493 21.6431 17.187 21.6506 17.2251 21.6563C17.2923 21.6665 17.3598 21.6741 17.4275 21.6821C17.4679 21.687 17.508 21.6929 17.5485 21.697C17.6207 21.7042 17.6931 21.7087 17.7657 21.7136C17.802 21.716 17.838 21.7198 17.8746 21.7215C17.984 21.7269 18.0937 21.7298 18.2037 21.7298H18.3717C18.4815 21.7298 18.5912 21.727 18.7008 21.7215C18.7376 21.7196 18.7738 21.7158 18.8103 21.7135C18.8826 21.7086 18.9549 21.7042 19.0269 21.697C19.0678 21.6929 19.108 21.6869 19.1486 21.682C19.216 21.674 19.2834 21.6664 19.3503 21.6563C19.3886 21.6505 19.4263 21.643 19.4644 21.6366C19.5334 21.625 19.6025 21.6134 19.671 21.5996C19.7038 21.5929 19.736 21.5848 19.7687 21.5776C19.8422 21.5619 19.9154 21.545 19.9883 21.5269C20.014 21.5203 20.0392 21.5127 20.0647 21.5059C20.1439 21.4847 20.2229 21.4627 20.3012 21.4386C20.3186 21.4333 20.3355 21.4272 20.3527 21.4216C20.4387 21.3944 20.5241 21.3654 20.6089 21.3347C20.6173 21.3316 20.6255 21.3282 20.6339 21.3251C20.7098 21.297 20.7858 21.2688 20.8605 21.2379ZM14.2661 23.0614C14.2745 23.1623 14.3039 23.2604 14.3525 23.3492C14.4011 23.4381 14.4677 23.5158 14.5482 23.5773L17.8472 26.0952C17.9773 26.1944 18.1327 26.2441 18.2878 26.2441C18.443 26.2441 18.5984 26.1944 18.7284 26.0952L22.0275 23.5773C22.108 23.5157 22.1746 23.4379 22.2232 23.3489C22.2718 23.26 22.3012 23.1619 22.3096 23.0609L22.6444 23.1806L16.2655 34.8417L12.6007 23.6572L14.2661 23.0614ZM10.7588 44.5473L9.41632 23.4955L10.8477 22.9718L15.6177 37.5294L15.786 38.0429V38.043L17.917 44.5473H10.7588ZM18.9183 42.9376L17.4783 38.5431H18.9183V42.9376ZM23.4575 44.5473C22.5068 44.5473 21.6327 44.1114 21.0591 43.3513C21.0578 43.3494 21.0563 43.3479 21.0549 43.3462C21.0294 43.3131 21.0011 43.2823 20.9703 43.2541C20.9644 43.2487 20.9587 43.2432 20.9527 43.238C20.9413 43.2281 20.9293 43.219 20.9174 43.2098C20.9103 43.2045 20.9034 43.199 20.8962 43.194C20.8841 43.1856 20.8716 43.1778 20.8592 43.1701C20.8517 43.1655 20.8443 43.1608 20.8368 43.1565C20.8235 43.1492 20.81 43.1422 20.7963 43.1357C20.789 43.1322 20.7819 43.1285 20.7746 43.1253C20.7603 43.119 20.7457 43.1132 20.731 43.1079C20.7238 43.1052 20.7166 43.1025 20.7092 43.1C20.6946 43.0953 20.6799 43.091 20.665 43.0873C20.6568 43.0851 20.6487 43.0828 20.6406 43.081C20.6268 43.078 20.613 43.0754 20.5991 43.0732C20.589 43.0715 20.5789 43.0698 20.5688 43.0685C20.5442 43.0657 20.5194 43.0639 20.4947 43.0632C20.4897 43.0631 20.4849 43.0624 20.4799 43.0624H20.3709V38.5431H23.4575C25.1129 38.5431 26.4596 39.8897 26.4596 41.5451C26.4596 43.2005 25.113 44.5473 23.4575 44.5473ZM30.0163 44.5473V34.4273C30.0163 34.332 29.9975 34.2375 29.961 34.1494C29.9246 34.0612 29.8711 33.9812 29.8036 33.9137C29.7362 33.8463 29.6561 33.7928 29.568 33.7563C29.4798 33.7198 29.3854 33.701 29.29 33.701C29.1946 33.701 29.1001 33.7198 29.012 33.7563C28.9239 33.7928 28.8438 33.8463 28.7764 33.9137C28.7089 33.9812 28.6554 34.0612 28.6189 34.1494C28.5824 34.2375 28.5637 34.332 28.5637 34.4273V44.5473H26.7456C27.4698 43.7549 27.9122 42.7008 27.9122 41.5451C27.9122 39.0888 25.9138 37.0905 23.4575 37.0905H23.0211L24.888 31.6329C24.9503 31.4507 24.9377 31.2511 24.8529 31.0781C24.7681 30.9052 24.6181 30.773 24.4358 30.7106C24.0565 30.5812 23.6433 30.7832 23.5135 31.1628L21.4857 37.0905H17.0024L16.9246 36.8531L16.8858 36.7347L24.506 22.8049L26.1582 23.4303L24.1775 29.2213C24.1467 29.3115 24.1339 29.407 24.1399 29.5022C24.1459 29.5973 24.1707 29.6904 24.2127 29.7761C24.2547 29.8617 24.3131 29.9382 24.3847 30.0013C24.4563 30.0643 24.5395 30.1126 24.6298 30.1435C24.7201 30.1744 24.8155 30.1871 24.9107 30.1811C25.0059 30.1751 25.099 30.1504 25.1846 30.1084C25.2702 30.0664 25.3468 30.0079 25.4098 29.9363C25.4729 29.8648 25.5212 29.7815 25.552 29.6912L27.2192 24.817L30.3173 25.9252C30.515 26.0003 34.072 27.407 34.072 31.1346V44.5472H30.0163V44.5473Z" fill="#8CC640"/>
</svg>
