<svg width="46" height="46" viewBox="0 0 46 46" fill="none" xmlns="http://www.w3.org/2000/svg">
<path d="M33.7812 44.5631C33.9719 44.5631 34.1547 44.4874 34.2895 44.3526C34.4243 44.2178 34.5 44.035 34.5 43.8444V38.3891L39.3458 34.5912C39.9524 34.1082 40.7646 33.1609 41.0823 32.4076L44.5036 24.4539C44.5425 24.3641 44.5625 24.2672 44.5625 24.1693V17.242C44.5625 16.3479 43.5491 15.6881 42.5701 15.5688C41.3569 15.4121 39.8317 16.0719 39.2567 18.3676C38.9606 19.5593 38.8944 20.5669 38.8355 21.4553C38.8214 21.6486 38.8835 21.8398 39.0083 21.988C39.1332 22.1362 39.3111 22.2298 39.5039 22.2488C39.9007 22.2761 40.2414 22.0044 40.2658 21.6091C40.3247 20.7208 40.3866 19.7821 40.6525 18.714C40.8336 17.9924 41.2218 17.1054 42.0512 16.9947C42.6061 16.9157 43.0704 17.2133 43.1466 17.3484L43.125 24.0212L39.7598 31.8456C39.5499 32.3473 38.8973 33.1106 38.4546 33.4642L33.3371 37.4748C33.2513 37.5418 33.182 37.6276 33.1344 37.7255C33.0868 37.8234 33.0622 37.9309 33.0625 38.0398V43.8444C33.0625 44.035 33.1382 44.2178 33.273 44.3526C33.4078 44.4874 33.5906 44.5631 33.7812 44.5631ZM12.2188 44.5631C12.0281 44.5631 11.8453 44.4874 11.7105 44.3526C11.5757 44.2178 11.5 44.035 11.5 43.8444V38.3891L6.65419 34.5912C6.04756 34.1082 5.23538 33.1609 4.91769 32.4076L1.49644 24.4539C1.45753 24.3641 1.43748 24.2672 1.4375 24.1693V17.242C1.4375 16.3479 2.45094 15.6881 3.42987 15.5688C4.64312 15.4121 6.16831 16.0719 6.74331 18.3676C7.03944 19.5593 7.10556 20.5669 7.1645 21.4553C7.17855 21.6486 7.11653 21.8398 6.99166 21.988C6.86679 22.1362 6.68895 22.2298 6.49606 22.2488C6.09931 22.2761 5.75863 22.0044 5.73419 21.6091C5.67525 20.7208 5.61344 19.7821 5.3475 18.714C5.16638 17.9924 4.77825 17.1054 3.94881 16.9947C3.39394 16.9157 2.92963 17.2133 2.85344 17.3484L2.875 24.0212L6.24019 31.8456C6.45006 32.3473 7.10269 33.1106 7.54544 33.4642L12.6629 37.4748C12.7487 37.5418 12.818 37.6276 12.8656 37.7255C12.9132 37.8234 12.9378 37.9309 12.9375 38.0398V43.8444C12.9375 44.035 12.8618 44.2178 12.727 44.3526C12.5922 44.4874 12.4094 44.5631 12.2188 44.5631ZM20.8438 44.5631C20.6531 44.5631 20.4703 44.4874 20.3355 44.3526C20.2007 44.2178 20.125 44.035 20.125 43.8444V35.9913C20.125 32.9625 18.0334 30.3218 15.0377 29.5686C14.9461 29.5455 14.86 29.5047 14.7842 29.4484C14.7085 29.3921 14.6445 29.3214 14.5961 29.2404C14.5476 29.1593 14.5156 29.0696 14.5018 28.9762C14.4881 28.8828 14.4928 28.7876 14.5159 28.696C14.5389 28.6044 14.5797 28.5183 14.6361 28.4425C14.6924 28.3668 14.7631 28.3028 14.8441 28.2544C14.9251 28.2059 15.0149 28.1739 15.1083 28.1601C15.2017 28.1464 15.2969 28.1512 15.3884 28.1742C19.0224 29.0884 21.5625 32.3027 21.5625 35.9913V43.8444C21.5625 44.035 21.4868 44.2178 21.352 44.3526C21.2172 44.4874 21.0344 44.5631 20.8438 44.5631Z" fill="#8CC640"/>
<path d="M12.5967 32.2231C12.406 32.2231 12.223 32.1476 12.0878 32.0132L5.78147 25.7169C5.71454 25.6502 5.66143 25.5709 5.6252 25.4835C5.58896 25.3962 5.57031 25.3026 5.57031 25.2081C5.57031 25.1135 5.58896 25.0199 5.6252 24.9326C5.66143 24.8453 5.71454 24.766 5.78147 24.6992C7.75803 22.7226 10.1946 22.8894 12.4644 25.1592L15.706 28.3936C15.8409 28.5283 15.9168 28.7112 15.917 28.9019C15.9171 29.0927 15.8415 29.2756 15.7067 29.4106C15.5719 29.5456 15.3891 29.6215 15.1983 29.6216C15.0076 29.6217 14.8246 29.5461 14.6897 29.4113L11.4481 26.1769C9.97466 24.7035 8.5961 24.3916 7.34978 25.2512L13.1027 30.9954C13.2019 31.0963 13.2693 31.2241 13.2964 31.363C13.3236 31.5019 13.3093 31.6457 13.2554 31.7765C13.2015 31.9073 13.1103 32.0194 12.9931 32.0988C12.876 32.1782 12.7381 32.2214 12.5967 32.2231ZM25.1575 44.5611C24.9669 44.5611 24.7841 44.4854 24.6493 44.3506C24.5145 44.2158 24.4388 44.033 24.4388 43.8424V35.9893C24.4388 32.3007 26.9788 29.0864 30.6128 28.1722C30.7044 28.1487 30.7997 28.1437 30.8933 28.1572C30.9868 28.1708 31.0767 28.2028 31.1578 28.2513C31.239 28.2998 31.3097 28.3639 31.3659 28.4399C31.4221 28.5159 31.4627 28.6022 31.4854 28.694C31.5312 28.8789 31.502 29.0743 31.4043 29.2378C31.3065 29.4012 31.1481 29.5194 30.9636 29.5666C27.9678 30.3198 25.8763 32.9605 25.8763 35.9893V43.8424C25.8763 44.033 25.8006 44.2158 25.6658 44.3506C25.531 44.4854 25.3482 44.5611 25.1575 44.5611Z" fill="#8CC640"/>
<path d="M33.4052 32.2231C33.2635 32.222 33.1252 32.1791 33.0077 32.1C32.8901 32.0208 32.7985 31.9087 32.7442 31.7778C32.6899 31.6468 32.6754 31.5028 32.7025 31.3637C32.7295 31.2246 32.7969 31.0965 32.8963 30.9954L38.6492 25.2512C37.4043 24.393 36.0243 24.7049 34.5509 26.1769L31.3093 29.4113C31.1744 29.5461 30.9914 29.6217 30.8007 29.6216C30.6099 29.6215 30.4271 29.5456 30.2923 29.4106C30.1575 29.2756 30.0819 29.0927 30.082 28.9019C30.0822 28.7112 30.1581 28.5283 30.293 28.3936L33.5346 25.1592C35.8044 22.8894 38.241 22.7226 40.2175 24.6992C40.2845 24.766 40.3376 24.8453 40.3738 24.9326C40.41 25.0199 40.4287 25.1135 40.4287 25.2081C40.4287 25.3026 40.41 25.3962 40.3738 25.4835C40.3376 25.5709 40.2845 25.6502 40.2175 25.7169L33.9112 32.0132C33.845 32.0799 33.7661 32.1329 33.6793 32.1689C33.5924 32.2049 33.4993 32.2233 33.4052 32.2231Z" fill="#8CC640"/>
<path d="M33.4029 32.2237C33.2611 32.2226 33.1229 32.1798 33.0053 32.1006C32.8878 32.0214 32.7961 31.9094 32.7419 31.7784C32.6876 31.6475 32.6731 31.5035 32.7001 31.3644C32.7272 31.2252 32.7946 31.0971 32.894 30.9961L38.6469 25.2518C37.402 24.3937 36.022 24.7056 34.5486 26.1776L31.307 29.412C31.172 29.5467 30.9891 29.6224 30.7983 29.6222C30.6076 29.6221 30.4247 29.5462 30.29 29.4112C30.1552 29.2763 30.0796 29.0933 30.0797 28.9026C30.0798 28.7119 30.1557 28.529 30.2907 28.3942L33.5322 25.1598C35.8021 22.89 38.2386 22.7233 40.2152 24.6998C40.2821 24.7666 40.3352 24.8459 40.3715 24.9332C40.4077 25.0206 40.4263 25.1142 40.4263 25.2087C40.4263 25.3033 40.4077 25.3969 40.3715 25.4842C40.3352 25.5715 40.2821 25.6508 40.2152 25.7176L33.9089 32.0138C33.8426 32.0806 33.7638 32.1335 33.6769 32.1695C33.5901 32.2056 33.4969 32.224 33.4029 32.2237ZM26.1593 17.8947C25.7698 17.8947 25.3802 17.8631 24.9906 17.7984C23.1305 17.4893 21.5004 16.473 20.4007 14.9349C19.301 13.3968 18.8669 11.5252 19.1745 9.66503C19.2911 9.05144 19.6432 8.50784 20.1555 8.15054C20.6677 7.79323 21.2995 7.6506 21.9156 7.75316C22.5317 7.85572 23.0832 8.19532 23.4521 8.6993C23.821 9.20329 23.978 9.83163 23.8895 10.4499C23.8033 10.9674 23.901 11.5036 24.1598 11.9564C24.2068 12.0383 24.2372 12.1287 24.2492 12.2224C24.2613 12.3161 24.2548 12.4112 24.2301 12.5024C24.2054 12.5936 24.163 12.679 24.1053 12.7538C24.0476 12.8285 23.9757 12.8912 23.8938 12.9382C23.8119 12.9852 23.7215 13.0156 23.6278 13.0277C23.5341 13.0398 23.439 13.0333 23.3478 13.0086C23.2567 12.9839 23.1712 12.9415 23.0965 12.8838C23.0217 12.8261 22.959 12.7542 22.912 12.6723C22.4872 11.9283 22.3309 11.061 22.4693 10.2156C22.5104 9.96614 22.4511 9.71052 22.3043 9.50469C22.1575 9.29886 21.9351 9.15959 21.6858 9.11734C21.4366 9.07656 21.1813 9.13607 20.9758 9.28286C20.7703 9.42965 20.6313 9.65179 20.589 9.90078C20.3432 11.3814 20.6896 12.8721 21.5665 14.0983C22.4434 15.3245 23.7429 16.1352 25.2235 16.381C25.6303 16.4472 26.0429 16.473 26.4454 16.45C26.5397 16.4451 26.634 16.4588 26.723 16.4904C26.812 16.5219 26.8939 16.5707 26.964 16.6339C27.0342 16.6971 27.0912 16.7735 27.1318 16.8588C27.1724 16.944 27.1959 17.0364 27.2008 17.1307C27.2057 17.225 27.192 17.3193 27.1604 17.4083C27.1289 17.4973 27.0801 17.5792 27.0169 17.6494C26.9537 17.7195 26.8773 17.7765 26.7921 17.8171C26.7068 17.8578 26.6144 17.8812 26.5201 17.8861C26.3999 17.8919 26.2796 17.8948 26.1593 17.8947Z" fill="#8CC640"/>
<path d="M21.9739 27.5993C21.3155 27.5993 20.6154 27.536 19.8679 27.398C17.9244 27.0386 16.3389 25.9203 15.4016 24.2456C14.7562 23.0941 14.2157 21.293 14.5794 18.6537C14.3299 18.768 14.0693 18.8562 13.8017 18.9168C12.8055 19.1568 11.3766 18.7371 10.5458 17.9637C9.91613 17.3758 9.64157 16.6125 9.77526 15.8146C9.8917 15.1261 10.2309 14.5784 10.7571 14.2291C11.3565 13.8323 12.0767 13.7676 12.5784 13.7978C13.5818 11.1471 15.6992 9.84901 18.1084 10.4643C19.1708 10.736 20.0347 11.3929 20.6054 12.3632C21.6447 14.127 21.5527 16.5248 21.12 18.1793C21.1008 18.2753 21.0622 18.3664 21.0066 18.4469C20.9509 18.5274 20.8794 18.5958 20.7965 18.6477C20.7135 18.6996 20.6208 18.734 20.524 18.7489C20.4273 18.7637 20.3285 18.7586 20.2338 18.7339C20.1391 18.7092 20.0504 18.6654 19.9732 18.6052C19.896 18.545 19.8319 18.4696 19.7849 18.3838C19.7379 18.298 19.7088 18.2034 19.6996 18.106C19.6904 18.0085 19.7012 17.9102 19.7314 17.8171C20.0721 16.5032 20.1828 14.4792 19.3677 13.0935C19.1968 12.7882 18.9653 12.521 18.6875 12.3085C18.4097 12.0959 18.0913 11.9423 17.7519 11.8572C15.9249 11.3871 14.4428 12.4883 13.7629 14.7883C13.7105 14.9645 13.5928 15.114 13.4338 15.2062C13.2748 15.2984 13.0865 15.3263 12.9076 15.2842C12.6733 15.231 11.966 15.1534 11.5491 15.4323C11.4284 15.5142 11.2602 15.6666 11.1941 16.0561C11.1739 16.1726 11.1136 16.5291 11.5261 16.9143C12.0868 17.4361 13.0528 17.6201 13.4653 17.521C13.9742 17.3988 14.6513 17.2349 15.3801 15.4222C15.462 15.1865 15.5483 14.9464 15.6431 14.702C15.7074 14.5224 15.8403 14.3758 16.0127 14.2942C16.1851 14.2127 16.3828 14.2029 16.5624 14.2672C16.742 14.3314 16.8887 14.4644 16.9702 14.6368C17.0518 14.8092 17.0615 15.0069 16.9973 15.1865C16.9096 15.4438 16.8233 15.6824 16.7342 15.9052C15.646 19.0605 15.6187 21.6911 16.6566 23.5455C17.3811 24.8393 18.6144 25.7061 20.131 25.9864C26.5135 27.1623 28.9228 22.1828 30.3588 19.2043C30.8461 18.1923 31.1408 17.5828 31.5577 17.2852C31.792 17.1363 32.0338 16.9996 32.2822 16.8755C33.9928 15.9771 38.0006 13.8711 38.4534 9.9252C38.8343 6.63189 36.4553 3.50676 33.1548 2.95908C32.3818 2.82887 31.5906 2.85304 30.827 3.03019C30.0634 3.20734 29.3424 3.53396 28.7057 3.9912C28.0667 4.44566 27.5241 5.02229 27.1093 5.68775C26.6946 6.35321 26.4158 7.09429 26.2893 7.86814C26.2519 8.17576 26.0161 8.52795 25.7128 8.58833C25.2486 8.67493 24.823 8.90405 24.4951 9.24383C24.1672 9.5836 23.9533 10.0171 23.8833 10.4841C23.8132 10.9511 23.8904 11.4283 24.1042 11.8493C24.318 12.2703 24.6577 12.6143 25.076 12.8333C25.2439 12.9238 25.369 13.0774 25.4238 13.2601C25.4785 13.4429 25.4584 13.6399 25.3678 13.8079C25.2773 13.9758 25.1237 14.1009 24.9409 14.1556C24.7582 14.2104 24.5611 14.1902 24.3932 14.0997C23.7081 13.7331 23.1548 13.1614 22.8109 12.4646C22.467 11.7678 22.3498 10.9809 22.4756 10.2141C22.5884 9.55577 22.8755 8.93964 23.307 8.42976C23.7386 7.91988 24.2987 7.53486 24.9294 7.3147C25.3066 5.50009 26.3563 3.89533 27.8676 2.82251C28.6574 2.25423 29.5521 1.84827 30.4999 1.62817C31.4476 1.40807 32.4297 1.37819 33.3891 1.54026C37.4328 2.21158 40.3451 6.04683 39.8808 10.0891C39.3389 14.7911 34.6972 17.2291 32.9492 18.1477C32.6876 18.2857 32.4921 18.3835 32.3929 18.4525C32.2534 18.5818 31.9199 19.2733 31.6511 19.8281C30.3919 22.4415 27.9021 27.5993 21.9739 27.5993Z" fill="#8CC640"/>
</svg>
