<svg width="52" height="53" viewBox="0 0 52 53" fill="none" xmlns="http://www.w3.org/2000/svg">
<g filter="url(#filter0_d_5303_26335)">
<path d="M36.7812 44.5631C36.9719 44.5631 37.1547 44.4874 37.2895 44.3526C37.4243 44.2178 37.5 44.035 37.5 43.8444V38.3891L42.3458 34.5912C42.9524 34.1082 43.7646 33.1609 44.0823 32.4076L47.5036 24.4539C47.5425 24.3641 47.5625 24.2672 47.5625 24.1693V17.242C47.5625 16.3479 46.5491 15.6881 45.5701 15.5688C44.3569 15.4121 42.8317 16.0719 42.2567 18.3676C41.9606 19.5593 41.8944 20.5669 41.8355 21.4553C41.8214 21.6486 41.8835 21.8398 42.0083 21.988C42.1332 22.1362 42.3111 22.2298 42.5039 22.2488C42.9007 22.2761 43.2414 22.0044 43.2658 21.6091C43.3247 20.7208 43.3866 19.7821 43.6525 18.714C43.8336 17.9924 44.2218 17.1054 45.0512 16.9947C45.6061 16.9157 46.0704 17.2133 46.1466 17.3484L46.125 24.0212L42.7598 31.8456C42.5499 32.3472 41.8973 33.1106 41.4546 33.4642L36.3371 37.4748C36.2513 37.5418 36.182 37.6276 36.1344 37.7255C36.0868 37.8234 36.0622 37.9309 36.0625 38.0398V43.8444C36.0625 44.035 36.1382 44.2178 36.273 44.3526C36.4078 44.4874 36.5906 44.5631 36.7812 44.5631ZM15.2188 44.5631C15.0281 44.5631 14.8453 44.4874 14.7105 44.3526C14.5757 44.2178 14.5 44.035 14.5 43.8444V38.3891L9.65419 34.5912C9.04756 34.1082 8.23537 33.1609 7.91769 32.4076L4.49644 24.4539C4.45753 24.3641 4.43748 24.2672 4.4375 24.1693V17.242C4.4375 16.3479 5.45094 15.6881 6.42987 15.5688C7.64312 15.4121 9.16831 16.0719 9.74331 18.3676C10.0394 19.5593 10.1056 20.5669 10.1645 21.4553C10.1786 21.6486 10.1165 21.8398 9.99166 21.988C9.86679 22.1362 9.68895 22.2298 9.49606 22.2488C9.09931 22.2761 8.75863 22.0044 8.73419 21.6091C8.67525 20.7208 8.61344 19.7821 8.3475 18.714C8.16637 17.9924 7.77825 17.1054 6.94881 16.9947C6.39394 16.9157 5.92963 17.2133 5.85344 17.3484L5.875 24.0212L9.24019 31.8456C9.45006 32.3472 10.1027 33.1106 10.5454 33.4642L15.6629 37.4748C15.7487 37.5418 15.818 37.6276 15.8656 37.7255C15.9132 37.8234 15.9378 37.9309 15.9375 38.0398V43.8444C15.9375 44.035 15.8618 44.2178 15.727 44.3526C15.5922 44.4874 15.4094 44.5631 15.2188 44.5631ZM23.8438 44.5631C23.6531 44.5631 23.4703 44.4874 23.3355 44.3526C23.2007 44.2178 23.125 44.035 23.125 43.8444V35.9913C23.125 32.9625 21.0334 30.3218 18.0377 29.5686C17.9461 29.5455 17.86 29.5047 17.7842 29.4484C17.7085 29.3921 17.6445 29.3214 17.5961 29.2404C17.5476 29.1593 17.5156 29.0696 17.5018 28.9762C17.4881 28.8828 17.4928 28.7876 17.5159 28.696C17.5389 28.6044 17.5797 28.5183 17.6361 28.4425C17.6924 28.3668 17.7631 28.3028 17.8441 28.2544C17.9251 28.2059 18.0149 28.1739 18.1083 28.1601C18.2017 28.1464 18.2969 28.1512 18.3884 28.1742C22.0224 29.0884 24.5625 32.3027 24.5625 35.9913V43.8444C24.5625 44.035 24.4868 44.2178 24.352 44.3526C24.2172 44.4874 24.0344 44.5631 23.8438 44.5631Z" fill="#303B8D"/>
<path d="M15.5967 32.2231C15.406 32.2231 15.223 32.1476 15.0878 32.0132L8.78147 25.7169C8.71454 25.6502 8.66143 25.5709 8.6252 25.4835C8.58896 25.3962 8.57031 25.3026 8.57031 25.2081C8.57031 25.1135 8.58896 25.0199 8.6252 24.9326C8.66143 24.8453 8.71454 24.766 8.78147 24.6992C10.758 22.7226 13.1946 22.8894 15.4644 25.1592L18.706 28.3936C18.8409 28.5283 18.9168 28.7112 18.917 28.9019C18.9171 29.0927 18.8415 29.2756 18.7067 29.4106C18.5719 29.5456 18.3891 29.6215 18.1983 29.6216C18.0076 29.6217 17.8246 29.5461 17.6897 29.4113L14.4481 26.1769C12.9747 24.7035 11.5961 24.3916 10.3498 25.2512L16.1027 30.9954C16.2019 31.0963 16.2693 31.2241 16.2964 31.363C16.3236 31.5019 16.3093 31.6457 16.2554 31.7765C16.2015 31.9073 16.1103 32.0194 15.9931 32.0988C15.876 32.1782 15.7381 32.2214 15.5967 32.2231ZM28.1575 44.5611C27.9669 44.5611 27.7841 44.4854 27.6493 44.3506C27.5145 44.2158 27.4388 44.033 27.4388 43.8424V35.9893C27.4388 32.3007 29.9788 29.0864 33.6128 28.1722C33.7044 28.1487 33.7997 28.1437 33.8933 28.1572C33.9868 28.1708 34.0767 28.2028 34.1579 28.2513C34.239 28.2998 34.3097 28.3639 34.3659 28.4399C34.4221 28.5159 34.4627 28.6022 34.4854 28.694C34.5312 28.8789 34.502 29.0743 34.4043 29.2378C34.3065 29.4012 34.1481 29.5194 33.9636 29.5666C30.9678 30.3198 28.8763 32.9605 28.8763 35.9893V43.8424C28.8763 44.033 28.8006 44.2158 28.6658 44.3506C28.531 44.4854 28.3482 44.5611 28.1575 44.5611Z" fill="#303B8D"/>
<path d="M36.4052 32.2231C36.2635 32.222 36.1252 32.1791 36.0077 32.1C35.8901 32.0208 35.7985 31.9087 35.7442 31.7778C35.6899 31.6468 35.6754 31.5028 35.7025 31.3637C35.7295 31.2246 35.7969 31.0965 35.8963 30.9954L41.6492 25.2512C40.4043 24.393 39.0243 24.7049 37.5509 26.1769L34.3093 29.4113C34.1744 29.5461 33.9914 29.6217 33.8007 29.6216C33.6099 29.6215 33.4271 29.5456 33.2923 29.4106C33.1575 29.2756 33.0819 29.0927 33.082 28.9019C33.0822 28.7112 33.1581 28.5283 33.293 28.3936L36.5346 25.1592C38.8044 22.8894 41.241 22.7226 43.2175 24.6992C43.2845 24.766 43.3376 24.8453 43.3738 24.9326C43.41 25.0199 43.4287 25.1135 43.4287 25.2081C43.4287 25.3026 43.41 25.3962 43.3738 25.4835C43.3376 25.5709 43.2845 25.6502 43.2175 25.7169L36.9112 32.0132C36.845 32.0799 36.7661 32.1329 36.6793 32.1689C36.5924 32.2049 36.4993 32.2233 36.4052 32.2231Z" fill="#303B8D"/>
<path d="M36.4029 32.2237C36.2611 32.2226 36.1229 32.1798 36.0053 32.1006C35.8878 32.0214 35.7961 31.9094 35.7419 31.7784C35.6876 31.6475 35.6731 31.5035 35.7001 31.3644C35.7272 31.2252 35.7946 31.0971 35.894 30.9961L41.6469 25.2518C40.402 24.3937 39.022 24.7056 37.5486 26.1776L34.307 29.412C34.172 29.5467 33.9891 29.6224 33.7983 29.6222C33.6076 29.6221 33.4247 29.5462 33.29 29.4112C33.1552 29.2763 33.0796 29.0933 33.0797 28.9026C33.0798 28.7119 33.1557 28.529 33.2907 28.3942L36.5322 25.1598C38.8021 22.89 41.2386 22.7233 43.2152 24.6998C43.2821 24.7666 43.3352 24.8459 43.3715 24.9332C43.4077 25.0206 43.4263 25.1142 43.4263 25.2087C43.4263 25.3033 43.4077 25.3969 43.3715 25.4842C43.3352 25.5715 43.2821 25.6508 43.2152 25.7176L36.9089 32.0138C36.8426 32.0806 36.7638 32.1335 36.6769 32.1695C36.5901 32.2056 36.4969 32.224 36.4029 32.2237ZM29.1593 17.8947C28.7698 17.8947 28.3802 17.8631 27.9906 17.7984C26.1305 17.4893 24.5004 16.473 23.4007 14.9349C22.301 13.3968 21.8669 11.5252 22.1745 9.66503C22.2911 9.05144 22.6432 8.50784 23.1555 8.15054C23.6677 7.79323 24.2995 7.6506 24.9156 7.75316C25.5317 7.85572 26.0832 8.19532 26.4521 8.6993C26.821 9.20329 26.978 9.83163 26.8895 10.4499C26.8033 10.9674 26.901 11.5036 27.1598 11.9564C27.2068 12.0383 27.2372 12.1287 27.2492 12.2224C27.2613 12.3161 27.2548 12.4112 27.2301 12.5024C27.2054 12.5936 27.163 12.679 27.1053 12.7537C27.0476 12.8285 26.9757 12.8912 26.8938 12.9382C26.8119 12.9852 26.7215 13.0156 26.6278 13.0277C26.5341 13.0398 26.439 13.0333 26.3478 13.0086C26.2567 12.9839 26.1712 12.9415 26.0965 12.8838C26.0217 12.8261 25.959 12.7542 25.912 12.6723C25.4872 11.9283 25.3309 11.061 25.4693 10.2156C25.5104 9.96614 25.4511 9.71052 25.3043 9.50469C25.1575 9.29886 24.9351 9.15959 24.6858 9.11734C24.4366 9.07656 24.1813 9.13607 23.9758 9.28286C23.7703 9.42965 23.6313 9.65179 23.589 9.90078C23.3432 11.3814 23.6896 12.8721 24.5665 14.0983C25.4434 15.3245 26.7429 16.1352 28.2235 16.381C28.6303 16.4472 29.0429 16.473 29.4454 16.45C29.5397 16.4451 29.634 16.4588 29.723 16.4904C29.812 16.5219 29.8939 16.5707 29.964 16.6339C30.0342 16.6971 30.0912 16.7735 30.1318 16.8588C30.1724 16.944 30.1959 17.0364 30.2008 17.1307C30.2057 17.225 30.192 17.3193 30.1604 17.4083C30.1289 17.4973 30.0801 17.5792 30.0169 17.6494C29.9537 17.7195 29.8773 17.7765 29.7921 17.8171C29.7068 17.8577 29.6144 17.8812 29.5201 17.8861C29.3999 17.8919 29.2796 17.8948 29.1593 17.8947Z" fill="#303B8D"/>
<path d="M24.9739 27.5993C24.3155 27.5993 23.6154 27.536 22.8679 27.398C20.9244 27.0386 19.3389 25.9203 18.4016 24.2456C17.7562 23.0941 17.2157 21.293 17.5794 18.6537C17.3299 18.768 17.0693 18.8562 16.8017 18.9168C15.8055 19.1568 14.3766 18.7371 13.5458 17.9637C12.9161 17.3758 12.6416 16.6125 12.7753 15.8146C12.8917 15.1261 13.2309 14.5784 13.7571 14.2291C14.3565 13.8323 15.0767 13.7676 15.5784 13.7978C16.5818 11.1471 18.6992 9.84902 21.1084 10.4643C22.1708 10.736 23.0347 11.3929 23.6054 12.3632C24.6447 14.127 24.5527 16.5248 24.12 18.1793C24.1008 18.2753 24.0622 18.3664 24.0066 18.4469C23.9509 18.5274 23.8794 18.5958 23.7965 18.6477C23.7135 18.6996 23.6208 18.734 23.524 18.7489C23.4273 18.7637 23.3285 18.7586 23.2338 18.7339C23.1391 18.7092 23.0504 18.6654 22.9732 18.6052C22.896 18.545 22.8319 18.4696 22.7849 18.3838C22.7379 18.298 22.7088 18.2034 22.6996 18.106C22.6904 18.0085 22.7012 17.9102 22.7314 17.8171C23.0721 16.5032 23.1828 14.4792 22.3677 13.0935C22.1968 12.7882 21.9653 12.521 21.6875 12.3085C21.4097 12.0959 21.0913 11.9423 20.7519 11.8572C18.9249 11.3871 17.4428 12.4883 16.7629 14.7883C16.7105 14.9645 16.5928 15.114 16.4338 15.2062C16.2748 15.2984 16.0865 15.3263 15.9076 15.2842C15.6733 15.231 14.966 15.1534 14.5491 15.4323C14.4284 15.5142 14.2602 15.6666 14.1941 16.0561C14.1739 16.1726 14.1136 16.5291 14.5261 16.9143C15.0868 17.4361 16.0528 17.6201 16.4653 17.521C16.9742 17.3988 17.6513 17.2349 18.3801 15.4222C18.462 15.1865 18.5483 14.9464 18.6431 14.702C18.7074 14.5224 18.8403 14.3758 19.0127 14.2942C19.1851 14.2127 19.3828 14.2029 19.5624 14.2672C19.742 14.3314 19.8887 14.4644 19.9702 14.6368C20.0518 14.8091 20.0615 15.0069 19.9973 15.1865C19.9096 15.4438 19.8233 15.6824 19.7342 15.9052C18.646 19.0605 18.6187 21.6911 19.6566 23.5455C20.3811 24.8393 21.6144 25.7061 23.131 25.9864C29.5135 27.1623 31.9228 22.1828 33.3588 19.2043C33.8461 18.1923 34.1408 17.5828 34.5577 17.2852C34.792 17.1363 35.0338 16.9996 35.2822 16.8755C36.9928 15.9771 41.0006 13.8711 41.4534 9.9252C41.8343 6.63189 39.4553 3.50676 36.1548 2.95908C35.3818 2.82887 34.5906 2.85304 33.827 3.03019C33.0634 3.20734 32.3424 3.53396 31.7057 3.9912C31.0667 4.44566 30.5241 5.02229 30.1093 5.68775C29.6946 6.35321 29.4158 7.09429 29.2893 7.86814C29.2519 8.17576 29.0161 8.52795 28.7128 8.58833C28.2486 8.67493 27.823 8.90405 27.4951 9.24383C27.1672 9.5836 26.9533 10.0171 26.8833 10.4841C26.8132 10.9511 26.8904 11.4283 27.1042 11.8493C27.318 12.2703 27.6577 12.6143 28.076 12.8333C28.2439 12.9238 28.369 13.0774 28.4238 13.2601C28.4785 13.4429 28.4584 13.6399 28.3678 13.8079C28.2773 13.9758 28.1237 14.1009 27.9409 14.1556C27.7582 14.2104 27.5611 14.1902 27.3932 14.0997C26.7081 13.7331 26.1548 13.1614 25.8109 12.4646C25.467 11.7678 25.3498 10.9809 25.4756 10.2141C25.5884 9.55577 25.8755 8.93964 26.307 8.42976C26.7386 7.91988 27.2987 7.53486 27.9294 7.3147C28.3066 5.50009 29.3563 3.89533 30.8676 2.82251C31.6574 2.25423 32.5521 1.84827 33.4999 1.62817C34.4476 1.40807 35.4297 1.37819 36.3891 1.54026C40.4328 2.21158 43.3451 6.04683 42.8808 10.0891C42.3389 14.7911 37.6972 17.2291 35.9492 18.1477C35.6876 18.2857 35.4921 18.3835 35.3929 18.4525C35.2534 18.5818 34.9199 19.2733 34.6511 19.8281C33.3919 22.4415 30.9021 27.5993 24.9739 27.5993Z" fill="#303B8D"/>
</g>
<defs>
<filter id="filter0_d_5303_26335" x="-1" y="0" width="54" height="54" filterUnits="userSpaceOnUse" color-interpolation-filters="sRGB">
<feFlood flood-opacity="0" result="BackgroundImageFix"/>
<feColorMatrix in="SourceAlpha" type="matrix" values="0 0 0 0 0 0 0 0 0 0 0 0 0 0 0 0 0 0 127 0" result="hardAlpha"/>
<feOffset dy="4"/>
<feGaussianBlur stdDeviation="2"/>
<feComposite in2="hardAlpha" operator="out"/>
<feColorMatrix type="matrix" values="0 0 0 0 0 0 0 0 0 0 0 0 0 0 0 0 0 0 0.25 0"/>
<feBlend mode="normal" in2="BackgroundImageFix" result="effect1_dropShadow_5303_26335"/>
<feBlend mode="normal" in="SourceGraphic" in2="effect1_dropShadow_5303_26335" result="shape"/>
</filter>
</defs>
</svg>
