<svg width="46" height="46" viewBox="0 0 46 46" fill="none" xmlns="http://www.w3.org/2000/svg">
<path d="M16.575 36.936H8.00681C7.79884 36.936 7.59939 36.8534 7.45233 36.7063C7.30527 36.5592 7.22266 36.3598 7.22266 36.1518V14.8157C7.22342 14.2515 7.44788 13.7106 7.84684 13.3117C8.24579 12.9127 8.78667 12.6883 9.35088 12.6875H15.1469C15.7334 12.6881 16.2957 12.9214 16.7103 13.3361C17.125 13.7509 17.3581 14.3133 17.3585 14.8998V36.1518C17.3585 36.5852 17.0077 36.936 16.575 36.936ZM8.79097 35.3684H15.7909V14.8998C15.7909 14.7291 15.7231 14.5653 15.6025 14.4444C15.482 14.3236 15.3183 14.2555 15.1476 14.2551H9.35088C9.20231 14.2553 9.0599 14.3144 8.95492 14.4196C8.84994 14.5247 8.79097 14.6672 8.79097 14.8157V35.3684Z" fill="#303B8D"/>
<path d="M14.4351 14.2571C14.3321 14.2571 14.2301 14.2368 14.135 14.1974C14.0399 14.158 13.9534 14.1002 13.8806 14.0274C13.8078 13.9546 13.75 13.8681 13.7106 13.773C13.6712 13.6779 13.6509 13.5759 13.6509 13.4729C13.6509 12.724 13.0422 12.1145 12.2932 12.1145C11.5443 12.1145 10.9355 12.724 10.9355 13.4729C10.9355 13.6809 10.8529 13.8803 10.7058 14.0274C10.5588 14.1744 10.3593 14.2571 10.1513 14.2571C9.94337 14.2571 9.74392 14.1744 9.59686 14.0274C9.4498 13.8803 9.36719 13.6809 9.36719 13.4729C9.36719 11.8593 10.6803 10.5469 12.2932 10.5469C13.9061 10.5469 15.2193 11.8593 15.2193 13.4729C15.2193 13.9063 14.8678 14.2571 14.4351 14.2571Z" fill="#303B8D"/>
<path d="M12.331 12.1145C12.1231 12.1145 11.9236 12.0319 11.7765 11.8849C11.6295 11.7378 11.5469 11.5383 11.5469 11.3304V1.50291C11.5469 1.29494 11.6295 1.09548 11.7765 0.948424C11.9236 0.801366 12.1231 0.71875 12.331 0.71875C12.539 0.71875 12.7385 0.801366 12.8855 0.948424C13.0326 1.09548 13.1152 1.29494 13.1152 1.50291V11.3304C13.1152 11.7638 12.7637 12.1145 12.331 12.1145ZM16.576 33.626H13.9928C13.7848 33.626 13.5854 33.5434 13.4383 33.3963C13.2912 33.2493 13.2086 33.0498 13.2086 32.8418C13.2086 32.6339 13.2912 32.4344 13.4383 32.2874C13.5854 32.1403 13.7848 32.0577 13.9928 32.0577H16.576C16.7839 32.0577 16.9834 32.1403 17.1305 32.2874C17.2775 32.4344 17.3601 32.6339 17.3601 32.8418C17.3601 33.0498 17.2775 33.2493 17.1305 33.3963C16.9834 33.5434 16.7839 33.626 16.576 33.626ZM16.576 29.9719H13.0095C12.8016 29.9719 12.6021 29.8893 12.455 29.7422C12.308 29.5951 12.2254 29.3957 12.2254 29.1877C12.2254 28.9797 12.308 28.7803 12.455 28.6332C12.6021 28.4862 12.8016 28.4036 13.0095 28.4036H16.576C16.7839 28.4036 16.9834 28.4862 17.1305 28.6332C17.2775 28.7803 17.3601 28.9797 17.3601 29.1877C17.3601 29.3957 17.2775 29.5951 17.1305 29.7422C16.9834 29.8893 16.7839 29.9719 16.576 29.9719ZM16.576 26.57H12.9851C12.7771 26.57 12.5777 26.4874 12.4306 26.3404C12.2836 26.1933 12.2009 25.9938 12.2009 25.7859C12.2009 25.5779 12.2836 25.3785 12.4306 25.2314C12.5777 25.0843 12.7771 25.0017 12.9851 25.0017H16.576C16.7839 25.0017 16.9834 25.0843 17.1305 25.2314C17.2775 25.3785 17.3601 25.5779 17.3601 25.7859C17.3601 25.9938 17.2775 26.1933 17.1305 26.3404C16.9834 26.4874 16.7839 26.57 16.576 26.57ZM16.576 22.9159H13.0095C12.8016 22.9159 12.6021 22.8333 12.455 22.6862C12.308 22.5392 12.2254 22.3397 12.2254 22.1318C12.2254 21.9238 12.308 21.7243 12.455 21.5773C12.6021 21.4302 12.8016 21.3476 13.0095 21.3476H16.576C16.7839 21.3476 16.9834 21.4302 17.1305 21.5773C17.2775 21.7243 17.3601 21.9238 17.3601 22.1318C17.3601 22.3397 17.2775 22.5392 17.1305 22.6862C16.9834 22.8333 16.7839 22.9159 16.576 22.9159ZM16.576 19.5141H13.678C13.47 19.5141 13.2705 19.4314 13.1235 19.2844C12.9764 19.1373 12.8938 18.9379 12.8938 18.7299C12.8938 18.5219 12.9764 18.3225 13.1235 18.1754C13.2705 18.0284 13.47 17.9458 13.678 17.9458H16.576C16.7839 17.9458 16.9834 18.0284 17.1305 18.1754C17.2775 18.3225 17.3601 18.5219 17.3601 18.7299C17.3601 18.9379 17.2775 19.1373 17.1305 19.2844C16.9834 19.4314 16.7839 19.5141 16.576 19.5141ZM35.9175 45.2812H24.792C24.2571 45.2807 23.7443 45.0679 23.366 44.6897C22.9878 44.3115 22.775 43.7986 22.7745 43.2637V26.4522C22.7756 25.483 23.1611 24.5538 23.8464 23.8685C24.5317 23.1832 25.4609 22.7977 26.43 22.7966H35.5388C36.3981 22.7975 37.2219 23.1393 37.8296 23.7468C38.4373 24.3544 38.7792 25.1781 38.7803 26.0374V42.4177C38.7794 43.1768 38.4773 43.9046 37.9405 44.4412C37.4037 44.9779 36.6759 45.2798 35.9168 45.2805L35.9175 45.2812ZM26.4307 24.3649C25.8774 24.3655 25.3468 24.5856 24.9555 24.9769C24.5642 25.3682 24.3441 25.8988 24.3435 26.4522V43.2637C24.3435 43.5117 24.5448 43.7137 24.7927 43.7137H35.9183C36.632 43.7137 37.2127 43.1329 37.2127 42.4185V26.0382C37.2123 25.5945 37.0359 25.1691 36.7222 24.8554C36.4085 24.5417 35.9831 24.3653 35.5395 24.3649H26.4307ZM36.2323 20.5922H24.8919C24.6839 20.5922 24.4845 20.5096 24.3374 20.3625C24.1904 20.2155 24.1077 20.016 24.1077 19.808V16.4658C24.1085 16.0081 24.2908 15.5694 24.6146 15.2459C24.9383 14.9224 25.3772 14.7405 25.8349 14.7401H35.2901C35.7478 14.7405 36.1866 14.9224 36.5104 15.2459C36.8342 15.5694 37.0165 16.0081 37.0172 16.4658V19.808C37.0172 20.2414 36.665 20.5922 36.2323 20.5922ZM25.6761 19.0246H35.4482V16.4666C35.4482 16.4246 35.4315 16.3844 35.4019 16.3548C35.3722 16.3251 35.332 16.3084 35.2901 16.3084H25.8349C25.793 16.3084 25.7527 16.3251 25.7231 16.3548C25.6934 16.3844 25.6768 16.4246 25.6768 16.4666L25.6761 19.0246Z" fill="#303B8D"/>
<path d="M27.1587 24.3652C26.9508 24.3652 26.7513 24.2826 26.6043 24.1355C26.4572 23.9885 26.3746 23.789 26.3746 23.581V19.9341C26.3746 19.7261 26.4572 19.5267 26.6043 19.3796C26.7513 19.2326 26.9508 19.1499 27.1587 19.1499C27.3667 19.1499 27.5662 19.2326 27.7132 19.3796C27.8603 19.5267 27.9429 19.7261 27.9429 19.9341V23.581C27.9429 24.0144 27.5914 24.3652 27.1587 24.3652ZM33.7741 24.3652C33.5662 24.3652 33.3667 24.2826 33.2196 24.1355C33.0726 23.9885 32.99 23.789 32.99 23.581V19.8076C32.99 19.5996 33.0726 19.4002 33.2196 19.2531C33.3667 19.1061 33.5662 19.0234 33.7741 19.0234C33.9821 19.0234 34.1815 19.1061 34.3286 19.2531C34.4757 19.4002 34.5583 19.5996 34.5583 19.8076V23.581C34.5583 24.0144 34.2068 24.3652 33.7741 24.3652ZM37.9953 39.7687H27.82C27.612 39.7687 27.4126 39.6861 27.2655 39.539C27.1185 39.392 27.0358 39.1925 27.0358 38.9846V28.8099C27.0358 28.3765 27.3873 28.0258 27.82 28.0258H37.9953C38.2033 28.0258 38.4028 28.1084 38.5498 28.2555C38.6969 28.4025 38.7795 28.602 38.7795 28.8099C38.7795 29.0179 38.6969 29.2174 38.5498 29.3644C38.4028 29.5115 38.2033 29.5941 37.9953 29.5941H28.6042V38.2004H37.9953C38.2033 38.2004 38.4028 38.283 38.5498 38.4301C38.6969 38.5771 38.7795 38.7766 38.7795 38.9846C38.7795 39.1925 38.6969 39.392 38.5498 39.539C38.4028 39.6861 38.2033 39.7687 37.9953 39.7687ZM10.3623 43.9935C10.1543 43.9935 9.95486 43.9109 9.8078 43.7639C9.66074 43.6168 9.57812 43.4173 9.57812 43.2094V36.1534C9.57813 35.9454 9.66074 35.746 9.8078 35.5989C9.95486 35.4519 10.1543 35.3693 10.3623 35.3693C10.5703 35.3693 10.7697 35.4519 10.9168 35.5989C11.0638 35.746 11.1464 35.9454 11.1464 36.1534V43.2094C11.1464 43.6428 10.795 43.9935 10.3623 43.9935ZM14.2191 43.9935C14.0111 43.9935 13.8117 43.9109 13.6646 43.7639C13.5176 43.6168 13.4349 43.4173 13.4349 43.2094V36.1534C13.4349 35.9454 13.5176 35.746 13.6646 35.5989C13.8117 35.4519 14.0111 35.3693 14.2191 35.3693C14.4271 35.3693 14.6265 35.4519 14.7736 35.5989C14.9206 35.746 15.0032 35.9454 15.0032 36.1534V43.2094C15.0032 43.6428 14.6518 43.9935 14.2191 43.9935Z" fill="#303B8D"/>
<path d="M15.8199 43.9941H8.76462C8.55665 43.9941 8.3572 43.9115 8.21014 43.7644C8.06308 43.6174 7.98047 43.4179 7.98047 43.2099C7.98047 43.002 8.06308 42.8025 8.21014 42.6555C8.3572 42.5084 8.55665 42.4258 8.76462 42.4258H15.8206C16.0286 42.4258 16.228 42.5084 16.3751 42.6555C16.5221 42.8025 16.6048 43.002 16.6048 43.2099C16.6048 43.4179 16.5221 43.6174 16.3751 43.7644C16.228 43.9115 16.0278 43.9941 15.8199 43.9941Z" fill="#303B8D"/>
</svg>
