<svg width="36" height="38" viewBox="0 0 36 38" fill="none" xmlns="http://www.w3.org/2000/svg">
<path fill-rule="evenodd" clip-rule="evenodd" d="M27.4527 9.6079C27.4527 14.8468 23.1721 19.0635 17.9971 19.0635C12.7582 19.0635 8.60547 14.8468 8.60547 9.6079C8.60547 4.36901 12.886 0.152344 18.061 0.152344C22.0221 0.152344 25.4082 2.58012 26.8138 6.09401V6.1579C27.1971 7.24401 27.4527 8.39401 27.4527 9.6079ZM25.2148 5.71024C23.8093 3.15469 21.126 1.42969 17.9954 1.42969C14.8648 1.42969 12.1815 3.21858 10.8398 5.71024H12.9482C13.2676 4.36858 14.4815 3.34635 15.951 3.34635C17.4204 3.34635 18.6343 4.36858 18.9537 5.71024H25.2148ZM15.8905 4.625C16.9127 4.625 17.6793 5.45556 17.6793 6.41389C17.6793 7.37222 16.8488 8.20278 15.8905 8.20278C14.9321 8.20278 14.1016 7.37222 14.1016 6.41389C14.1016 5.45556 14.8682 4.625 15.8905 4.625ZM12.8206 7.05273H10.2011C9.94557 7.8194 9.8178 8.71385 9.75391 9.60829C9.75391 14.1444 13.3956 17.7861 17.9317 17.7861C22.4678 17.7861 26.1095 14.0805 26.1095 9.60829C26.1095 8.71385 25.9178 7.88329 25.6622 7.05273H18.8261C18.5706 8.45829 17.2928 9.5444 15.8233 9.5444C14.3539 9.5444 13.0761 8.45829 12.8206 7.05273Z" fill="#303B8D"/>
<path fill-rule="evenodd" clip-rule="evenodd" d="M26.2413 18.041H27.5191C32.1191 18.041 35.8885 21.8105 35.8247 26.3466V37.2077C35.8247 37.591 35.5691 37.8466 35.1858 37.8466H0.685764C0.302431 37.8466 0.046875 37.591 0.046875 37.2077V26.3466C0.046875 21.7466 3.75243 18.041 8.35243 18.041H9.63021C10.333 18.041 10.9719 18.4243 11.2913 18.9993L16.9135 26.9216C17.1052 27.241 17.4885 27.4327 17.9358 27.4327C18.3191 27.4327 18.7024 27.241 18.958 26.9216L24.5802 18.9993C24.9635 18.4243 25.5385 18.041 26.2413 18.041ZM1.39062 36.5684H34.6128H34.7406V26.3461C34.7406 22.4489 31.6101 19.3184 27.7128 19.3184H26.4351C26.1795 19.3184 25.9878 19.4461 25.8601 19.6378C25.7962 19.6378 25.7962 19.7017 25.7962 19.7017L20.174 27.6878C19.6628 28.3906 18.8962 28.7739 18.0656 28.7739C17.2351 28.7739 16.4045 28.3906 15.9573 27.6878L10.3351 19.7017C10.2712 19.7017 10.2712 19.6378 10.2712 19.6378C10.1434 19.4461 9.95174 19.3184 9.69618 19.3184H8.4184C4.52118 19.3184 1.39062 22.4489 1.39062 26.3461V36.5684Z" fill="#303B8D"/>
<path d="M31.4162 29.8613H29.1801V27.6252C29.1801 27.2419 28.9246 26.9863 28.5412 26.9863C28.1579 26.9863 27.9023 27.2419 27.9023 27.6252V29.8613H25.6662C25.2829 29.8613 25.0273 30.1169 25.0273 30.5002C25.0273 30.8836 25.2829 31.1391 25.6662 31.1391H27.9023V33.3752C27.9023 33.7586 28.1579 34.0141 28.5412 34.0141C28.9246 34.0141 29.1801 33.7586 29.1801 33.3752V31.1391H31.4162C31.7996 31.1391 32.0551 30.8836 32.0551 30.5002C32.0551 30.1169 31.7357 29.8613 31.4162 29.8613Z" fill="#303B8D"/>
</svg>
