<svg width="22" height="24" viewBox="0 0 22 24" fill="none" xmlns="http://www.w3.org/2000/svg">
<mask id="path-1-outside-1_5303_26413" maskUnits="userSpaceOnUse" x="-0.550781" y="-0.296875" width="23" height="24" fill="black">
<rect fill="white" x="-0.550781" y="-0.296875" width="23" height="24"/>
<path d="M10.9891 8.98781C12.9058 8.98313 14.4616 7.41984 14.4569 5.50266C14.4545 4.57406 14.0908 3.70219 13.4327 3.04734C12.7764 2.39438 11.9064 2.03531 10.9811 2.03531H10.9722C9.05547 2.04047 7.49969 3.60375 7.50438 5.52047C7.50906 7.43437 9.06766 8.98828 10.9806 8.98781H10.9891ZM8.06688 5.51859C8.06313 3.91172 9.36672 2.60156 10.9731 2.59734H10.9806C11.7559 2.59734 12.4858 2.89828 13.0356 3.44578C13.5873 3.99469 13.8925 4.72547 13.8944 5.50406C13.8981 7.11047 12.5945 8.42109 10.9881 8.42531H10.9806C9.3775 8.42531 8.07063 7.12266 8.06688 5.51859ZM21.2702 19.8408H20.4616C20.6908 19.5675 20.8291 19.2159 20.8291 18.8325V8.08453C20.8291 7.21828 20.1245 6.51375 19.2583 6.51375H15.6597C15.7427 6.18422 15.7895 5.84672 15.7886 5.49937C15.7853 4.215 15.2823 3.00891 14.3716 2.10281C13.4645 1.2 12.2608 0.703125 10.9806 0.703125H10.9684C9.68406 0.706406 8.47797 1.20937 7.57188 2.12016C6.66578 3.03047 6.16891 4.23937 6.17219 5.52375C6.17313 5.86266 6.21953 6.19219 6.30063 6.51375H2.74234C1.87609 6.51375 1.17156 7.21828 1.17156 8.08453V18.832C1.17156 19.2155 1.30984 19.5675 1.53906 19.8403H0.730469C0.575313 19.8403 0.449219 19.9664 0.449219 20.1216V21.7017C0.449219 22.5811 1.16453 23.2964 2.04391 23.2964H19.9567C20.8361 23.2964 21.5514 22.5811 21.5514 21.7017V20.1216C21.5514 19.9664 21.4253 19.8408 21.2702 19.8408ZM7.97078 2.51672C8.77094 1.71281 9.83594 1.26844 10.9698 1.26562H10.9806C12.1108 1.26562 13.1739 1.70437 13.975 2.50172C14.7789 3.30187 15.2233 4.36687 15.2261 5.50078C15.2298 6.97078 14.2169 8.33438 13.2377 9.65344C12.933 10.0636 12.6184 10.4878 12.3452 10.9022L10.9984 12.9483L9.64141 10.9088C9.36625 10.4953 9.04938 10.073 8.74281 9.66422C7.75703 8.35031 6.7375 6.99141 6.73375 5.52141C6.73187 4.38797 7.17063 3.32062 7.97078 2.51672ZM8.29375 10.0027C8.54313 10.335 8.78125 10.6523 9.00109 10.9683C8.21922 11.152 7.54234 11.4394 7.02625 11.8097C6.36438 12.2841 6.01563 12.8583 6.01703 13.4709C6.01891 14.2317 6.56359 14.9306 7.55078 15.4387C8.47375 15.9136 9.69156 16.1752 10.983 16.1752H11.0069C13.8011 16.1681 15.9869 14.9695 15.9831 13.4461C15.9817 12.8334 15.6297 12.2606 14.9655 11.7895C14.4475 11.422 13.7688 11.1384 12.9864 10.958C13.2053 10.6411 13.4416 10.3223 13.6891 9.98859C14.0594 9.48984 14.4339 8.985 14.7625 8.46656H18.8758V18.45H3.12438V8.46656H7.20063C7.53484 8.99016 7.91641 9.49969 8.29375 10.0027ZM12.6513 11.4614C14.2891 11.7891 15.4188 12.5925 15.4206 13.4475C15.4234 14.6152 13.4017 15.6066 11.0055 15.6127H10.983C9.77969 15.6127 8.65328 15.3736 7.80859 14.9386C7.01734 14.5312 6.58094 14.0095 6.57953 13.4695C6.57719 12.6145 7.70312 11.8055 9.33906 11.4698L10.7659 13.6144C10.7916 13.653 10.8265 13.6847 10.8674 13.7066C10.9083 13.7285 10.9539 13.74 11.0003 13.74H11.0008C11.095 13.74 11.1831 13.6922 11.2352 13.6134L12.6513 11.4614ZM1.73406 18.832V8.08453C1.73406 7.52859 2.18641 7.07625 2.74234 7.07625H6.47922C6.58656 7.3575 6.71781 7.63313 6.86641 7.90453H2.84313C2.68797 7.90453 2.56188 8.03063 2.56188 8.18578V18.7313C2.56188 18.8864 2.68797 19.0125 2.84313 19.0125H19.157C19.3122 19.0125 19.4383 18.8864 19.4383 18.7313V8.18531C19.4383 8.03016 19.3122 7.90406 19.157 7.90406H15.0948C15.243 7.63266 15.3738 7.35703 15.4806 7.07578H19.2578C19.8138 7.07578 20.2661 7.52813 20.2661 8.08406V18.8316C20.2661 19.3875 19.8138 19.8398 19.2578 19.8398H2.74234C2.18641 19.8408 1.73406 19.3884 1.73406 18.832ZM9.48297 20.4033H12.5177V20.842C12.5177 21.0839 12.3208 21.2808 12.0789 21.2808H9.92172C9.67984 21.2808 9.48297 21.0839 9.48297 20.842V20.4033ZM20.9889 21.7022C20.9889 22.2712 20.5258 22.7344 19.9567 22.7344H2.04391C1.47484 22.7344 1.01172 22.2712 1.01172 21.7022V20.4033H8.92047V20.842C8.92047 21.3942 9.36953 21.8433 9.92172 21.8433H12.0789C12.6311 21.8433 13.0802 21.3942 13.0802 20.842V20.4033H20.9889V21.7022ZM13.1355 5.41078C13.2967 5.23922 13.3816 5.01469 13.3741 4.77844C13.3666 4.54219 13.2681 4.32328 13.0966 4.16203C12.925 4.00078 12.7009 3.91641 12.4642 3.92344C12.228 3.93094 12.0091 4.02938 11.8478 4.20094L10.4397 5.7L10.0755 5.35781C9.90391 5.19656 9.67938 5.11172 9.44313 5.11922C9.20688 5.12672 8.98797 5.22516 8.82672 5.39672C8.66547 5.56828 8.58063 5.79281 8.58813 6.02906C8.59562 6.26531 8.69406 6.48422 8.86563 6.64547L9.87391 7.59281C10.0441 7.75266 10.2611 7.83141 10.4781 7.83141C10.7134 7.83141 10.9487 7.73812 11.1227 7.55344L13.1355 5.41078ZM10.2583 7.18266L9.25 6.23531C9.18813 6.17719 9.1525 6.0975 9.14969 6.01125C9.14688 5.925 9.17781 5.84344 9.23594 5.78156C9.29406 5.71969 9.37375 5.68406 9.46 5.68125H9.47031C9.55281 5.68125 9.63016 5.71172 9.68969 5.7675L10.2592 6.30234C10.3722 6.40875 10.5503 6.40313 10.6567 6.29016L12.2575 4.58625C12.3156 4.52437 12.3953 4.48875 12.4816 4.48594C12.5669 4.48266 12.6494 4.51406 12.7113 4.57219C12.7731 4.63031 12.8088 4.71 12.8116 4.79625C12.8144 4.8825 12.7834 4.96406 12.7253 5.02594L10.712 7.16859C10.5906 7.29703 10.3867 7.30359 10.2583 7.18266Z"/>
</mask>
<path d="M10.9891 8.98781C12.9058 8.98313 14.4616 7.41984 14.4569 5.50266C14.4545 4.57406 14.0908 3.70219 13.4327 3.04734C12.7764 2.39438 11.9064 2.03531 10.9811 2.03531H10.9722C9.05547 2.04047 7.49969 3.60375 7.50438 5.52047C7.50906 7.43437 9.06766 8.98828 10.9806 8.98781H10.9891ZM8.06688 5.51859C8.06313 3.91172 9.36672 2.60156 10.9731 2.59734H10.9806C11.7559 2.59734 12.4858 2.89828 13.0356 3.44578C13.5873 3.99469 13.8925 4.72547 13.8944 5.50406C13.8981 7.11047 12.5945 8.42109 10.9881 8.42531H10.9806C9.3775 8.42531 8.07063 7.12266 8.06688 5.51859ZM21.2702 19.8408H20.4616C20.6908 19.5675 20.8291 19.2159 20.8291 18.8325V8.08453C20.8291 7.21828 20.1245 6.51375 19.2583 6.51375H15.6597C15.7427 6.18422 15.7895 5.84672 15.7886 5.49937C15.7853 4.215 15.2823 3.00891 14.3716 2.10281C13.4645 1.2 12.2608 0.703125 10.9806 0.703125H10.9684C9.68406 0.706406 8.47797 1.20937 7.57188 2.12016C6.66578 3.03047 6.16891 4.23937 6.17219 5.52375C6.17313 5.86266 6.21953 6.19219 6.30063 6.51375H2.74234C1.87609 6.51375 1.17156 7.21828 1.17156 8.08453V18.832C1.17156 19.2155 1.30984 19.5675 1.53906 19.8403H0.730469C0.575313 19.8403 0.449219 19.9664 0.449219 20.1216V21.7017C0.449219 22.5811 1.16453 23.2964 2.04391 23.2964H19.9567C20.8361 23.2964 21.5514 22.5811 21.5514 21.7017V20.1216C21.5514 19.9664 21.4253 19.8408 21.2702 19.8408ZM7.97078 2.51672C8.77094 1.71281 9.83594 1.26844 10.9698 1.26562H10.9806C12.1108 1.26562 13.1739 1.70437 13.975 2.50172C14.7789 3.30187 15.2233 4.36687 15.2261 5.50078C15.2298 6.97078 14.2169 8.33438 13.2377 9.65344C12.933 10.0636 12.6184 10.4878 12.3452 10.9022L10.9984 12.9483L9.64141 10.9088C9.36625 10.4953 9.04938 10.073 8.74281 9.66422C7.75703 8.35031 6.7375 6.99141 6.73375 5.52141C6.73187 4.38797 7.17063 3.32062 7.97078 2.51672ZM8.29375 10.0027C8.54313 10.335 8.78125 10.6523 9.00109 10.9683C8.21922 11.152 7.54234 11.4394 7.02625 11.8097C6.36438 12.2841 6.01563 12.8583 6.01703 13.4709C6.01891 14.2317 6.56359 14.9306 7.55078 15.4387C8.47375 15.9136 9.69156 16.1752 10.983 16.1752H11.0069C13.8011 16.1681 15.9869 14.9695 15.9831 13.4461C15.9817 12.8334 15.6297 12.2606 14.9655 11.7895C14.4475 11.422 13.7688 11.1384 12.9864 10.958C13.2053 10.6411 13.4416 10.3223 13.6891 9.98859C14.0594 9.48984 14.4339 8.985 14.7625 8.46656H18.8758V18.45H3.12438V8.46656H7.20063C7.53484 8.99016 7.91641 9.49969 8.29375 10.0027ZM12.6513 11.4614C14.2891 11.7891 15.4188 12.5925 15.4206 13.4475C15.4234 14.6152 13.4017 15.6066 11.0055 15.6127H10.983C9.77969 15.6127 8.65328 15.3736 7.80859 14.9386C7.01734 14.5312 6.58094 14.0095 6.57953 13.4695C6.57719 12.6145 7.70312 11.8055 9.33906 11.4698L10.7659 13.6144C10.7916 13.653 10.8265 13.6847 10.8674 13.7066C10.9083 13.7285 10.9539 13.74 11.0003 13.74H11.0008C11.095 13.74 11.1831 13.6922 11.2352 13.6134L12.6513 11.4614ZM1.73406 18.832V8.08453C1.73406 7.52859 2.18641 7.07625 2.74234 7.07625H6.47922C6.58656 7.3575 6.71781 7.63313 6.86641 7.90453H2.84313C2.68797 7.90453 2.56188 8.03063 2.56188 8.18578V18.7313C2.56188 18.8864 2.68797 19.0125 2.84313 19.0125H19.157C19.3122 19.0125 19.4383 18.8864 19.4383 18.7313V8.18531C19.4383 8.03016 19.3122 7.90406 19.157 7.90406H15.0948C15.243 7.63266 15.3738 7.35703 15.4806 7.07578H19.2578C19.8138 7.07578 20.2661 7.52813 20.2661 8.08406V18.8316C20.2661 19.3875 19.8138 19.8398 19.2578 19.8398H2.74234C2.18641 19.8408 1.73406 19.3884 1.73406 18.832ZM9.48297 20.4033H12.5177V20.842C12.5177 21.0839 12.3208 21.2808 12.0789 21.2808H9.92172C9.67984 21.2808 9.48297 21.0839 9.48297 20.842V20.4033ZM20.9889 21.7022C20.9889 22.2712 20.5258 22.7344 19.9567 22.7344H2.04391C1.47484 22.7344 1.01172 22.2712 1.01172 21.7022V20.4033H8.92047V20.842C8.92047 21.3942 9.36953 21.8433 9.92172 21.8433H12.0789C12.6311 21.8433 13.0802 21.3942 13.0802 20.842V20.4033H20.9889V21.7022ZM13.1355 5.41078C13.2967 5.23922 13.3816 5.01469 13.3741 4.77844C13.3666 4.54219 13.2681 4.32328 13.0966 4.16203C12.925 4.00078 12.7009 3.91641 12.4642 3.92344C12.228 3.93094 12.0091 4.02938 11.8478 4.20094L10.4397 5.7L10.0755 5.35781C9.90391 5.19656 9.67938 5.11172 9.44313 5.11922C9.20688 5.12672 8.98797 5.22516 8.82672 5.39672C8.66547 5.56828 8.58063 5.79281 8.58813 6.02906C8.59562 6.26531 8.69406 6.48422 8.86563 6.64547L9.87391 7.59281C10.0441 7.75266 10.2611 7.83141 10.4781 7.83141C10.7134 7.83141 10.9487 7.73812 11.1227 7.55344L13.1355 5.41078ZM10.2583 7.18266L9.25 6.23531C9.18813 6.17719 9.1525 6.0975 9.14969 6.01125C9.14688 5.925 9.17781 5.84344 9.23594 5.78156C9.29406 5.71969 9.37375 5.68406 9.46 5.68125H9.47031C9.55281 5.68125 9.63016 5.71172 9.68969 5.7675L10.2592 6.30234C10.3722 6.40875 10.5503 6.40313 10.6567 6.29016L12.2575 4.58625C12.3156 4.52437 12.3953 4.48875 12.4816 4.48594C12.5669 4.48266 12.6494 4.51406 12.7113 4.57219C12.7731 4.63031 12.8088 4.71 12.8116 4.79625C12.8144 4.8825 12.7834 4.96406 12.7253 5.02594L10.712 7.16859C10.5906 7.29703 10.3867 7.30359 10.2583 7.18266Z" fill="#8CC640"/>
<path d="M10.9891 8.98781C12.9058 8.98313 14.4616 7.41984 14.4569 5.50266C14.4545 4.57406 14.0908 3.70219 13.4327 3.04734C12.7764 2.39438 11.9064 2.03531 10.9811 2.03531H10.9722C9.05547 2.04047 7.49969 3.60375 7.50438 5.52047C7.50906 7.43437 9.06766 8.98828 10.9806 8.98781H10.9891ZM8.06688 5.51859C8.06313 3.91172 9.36672 2.60156 10.9731 2.59734H10.9806C11.7559 2.59734 12.4858 2.89828 13.0356 3.44578C13.5873 3.99469 13.8925 4.72547 13.8944 5.50406C13.8981 7.11047 12.5945 8.42109 10.9881 8.42531H10.9806C9.3775 8.42531 8.07063 7.12266 8.06688 5.51859ZM21.2702 19.8408H20.4616C20.6908 19.5675 20.8291 19.2159 20.8291 18.8325V8.08453C20.8291 7.21828 20.1245 6.51375 19.2583 6.51375H15.6597C15.7427 6.18422 15.7895 5.84672 15.7886 5.49937C15.7853 4.215 15.2823 3.00891 14.3716 2.10281C13.4645 1.2 12.2608 0.703125 10.9806 0.703125H10.9684C9.68406 0.706406 8.47797 1.20937 7.57188 2.12016C6.66578 3.03047 6.16891 4.23937 6.17219 5.52375C6.17313 5.86266 6.21953 6.19219 6.30063 6.51375H2.74234C1.87609 6.51375 1.17156 7.21828 1.17156 8.08453V18.832C1.17156 19.2155 1.30984 19.5675 1.53906 19.8403H0.730469C0.575313 19.8403 0.449219 19.9664 0.449219 20.1216V21.7017C0.449219 22.5811 1.16453 23.2964 2.04391 23.2964H19.9567C20.8361 23.2964 21.5514 22.5811 21.5514 21.7017V20.1216C21.5514 19.9664 21.4253 19.8408 21.2702 19.8408ZM7.97078 2.51672C8.77094 1.71281 9.83594 1.26844 10.9698 1.26562H10.9806C12.1108 1.26562 13.1739 1.70437 13.975 2.50172C14.7789 3.30187 15.2233 4.36687 15.2261 5.50078C15.2298 6.97078 14.2169 8.33438 13.2377 9.65344C12.933 10.0636 12.6184 10.4878 12.3452 10.9022L10.9984 12.9483L9.64141 10.9088C9.36625 10.4953 9.04938 10.073 8.74281 9.66422C7.75703 8.35031 6.7375 6.99141 6.73375 5.52141C6.73187 4.38797 7.17063 3.32062 7.97078 2.51672ZM8.29375 10.0027C8.54313 10.335 8.78125 10.6523 9.00109 10.9683C8.21922 11.152 7.54234 11.4394 7.02625 11.8097C6.36438 12.2841 6.01563 12.8583 6.01703 13.4709C6.01891 14.2317 6.56359 14.9306 7.55078 15.4387C8.47375 15.9136 9.69156 16.1752 10.983 16.1752H11.0069C13.8011 16.1681 15.9869 14.9695 15.9831 13.4461C15.9817 12.8334 15.6297 12.2606 14.9655 11.7895C14.4475 11.422 13.7688 11.1384 12.9864 10.958C13.2053 10.6411 13.4416 10.3223 13.6891 9.98859C14.0594 9.48984 14.4339 8.985 14.7625 8.46656H18.8758V18.45H3.12438V8.46656H7.20063C7.53484 8.99016 7.91641 9.49969 8.29375 10.0027ZM12.6513 11.4614C14.2891 11.7891 15.4188 12.5925 15.4206 13.4475C15.4234 14.6152 13.4017 15.6066 11.0055 15.6127H10.983C9.77969 15.6127 8.65328 15.3736 7.80859 14.9386C7.01734 14.5312 6.58094 14.0095 6.57953 13.4695C6.57719 12.6145 7.70312 11.8055 9.33906 11.4698L10.7659 13.6144C10.7916 13.653 10.8265 13.6847 10.8674 13.7066C10.9083 13.7285 10.9539 13.74 11.0003 13.74H11.0008C11.095 13.74 11.1831 13.6922 11.2352 13.6134L12.6513 11.4614ZM1.73406 18.832V8.08453C1.73406 7.52859 2.18641 7.07625 2.74234 7.07625H6.47922C6.58656 7.3575 6.71781 7.63313 6.86641 7.90453H2.84313C2.68797 7.90453 2.56188 8.03063 2.56188 8.18578V18.7313C2.56188 18.8864 2.68797 19.0125 2.84313 19.0125H19.157C19.3122 19.0125 19.4383 18.8864 19.4383 18.7313V8.18531C19.4383 8.03016 19.3122 7.90406 19.157 7.90406H15.0948C15.243 7.63266 15.3738 7.35703 15.4806 7.07578H19.2578C19.8138 7.07578 20.2661 7.52813 20.2661 8.08406V18.8316C20.2661 19.3875 19.8138 19.8398 19.2578 19.8398H2.74234C2.18641 19.8408 1.73406 19.3884 1.73406 18.832ZM9.48297 20.4033H12.5177V20.842C12.5177 21.0839 12.3208 21.2808 12.0789 21.2808H9.92172C9.67984 21.2808 9.48297 21.0839 9.48297 20.842V20.4033ZM20.9889 21.7022C20.9889 22.2712 20.5258 22.7344 19.9567 22.7344H2.04391C1.47484 22.7344 1.01172 22.2712 1.01172 21.7022V20.4033H8.92047V20.842C8.92047 21.3942 9.36953 21.8433 9.92172 21.8433H12.0789C12.6311 21.8433 13.0802 21.3942 13.0802 20.842V20.4033H20.9889V21.7022ZM13.1355 5.41078C13.2967 5.23922 13.3816 5.01469 13.3741 4.77844C13.3666 4.54219 13.2681 4.32328 13.0966 4.16203C12.925 4.00078 12.7009 3.91641 12.4642 3.92344C12.228 3.93094 12.0091 4.02938 11.8478 4.20094L10.4397 5.7L10.0755 5.35781C9.90391 5.19656 9.67938 5.11172 9.44313 5.11922C9.20688 5.12672 8.98797 5.22516 8.82672 5.39672C8.66547 5.56828 8.58063 5.79281 8.58813 6.02906C8.59562 6.26531 8.69406 6.48422 8.86563 6.64547L9.87391 7.59281C10.0441 7.75266 10.2611 7.83141 10.4781 7.83141C10.7134 7.83141 10.9487 7.73812 11.1227 7.55344L13.1355 5.41078ZM10.2583 7.18266L9.25 6.23531C9.18813 6.17719 9.1525 6.0975 9.14969 6.01125C9.14688 5.925 9.17781 5.84344 9.23594 5.78156C9.29406 5.71969 9.37375 5.68406 9.46 5.68125H9.47031C9.55281 5.68125 9.63016 5.71172 9.68969 5.7675L10.2592 6.30234C10.3722 6.40875 10.5503 6.40313 10.6567 6.29016L12.2575 4.58625C12.3156 4.52437 12.3953 4.48875 12.4816 4.48594C12.5669 4.48266 12.6494 4.51406 12.7113 4.57219C12.7731 4.63031 12.8088 4.71 12.8116 4.79625C12.8144 4.8825 12.7834 4.96406 12.7253 5.02594L10.712 7.16859C10.5906 7.29703 10.3867 7.30359 10.2583 7.18266Z" stroke="#8CC640" stroke-width="0.2" mask="url(#path-1-outside-1_5303_26413)"/>
</svg>
