<svg width="24" height="23" viewBox="0 0 24 23" fill="none" xmlns="http://www.w3.org/2000/svg">
<path d="M20.5137 11.4863C20.5137 16.1807 16.7081 19.9863 12.0137 19.9863C7.31925 19.9863 3.51367 16.1807 3.51367 11.4863C3.51367 6.79191 7.31925 2.98633 12.0137 2.98633C16.7081 2.98633 20.5137 6.79191 20.5137 11.4863Z" stroke="#303B8D" stroke-width="1.5"/>
<path d="M22.5 11.4863H20.5" stroke="#303B8D" stroke-width="1.5" stroke-linecap="round" stroke-linejoin="round"/>
<path d="M3.5 11.4863H1.5" stroke="#303B8D" stroke-width="1.5" stroke-linecap="round" stroke-linejoin="round"/>
<path d="M12 0.986328L12 2.98633" stroke="#303B8D" stroke-width="1.5" stroke-linecap="round" stroke-linejoin="round"/>
<path d="M12 19.9863V21.9863" stroke="#303B8D" stroke-width="1.5" stroke-linecap="round" stroke-linejoin="round"/>
<path d="M15 11.4863C15 13.1432 13.6568 14.4863 12 14.4863C10.3431 14.4863 8.99995 13.1432 8.99995 11.4863C8.99995 9.82947 10.3431 8.48633 12 8.48633C13.6568 8.48633 15 9.82947 15 11.4863Z" stroke="#303B8D" stroke-width="1.5"/>
</svg>
