<svg width="583" height="399" viewBox="0 0 583 399" fill="none" xmlns="http://www.w3.org/2000/svg">
<path fill-rule="evenodd" clip-rule="evenodd" d="M149.592 96.2477C169.96 96.2235 190.117 100.373 208.819 108.44C241.44 44.0943 308.206 0 385.275 0C494.475 0 583 88.5253 583 197.725C583 306.925 494.479 395.452 385.275 395.452H149.592C66.9638 395.452 0 328.473 0 245.861C0 163.249 66.9697 96.2477 149.592 96.2477Z" fill="#E7F4D3"/>
<path fill-rule="evenodd" clip-rule="evenodd" d="M393.953 238.722C390.413 246.489 388.503 256.267 380.391 262.494C367.318 272.529 359.096 279.468 357.256 278.428C355.679 277.537 353.212 276.56 356.741 270.876C359.496 267.506 368.696 254.025 372.209 248.531C373.041 247.229 381.699 223.694 392.844 219.627C393.968 218.903 397.246 233.768 393.957 238.722" fill="#7BABEA"/>
<path fill-rule="evenodd" clip-rule="evenodd" d="M355.292 272.909C354.207 272.974 349.911 273.283 349.102 273.919C348.687 274.242 348.838 274.356 349.038 274.556C349.349 274.789 349.722 274.925 350.111 274.947C350.894 274.971 352.131 275.676 352.564 275.627C351.977 280.069 346.839 283.416 348.679 284.902C349.153 284.941 351.828 284.175 352.568 284.16C354.918 284.111 356.077 283.833 360.792 276.265C362.385 273.706 359.746 272.296 357.68 271.797L355.292 272.909Z" fill="#F7AAAC"/>
<path fill-rule="evenodd" clip-rule="evenodd" d="M341.437 249.883C341.854 254.386 342.153 259.266 340.712 261.93C340.614 262.073 340.525 262.22 340.444 262.373C340.193 262.698 340.045 263.091 340.021 263.501C339.982 263.669 339.952 263.839 339.931 264.01C339.785 265.235 340.132 266.468 340.895 267.438C341.658 268.407 342.775 269.034 344 269.181C346.545 269.484 350.265 268.754 350.428 267.376C350.59 265.997 349.206 264.699 349.202 264.495L352.151 263.881L341.437 249.883Z" fill="#355298"/>
<path fill-rule="evenodd" clip-rule="evenodd" d="M333.344 299.643C324.267 300.996 321.048 284.708 320.153 281.749C319.446 279.417 323.178 277.324 324.116 278.264C325.138 279.286 330.806 289.648 330.947 289.638C331.926 289.569 334.787 272.551 342.643 270.254C345.775 268.237 343.346 298.153 333.344 299.643Z" fill="#8C9EF3"/>
<path fill-rule="evenodd" clip-rule="evenodd" d="M323.633 278.355L323.157 277.237V273.712C323.261 273.301 323.406 270.713 322.701 271.517C322.207 272.083 321.51 273.671 321.44 273.656C320.527 273.344 318.466 268.937 318.381 268.904C317.216 268.447 318.846 272.428 319.018 272.921C319.065 273.053 315.343 273.816 320.43 280.52C320.909 282.196 322.505 280.806 323.367 279.643C323.605 279.324 323.852 278.76 323.633 278.349" fill="#F7AAAC"/>
<path d="M345.69 288.873L339.543 339.707L342.676 387.721C342.571 387.866 342.467 388.007 342.363 388.144C342.259 388.281 342.204 388.359 342.122 388.463C341.93 388.718 341.74 388.956 341.55 389.18C341.466 389.282 341.38 389.376 341.292 389.475C339.88 391.03 338.057 391.406 336.565 391.77C335.408 392.052 334.517 392.191 333.734 393.728C333.71 393.775 333.69 393.824 333.675 393.875C333.637 394.008 333.63 394.148 333.656 394.284C333.682 394.419 333.739 394.547 333.823 394.657C333.907 394.767 334.016 394.855 334.141 394.915C334.266 394.974 334.403 395.004 334.541 395.001L348.247 394.572C348.567 394.565 348.873 394.441 349.109 394.225C349.346 394.009 349.495 393.715 349.531 393.397C349.542 393.305 349.542 393.212 349.531 393.119L348.617 387.139C348.618 387.131 348.618 387.122 348.617 387.114C348.95 375.44 351.591 358.331 349.428 344.694C349.428 344.694 362.366 319.111 362.315 318.49C362.264 317.869 345.701 288.867 345.701 288.867" fill="#F7AAAC"/>
<path d="M354.36 334.57C354.948 339.71 351.37 342.759 351.966 347.897C351.966 360.763 360.988 375.585 364.037 388.576C364.136 389.005 363.369 393.091 363.449 393.518C364.804 394.967 368.661 397.009 369.075 390.332C367.35 379.115 365.204 360.988 360.761 347.341L363.567 333.734L354.36 334.57Z" fill="#F7AAAC"/>
<path fill-rule="evenodd" clip-rule="evenodd" d="M337.004 306.601C334.04 316.436 334.586 335.121 336.123 351.281C347.248 354.137 363.623 353.362 367.713 349.91C364.984 328.834 363.602 308.583 359.235 304.853C350.048 283.383 338.349 301.15 337.004 306.615" fill="#355298"/>
<path fill-rule="evenodd" clip-rule="evenodd" d="M366.142 273.002C368.758 283.679 358.187 284.121 360.56 305.677C352.708 306.765 344.334 307.208 337.583 305.546C336.459 301.714 334.417 287.426 336.212 281.304C337.88 275.598 339.46 270.546 345.336 269.283C353.895 267.445 362.682 267.836 366.148 273.004" fill="#8C9EF3"/>
<path fill-rule="evenodd" clip-rule="evenodd" d="M347.716 267.012L347.998 269.589L347.666 269.953C346.403 271.715 348.4 274.727 350.054 274.414C354.295 274.083 357.089 270.212 355.582 268.496L354.953 267.954L354.366 264.334C354.581 264.295 356.048 263.192 356.502 262.987C356.956 262.781 357.53 261.784 357.454 260.821C357.377 259.858 355.934 260.357 355.934 260.357C357.414 257.671 359.188 255.405 356.271 253.533C353.354 251.661 347.137 251.145 347.137 251.145L343.334 250.348C343.959 251.546 343.877 255.816 343.276 258.556C342.424 262.446 343.583 265.646 347.716 267.012Z" fill="#F7AAAC"/>
<path fill-rule="evenodd" clip-rule="evenodd" d="M352.714 265.057C352.714 265.057 351.106 268.855 349.456 269.392C347.805 269.928 348.639 269.587 347.999 269.587L347.717 267.013C348.907 267.052 350.037 266.817 352.714 265.055" fill="#EA8287"/>
<path fill-rule="evenodd" clip-rule="evenodd" d="M363.851 270.709C373.273 274.625 372.889 296.688 372.222 300.392C370.168 306.536 356.381 304.308 355.215 304.034C352.814 302.152 353.3 300.993 355.04 299.864C358.923 298.908 364.323 298.405 365.373 297.69C364.288 293.692 356.844 269.603 363.851 270.709Z" fill="#8C9EF3"/>
<path fill-rule="evenodd" clip-rule="evenodd" d="M336.985 391.331C336.985 391.331 332.215 392.651 332.429 394.121C332.862 397.092 349.236 395.13 349.323 395.022C349.91 394.302 349.973 390.949 349.191 389.949C348.604 389.207 342.203 393.184 336.985 391.331Z" fill="#355298"/>
<path fill-rule="evenodd" clip-rule="evenodd" d="M361.952 395.594C362.056 397.501 369.099 396.882 370.135 396.31C371.676 395.46 369.874 391.292 369.062 390.199C369.062 390.199 367.266 393.027 365.146 392.457C363.025 391.887 363.775 391.255 363.405 391.969C362.726 393.31 361.862 393.835 361.956 395.594" fill="#355298"/>
<path fill-rule="evenodd" clip-rule="evenodd" d="M355.084 300.053L354.642 300.11L352.402 298.739C352.085 298.459 349.856 297.145 350.248 298.14C350.524 298.837 350.818 299.485 350.763 299.536C350.068 300.206 347.464 299.495 347.376 299.507C346.32 299.644 348.266 304.128 349.921 304.038C353.577 303.842 351.789 303.75 354.847 303.767C357.091 304.218 356.326 300.047 355.082 300.047" fill="#F7AAAC"/>
<path fill-rule="evenodd" clip-rule="evenodd" d="M341.651 253.897C337.868 250.29 343.021 241.426 353.595 245.524C360.761 248.265 359.7 252.986 365.147 259.735C368.994 268.143 360.522 275.529 354.409 269.698C351.727 267.141 355.78 262.097 355.302 260.732C355.092 260.145 353.7 260.865 353.692 260.497C353.52 251.898 346.227 258.251 341.649 253.897" fill="#355298"/>
<path fill-rule="evenodd" clip-rule="evenodd" d="M414.629 386.304L413.908 378.758L421.542 378.94L421.47 387.581L414.629 386.304Z" fill="#F7AAAC"/>
<path fill-rule="evenodd" clip-rule="evenodd" d="M414.253 385.668C412.099 389.512 408.575 393.189 411.316 396.455H425.292C425.316 396.394 425.339 396.325 425.361 396.259C425.496 395.81 426.144 395.624 425.711 393.988C424.903 390.947 422.522 386.273 421.703 386.032C420.082 385.556 417.787 386.9 414.245 385.674" fill="#355298"/>
<path fill-rule="evenodd" clip-rule="evenodd" d="M410.282 393.91C410.251 394.932 410.356 395.833 411.324 396.446H425.3C426.022 396.031 426.21 395.745 425.719 393.973L410.282 393.91Z" fill="#1D3975"/>
<path fill-rule="evenodd" clip-rule="evenodd" d="M391.221 281.703L399.401 314.653L403.576 334.272L412.843 382.047C412.843 382.047 414.801 382.936 417.934 382.756C421.067 382.576 422.651 382.116 422.651 382.116C422.721 368.018 423.075 349.037 423.197 331.991C423.303 316.995 423.694 303.661 423.751 292.286C423.776 287.364 418.135 273.441 418.206 273.619L391.221 281.703Z" fill="#355298"/>
<path fill-rule="evenodd" clip-rule="evenodd" d="M380.887 386.305L380.914 378.5L388.548 378.682L387.728 387.581L380.887 386.305Z" fill="#F7AAAC"/>
<path fill-rule="evenodd" clip-rule="evenodd" d="M380.38 384.633C380.38 384.633 368.393 389.528 365.029 391.155C362.417 392.424 360.939 395.093 363.085 396.453H389.214C389.236 396.393 389.259 396.324 389.281 396.258C389.673 394.977 390.685 385.827 387.967 386.031C386.279 386.158 384.155 386.567 380.38 384.639" fill="#355298"/>
<path fill-rule="evenodd" clip-rule="evenodd" d="M362.045 393.914L362.027 394.482C362.068 395.294 362.397 396.011 363.092 396.44H389.342C389.365 396.379 389.389 396.311 389.41 396.244C389.486 395.993 389.672 394.693 389.762 393.973L362.045 393.914Z" fill="#1D3975"/>
<path fill-rule="evenodd" clip-rule="evenodd" d="M380.244 279.933C377.895 313.435 377.458 344.126 380.158 382.024C380.158 382.024 383.822 382.807 386.957 382.629C390.091 382.45 389.52 382.088 389.52 382.088L396.858 330.076C396.858 330.076 398.519 318.232 402.401 309.002C405.205 302.345 408.643 300.416 408.136 292.67C407.61 284.642 408.291 278.433 407.179 275.661C406.067 272.888 400.508 274.002 400.508 274.002L380.244 279.933Z" fill="#355298"/>
<path fill-rule="evenodd" clip-rule="evenodd" d="M395.215 342.284L396.858 330.536C397.554 325.926 398.535 321.364 399.795 316.875L398.24 305.746L395.012 333.657L395.215 342.284Z" fill="#1D3975"/>
<path fill-rule="evenodd" clip-rule="evenodd" d="M427.112 247.13C425.741 256.198 423.826 274.299 424.606 288.428C406.33 291.561 390.053 290.931 379.139 287.449C381.009 272.882 378.091 222.835 394.715 218.909C400.722 217.225 405.388 217.376 411.749 218.026C423.055 219.18 452.764 237.963 458.197 246.3C462.009 252.144 464.645 260.548 465.379 266.663C465.649 268.921 460.367 272.435 457.672 270.066C449.149 266.884 427.676 248.101 427.104 247.13" fill="#7BABEA"/>
<path fill-rule="evenodd" clip-rule="evenodd" d="M427.021 247.74C425.597 256.804 424.266 277.051 424.605 288.426C407.942 291.286 392.493 291.286 381.008 287.958C388.352 288.807 416.412 289.252 418.602 282.211C419.853 278.185 420.841 254.053 423.123 242.301C424.732 244.063 425.997 244.942 427.019 247.74" fill="#6294D8"/>
<path fill-rule="evenodd" clip-rule="evenodd" d="M394.987 209.2C396.271 211.757 397.656 213.625 399.663 214.587L399.594 218.307L399.054 218.767C396.935 221.036 399.676 223.188 402.089 223.045C411.573 223.513 408.601 220.214 410.183 217.586L409.265 212.067C409.58 212.049 412.223 210.669 412.905 210.459C413.586 210.25 414.587 208.936 414.653 207.547C414.72 206.159 412.578 206.61 412.578 206.61C415.174 203.058 418.113 200.148 414.301 196.957C410.489 193.765 401.732 191.889 401.732 191.889L396.461 190.062C397.133 191.881 396.236 197.949 394.883 201.736C393.669 205.135 393.262 205.768 394.987 209.202" fill="#F7AAAC"/>
<path fill-rule="evenodd" clip-rule="evenodd" d="M407.134 212.717C407.134 212.717 404.152 217.829 401.703 218.293C399.253 218.757 400.506 218.413 399.594 218.305L399.662 214.585C401.35 214.857 403.001 214.724 407.134 212.715" fill="#EA8287"/>
<path fill-rule="evenodd" clip-rule="evenodd" d="M402.088 223.041C403.214 224.349 405.197 226.438 406.321 227.74C409.28 224.999 410.824 222.365 412.371 218.538C411.823 217.983 410.725 217.363 410.178 216.816C408.931 219.229 406.629 221.382 402.088 223.035" fill="white"/>
<path fill-rule="evenodd" clip-rule="evenodd" d="M402.087 223.039C400.822 224.175 398.759 225.573 397.484 226.71C397.016 224.132 397.327 221.316 398.161 218.346L399.552 217.594C399.653 219.679 400.844 221.445 402.087 223.039Z" fill="white"/>
<path d="M445.973 281.059L441.213 320.446L445.482 385.916C445.339 386.111 445.196 386.307 445.055 386.491C444.945 386.64 444.837 386.785 444.728 386.926C444.465 387.273 444.207 387.598 443.945 387.905C443.829 388.044 443.712 388.179 443.592 388.308C441.667 390.429 439.183 390.942 437.146 391.441C435.57 391.833 434.356 392.015 433.285 394.122C433.192 394.307 433.149 394.513 433.16 394.719C433.17 394.926 433.234 395.127 433.345 395.301C433.456 395.476 433.61 395.619 433.793 395.716C433.976 395.814 434.181 395.862 434.388 395.856L453.069 395.269C453.505 395.259 453.923 395.091 454.244 394.796C454.566 394.501 454.77 394.099 454.817 393.665C454.831 393.539 454.831 393.412 454.817 393.286L453.57 385.132C453.571 385.121 453.571 385.109 453.57 385.097C454.022 369.181 457.623 345.851 454.672 327.258C454.672 327.258 458.305 307.09 458.232 306.248C458.16 305.406 445.973 281.059 445.973 281.059Z" fill="#F7AAAC"/>
<path d="M461.414 313.436C462.227 320.442 457.338 324.597 458.15 331.607C458.16 349.148 470.452 369.361 474.609 387.073C474.746 387.66 473.701 393.231 473.826 393.813C475.672 395.786 480.935 398.572 481.497 389.468C479.148 374.174 476.211 349.456 470.161 330.847L473.986 312.297L461.414 313.436Z" fill="#F7AAAC"/>
<path fill-rule="evenodd" clip-rule="evenodd" d="M435.318 276.192C433.421 287.341 434.452 315.85 436.548 337.883C451.718 341.777 474.045 340.722 479.624 336.009C475.903 307.272 474.008 279.658 468.071 274.573C461.773 267.095 437.162 268.756 435.328 276.192" fill="#355298"/>
<path fill-rule="evenodd" clip-rule="evenodd" d="M463.269 230.189C463.269 230.189 462.258 241.604 459.84 255.95C457.422 270.297 460.561 276.053 460.561 276.053L441.684 275.605C441.684 275.605 442.915 258.852 444.959 248.584C447.003 238.317 449.33 228.074 449.33 228.074L454.348 228.84L462.993 228.699L463.269 230.189Z" fill="white"/>
<path fill-rule="evenodd" clip-rule="evenodd" d="M450.896 235.247C445.84 234 446.185 231.723 446.185 231.723L451.602 226.898L463.983 227.893L464.725 232.739L462.992 235.394C458.827 235.283 455.943 236.501 450.896 235.253" fill="#F7AAAC"/>
<path d="M475.993 229.365C479.56 243.923 464.73 262.791 473.508 284.168C468.721 284.832 461.296 286.713 455.555 285.85C454.866 282.239 452.554 276.04 454.069 258.497C455.585 240.953 463.054 228.298 463.054 228.298L461.643 228.563L455.06 228.704L451.24 227.938C451.24 227.938 447.067 239.028 445.648 248.378C444.228 257.727 444.449 281.016 444.118 286.334C439.484 286.003 431.262 287.003 432.717 282.674C433.794 279.479 436.592 264.905 436.698 260.145C436.893 251.608 434.577 247.822 436.026 242.864C437.628 237.382 442.012 228.275 444.745 227.159C457.656 223.542 470.677 221.439 475.993 229.365Z" fill="#8CC640"/>
<path d="M442.224 283.448C440.853 288.163 431.032 286.32 432.717 282.665C433.54 280.891 435.222 271.398 435.981 266.82C436.888 273.317 443.345 280 442.224 283.438" fill="#5B8C24"/>
<path d="M475.025 247.974C472.198 255.25 469.715 264.734 471.526 281.172C469.94 281.393 459.993 285.585 458.284 285.753C457.268 282.066 464.209 279.488 467.777 273.921C467.831 273.138 468.033 271.822 468.098 271.041C468.908 261.406 470.643 251.461 473.259 244.438L475.021 247.974H475.025Z" fill="#5B8C24"/>
<path fill-rule="evenodd" clip-rule="evenodd" d="M452.565 222.404L452.501 225.928L451.986 226.365C449.973 228.519 452.152 232.948 454.443 232.811C456.534 232.917 458.606 232.37 460.372 231.244C462.782 229.69 463.998 227.328 462.944 225.762L462.187 224.918L462.028 219.925C462.328 219.907 464.503 218.67 465.151 218.472C465.799 218.274 466.749 217.025 466.814 215.707C466.878 214.39 464.84 214.817 464.84 214.817C467.307 211.441 470.099 208.684 466.479 205.645C462.858 202.606 454.535 200.832 454.535 200.832L449.528 199.098C450.165 200.825 449.313 206.587 448.028 210.186C446.202 215.302 447.214 219.829 452.569 222.396" fill="#F7AAAC"/>
<path fill-rule="evenodd" clip-rule="evenodd" d="M459.662 220.625C459.662 220.625 456.831 225.483 454.505 225.921C452.179 226.36 453.367 226.037 452.5 225.933L452.567 222.409C454.168 222.665 455.737 222.54 459.662 220.631" fill="#EA8287"/>
<path d="M474.364 228.023C487.211 233.351 488.842 261.008 486.21 268.914C483.997 275.327 467.094 292.318 461.582 290.012C458.923 288.9 456.358 285.26 460.36 282.663C466.205 280.077 474.611 267.677 474.946 266.085C476.53 254.296 467.094 226.876 474.358 228.023" fill="#8CC640"/>
<path fill-rule="evenodd" clip-rule="evenodd" d="M459.873 284.647L457.604 285.9C456.907 285.912 446.947 285.446 448.523 286.779C449.435 287.551 451.992 288.618 451.957 288.737C451.485 290.198 446.461 290.458 446.41 290.591C445.715 292.457 450.395 291.623 451.18 291.337C451.376 291.263 447.926 292.647 448.268 293.076C448.93 293.904 451.362 292.663 452.513 292.532C452.793 292.499 449.607 293.707 449.88 294.278C450.816 294.809 453.312 293.546 454.001 293.448C454.168 293.425 451.493 294.623 451.289 294.975C451.117 295.281 451.634 295.592 452.008 295.469C457.531 293.628 455.685 291.749 462.068 289.808C465.618 288.729 461.919 283.854 459.873 284.655" fill="#F7AAAC"/>
<path fill-rule="evenodd" clip-rule="evenodd" d="M458.868 208.763C458.868 208.763 451.682 209.006 449.004 206.684C443.386 201.857 446.807 190.342 461.165 194.605C472.59 197.998 466.998 209.217 481.867 213.864C487.377 215.585 486.721 218.348 481.886 220.219C485.186 221.394 481.996 224.613 478.949 224.226C484.765 228.884 472.175 232.51 462.949 225.77C457.64 221.878 466.97 209.977 458.872 208.763" fill="#355298"/>
<path fill-rule="evenodd" clip-rule="evenodd" d="M437.726 390.828C437.726 390.828 431.222 392.629 431.513 394.634C432.101 398.683 454.422 396.005 454.549 395.862C455.333 394.883 455.434 390.309 454.369 388.944C453.576 387.932 447.105 393.957 437.726 390.828Z" fill="#355298"/>
<path fill-rule="evenodd" clip-rule="evenodd" d="M471.769 396.647C471.91 399.247 481.514 398.409 482.929 397.626C485.03 396.465 482.573 390.773 481.465 389.293C478.395 395.649 474.592 391.302 473.868 391.57C472.942 393.397 471.641 394.251 471.771 396.647" fill="#355298"/>
<path fill-rule="evenodd" clip-rule="evenodd" d="M447.701 227.305C433.417 225.556 423.864 249.822 422.208 258.286C420.933 265.188 431.242 285.172 437.38 285.894C438.812 286.062 442.518 283.449 440.766 280.085C436.818 274.776 432.738 263.806 433.243 262.2C435.005 257.822 437.962 255.23 441.555 253.027C444.167 251.425 443.241 245.528 445.038 239.801C446.81 234.148 451.347 228.662 447.701 227.297" fill="#8CC640"/>
<path fill-rule="evenodd" clip-rule="evenodd" d="M433.651 261.237C434.021 260.513 436.265 258.312 436.684 257.683C436.454 250.83 434.726 247.321 436.026 242.869C437.026 239.45 439.109 234.614 441.201 231.191C438.755 234.502 436.028 240.59 434.839 244.651C433.521 249.154 433.455 254.223 433.651 261.237Z" fill="#5B8C24"/>
<path fill-rule="evenodd" clip-rule="evenodd" d="M440.779 281.7L442.224 283.449C442.784 283.682 451.035 286.495 449.324 287.073C448.335 287.408 445.915 287.464 445.907 287.558C445.823 288.898 450.391 293.891 450.389 294.02C450.355 295.76 447.27 292.761 446.723 292.277C446.58 292.15 448.399 294.313 448.207 294.846C448.133 295.054 447.424 295.009 446.837 294.454C446.114 293.781 445.075 292.426 444.826 292.44C444.577 292.453 446.459 294.635 446.118 295.024C445.905 295.259 445.574 295.024 445.139 294.592C444.409 293.873 443.516 292.559 443.256 292.51C442.995 292.461 444.552 294.498 444.517 294.746C444.47 295.073 444.105 294.942 443.962 294.83C440.06 291.561 441.856 289.442 437.288 285.824C434.742 283.809 439.279 280.2 440.792 281.712" fill="#F7AAAC"/>
<path fill-rule="evenodd" clip-rule="evenodd" d="M396.917 196.854C401.42 199.384 406.826 196.788 409.387 200.042C410.654 201.653 410.437 203.901 408.821 207.322C408.345 208.33 407.731 209.064 409.493 208.326C410.301 207.989 411.629 207.523 412.062 207.901C413.027 208.741 412.453 210.413 411.647 210.928C411.284 211.157 410.599 211.494 410.599 211.494C422.576 210.758 427.988 183.281 401.628 185.371C400.883 185.429 401.395 183.272 400.617 183.242C394.696 183.023 389.437 192.149 396.917 196.854Z" fill="#355298"/>
<path d="M307.404 135.852H301.367V395.452H307.404V135.852Z" fill="#7BA9E3"/>
<path fill-rule="evenodd" clip-rule="evenodd" d="M301.204 29.0508C261.082 63.404 236.572 109.298 236.572 159.714C236.572 151.473 261.946 144.655 294.971 143.508V143.394H310.496C345.545 144.084 373.1 151.127 373.1 159.714C373.1 109.527 350.105 63.3512 310.304 29.0489H310.563C352.545 63.1397 379.651 111.733 379.651 159.714C379.651 150.67 400.839 143.338 426.976 143.338C453.114 143.338 474.299 150.67 474.299 159.714H474.358C474.358 88.7328 404.312 30.6701 315.822 26.2587C315.528 26.245 313.052 26.1902 310.52 26.1334L305.862 8.65625L301.204 26.1021C298.202 26.1726 294.394 26.2587 294.073 26.2744C206.354 30.6799 136.792 87.8086 135.645 157.966C138.18 149.742 158.277 143.347 182.697 143.347C208.833 143.347 230.02 150.68 230.02 159.724C230.02 111.428 258.272 62.9733 301.204 28.8452V29.0508Z" fill="#779AE3"/>
<path fill-rule="evenodd" clip-rule="evenodd" d="M294.073 26.2621C206.354 30.6676 136.792 87.7963 135.645 157.954C138.18 149.73 158.277 143.335 182.697 143.335C208.833 143.335 230.02 150.668 230.02 159.712C230.02 111.518 258.155 63.1646 300.935 29.0464H300.689V26.1094C297.781 26.1759 294.372 26.2543 294.069 26.2699" fill="#394DBC"/>
<path fill-rule="evenodd" clip-rule="evenodd" d="M310.564 29.0489C352.545 63.1397 379.652 111.733 379.652 159.714C379.652 150.67 400.839 143.338 426.977 143.338C453.114 143.338 474.3 150.67 474.3 159.714H474.359C474.359 88.7328 404.313 30.6701 315.823 26.2587C315.531 26.245 313.082 26.1902 310.564 26.1354H310.521L305.862 8.65625L301.204 26.1021L300.693 26.1138V29.0508H300.938L301.204 28.8374V29.0508H310.564V29.0489Z" fill="#C9D7F4"/>
<path fill-rule="evenodd" clip-rule="evenodd" d="M128.742 384.918L129.482 377.086L121.625 377.276L121.699 386.244L128.742 384.918Z" fill="#F7AAAC"/>
<path fill-rule="evenodd" clip-rule="evenodd" d="M129.807 385.696C131.96 389.336 134.527 393.26 132.144 395.455H117.757C117.734 395.39 117.71 395.32 117.689 395.245C117.548 394.779 116.878 394.588 117.326 392.886C118.16 389.732 120.61 384.88 121.452 384.631C122.942 384.191 124.888 385.287 127.874 384.631C128.976 384.386 129.245 384.747 129.807 385.702" fill="#031542"/>
<path fill-rule="evenodd" clip-rule="evenodd" d="M152.835 276.357L144.416 310.555L140.12 330.918L130.579 380.499C130.579 380.499 128.56 381.421 125.333 381.235C122.106 381.049 120.477 380.569 120.477 380.569C120.407 365.927 121.423 345.171 122.2 325.591C122.798 310.514 117.903 302.784 119.346 287.335C119.819 282.244 125.126 267.775 125.051 267.951L152.835 276.357Z" fill="#0F4884"/>
<path fill-rule="evenodd" clip-rule="evenodd" d="M151.199 283.012L149.045 291.778C138 293.148 126.463 292.212 119.371 290.284C119.363 289.288 119.357 288.309 119.352 287.347C119.352 286.334 119.571 284.954 119.939 283.396C129.952 283.337 146.307 283.227 147.895 283.115C148.42 283.08 149.642 283.049 151.212 283.022" fill="#12143C"/>
<path fill-rule="evenodd" clip-rule="evenodd" d="M163.477 384.917L163.445 376.816L155.588 377.006L156.434 386.242L163.477 384.917Z" fill="#F7AAAC"/>
<path fill-rule="evenodd" clip-rule="evenodd" d="M163.994 383.184C163.994 383.184 176.33 388.257 179.793 389.952C182.484 391.27 184.005 394.041 181.796 395.452H154.901C154.878 395.388 154.854 395.317 154.831 395.243C154.439 393.913 154.298 384.278 156.184 384.629C157.897 384.942 160.1 385.185 163.994 383.184Z" fill="#031542"/>
<path fill-rule="evenodd" clip-rule="evenodd" d="M164.779 272.594C165.711 288.769 167.411 309.34 166.964 319.297L164.215 380.48C164.215 380.48 160.444 381.295 157.217 381.107C153.991 380.919 154.578 380.547 154.578 380.547L147.026 326.567C147.026 326.567 145.317 314.274 141.32 304.694C138.434 297.776 134.894 295.783 135.417 287.743C135.957 279.42 135.258 272.968 136.396 270.092C137.534 267.216 143.261 268.369 143.261 268.369L164.779 272.594Z" fill="#0F4884"/>
<path fill-rule="evenodd" clip-rule="evenodd" d="M164.618 282.895L164.307 287.046C157.599 289.076 148.696 290.46 135.368 290.075C135.078 288.669 135.297 289.706 135.424 287.737C135.524 286.182 135.583 284.69 135.62 283.276C141.808 283.225 147.02 283.165 147.883 283.104C149.794 282.971 160.894 282.908 164.62 282.895" fill="#12143C"/>
<path fill-rule="evenodd" clip-rule="evenodd" d="M148.727 338.65L147.035 326.564C146.317 321.818 145.306 317.122 144.008 312.501L145.608 301.047L148.936 329.777L148.727 338.65Z" fill="#12143C"/>
<path fill-rule="evenodd" clip-rule="evenodd" d="M150.024 232.036C154.833 242.588 156.58 252.685 170.341 254.735C180.078 255.006 193.966 249.703 192.648 246.347C191.217 242.696 196.108 240.313 190.514 240.419C183.074 240.395 172.009 241.341 170.331 241.223C168.745 241.112 162.644 216.566 151.172 212.382C150.013 211.636 146.639 226.938 150.024 232.036Z" fill="#98BCFF"/>
<path fill-rule="evenodd" clip-rule="evenodd" d="M189.578 250.094C192.629 248.347 193.081 247.449 192.649 246.346C191.217 242.697 196.108 240.312 190.514 240.417C189.357 240.417 187.938 240.457 186.361 240.531C182.533 245.941 185.559 249.783 189.578 250.094Z" fill="#7BA9E3"/>
<path fill-rule="evenodd" clip-rule="evenodd" d="M155.102 244.061C157.997 250.043 159.84 253.777 170.341 255.206C178.564 256.027 182.032 253.859 187.164 251.29C180.35 253.513 174.721 253.892 168.582 250.403C163.492 247.509 161.561 238.289 161.561 238.289C161.561 238.289 156.926 242.323 155.1 244.065" fill="#7BA9E3"/>
<path fill-rule="evenodd" clip-rule="evenodd" d="M194.227 239.359C194.856 238.38 197.401 234.497 198.425 234.072C198.946 233.855 198.975 234.055 199.058 234.346C199.111 234.761 199.043 235.182 198.862 235.558C198.47 236.308 198.488 237.841 198.212 238.221C202.694 240.011 208.54 236.929 208.981 239.439C208.767 239.905 206.643 242.018 206.24 242.705C204.957 244.892 204.086 245.838 194.505 246.286C193.603 246.329 191.742 247.426 190.446 247.234C187.631 246.815 188.431 242.439 189.467 241.505C189.675 241.309 191.874 241.272 191.944 241.017L194.227 239.359Z" fill="#F7AAAC"/>
<path fill-rule="evenodd" clip-rule="evenodd" d="M128.098 212.405C135.434 229.779 135.242 285.533 135.538 285.509C140.222 286.7 154.219 286.161 155.845 284.941C156.78 273.291 155.322 231.879 149.933 214.72C149.087 212.025 148.412 212.051 147.321 211.17C141.52 210.136 136.707 209.515 128.546 211.17L128.098 212.405Z" fill="white"/>
<path d="M148.418 246.447L146.511 264.793L139.57 248.616L140.353 221.3L138.273 218.635L141.15 216.938L143.347 218.504L142.381 221.206C145.013 228.22 146.675 240.982 148.428 246.441" fill="#0F4884"/>
<path fill-rule="evenodd" clip-rule="evenodd" d="M151.082 305.18C156.42 305.597 164.968 304.743 168.448 302.92C165.45 283.389 166.351 215.711 149.24 211.659C148.587 211.477 147.949 211.314 147.327 211.172C151.372 220.073 143.107 252.067 143.638 276.691C143.918 289.694 146.743 299.662 151.078 305.18" fill="#98BCFF"/>
<path fill-rule="evenodd" clip-rule="evenodd" d="M117.516 304.913C124.616 306.133 135.109 306.308 141.703 305.614C143.963 300.492 148.785 290.894 147.669 274.799C146.072 251.761 132.608 219.887 128.902 211.113C123.253 211.883 119.926 213.267 116.776 216.365C111.434 221.379 107.891 228.156 104.803 235.573L115.163 236.569C118.781 253.496 118.775 282.048 117.512 304.904" fill="#98BCFF"/>
<path fill-rule="evenodd" clip-rule="evenodd" d="M124.157 227.015C123.85 220.481 121.667 212.722 115.934 217.096C95.038 233.018 97.0939 282.053 102.841 277.771C105.462 275.813 109.187 281.434 109.551 275.871C110.569 267.415 112.353 255.081 113.921 249.9C116.977 239.815 124.845 237.064 124.167 227.015" fill="#98BCFF"/>
<path d="M128.619 224.919C128.473 222.747 128.549 220.567 128.848 218.411C129.148 216.29 129.722 214.033 130.791 212.263C131.819 210.563 133.315 209.312 135.49 209.096C136.122 209.038 136.759 209.056 137.387 209.149C151.146 211.092 153.192 223.846 154.635 235.551L154.759 236.554L155.904 236.413L155.781 235.41C154.291 223.327 152.182 210.07 137.55 207.998C136.831 207.89 136.102 207.87 135.378 207.937C132.78 208.196 131.006 209.666 129.8 211.658C128.639 213.58 128.02 215.991 127.703 218.238C127.391 220.485 127.313 222.758 127.468 225.021L128.619 224.919Z" fill="#006294"/>
<path d="M133.81 245.608C130.065 246.337 127.419 246.033 125.553 244.467C123.687 242.9 122.681 240.159 122.158 235.969L123.02 235.863C123.513 239.828 124.449 242.407 126.111 243.803C127.774 245.199 130.17 245.432 133.646 244.755L133.81 245.608Z" fill="white"/>
<path d="M126.44 246.517C130.252 246.321 132.742 245.379 134.174 243.407C135.605 241.436 135.912 238.532 135.403 234.34L134.542 234.446C135.025 238.411 134.738 241.14 133.471 242.898C132.204 244.657 129.927 245.463 126.391 245.649L126.44 246.517Z" fill="white"/>
<path d="M128.177 224.394C132.805 224.382 134.93 229.111 135.617 233.17C135.731 233.831 135.813 234.235 135.701 234.54C135.372 235.453 134.227 235.065 134.174 234.464C133.855 230.84 131.914 225.261 127.417 225.849C127.398 225.85 127.379 225.85 127.36 225.849C127.26 225.86 126.093 225.995 125.024 227.147C123.955 228.298 122.771 230.771 123.391 235.803C123.404 235.972 123.357 236.14 123.259 236.278C123.161 236.416 123.018 236.516 122.855 236.561H122.837H122.82H122.802H122.784L122.726 236.573H122.684C122.487 236.609 122.283 236.567 122.118 236.454C121.952 236.341 121.837 236.167 121.799 235.97C121.247 231.492 121.938 228.202 123.849 226.18C124.399 225.585 125.069 225.114 125.814 224.797C126.559 224.481 127.363 224.325 128.173 224.341" fill="#006294"/>
<path d="M124.664 246.176C124.651 245.992 124.712 245.812 124.833 245.673C124.954 245.535 125.125 245.45 125.308 245.438L126.61 245.463C127.017 245.537 127.019 245.749 127.049 246.017C127.078 246.285 127.084 246.518 126.657 246.648L125.402 246.82C125.311 246.826 125.22 246.814 125.134 246.785C125.048 246.756 124.969 246.71 124.9 246.65C124.832 246.591 124.776 246.518 124.736 246.436C124.695 246.355 124.672 246.266 124.666 246.176" fill="#006294"/>
<path d="M135.455 244.848C135.422 244.667 135.319 244.507 135.168 244.402C135.017 244.297 134.831 244.256 134.65 244.288L133.393 244.629C133.015 244.799 133.064 245.005 133.101 245.271C133.138 245.537 133.189 245.766 133.638 245.788L134.895 245.653C135.075 245.62 135.236 245.517 135.341 245.366C135.446 245.215 135.487 245.029 135.455 244.848Z" fill="#006294"/>
<path d="M157.456 235.981C157.57 237.475 156.628 238.765 155.351 238.861C154.075 238.957 152.951 237.823 152.839 236.329C152.727 234.835 153.669 233.543 154.944 233.447C156.219 233.351 157.344 234.485 157.456 235.981Z" fill="#006294"/>
<path d="M157.363 236C157.441 237.048 156.775 237.959 155.89 238.017C155.005 238.076 154.212 237.291 154.128 236.245C154.044 235.2 154.716 234.297 155.601 234.23C156.486 234.164 157.279 234.957 157.363 235.993" fill="#A6A8AB"/>
<path d="M157.239 235.982C157.292 236.685 156.848 237.292 156.249 237.337C155.649 237.382 155.121 236.85 155.074 236.147C155.027 235.444 155.465 234.837 156.063 234.792C156.66 234.747 157.19 235.279 157.237 235.982" fill="white"/>
<path fill-rule="evenodd" clip-rule="evenodd" d="M148.961 201.655C147.637 204.288 146.219 206.211 144.148 207.202L144.132 211.286C145.434 213.867 145.356 216.297 141.8 216.917C132.036 217.399 133.232 210.605 133.318 210.287L134.264 204.609C133.939 204.592 131.219 203.17 130.518 202.955C129.817 202.739 128.785 201.388 128.717 199.959C128.648 198.53 130.853 198.994 130.853 198.994C128.18 195.336 125.155 192.35 129.079 189.057C133.003 185.763 142.017 183.841 142.017 183.841L147.441 181.961C146.752 183.833 147.674 190.077 149.068 193.977C150.315 197.476 150.736 198.126 148.961 201.66" fill="#F7AAAC"/>
<path fill-rule="evenodd" clip-rule="evenodd" d="M141.14 216.937C139.861 218.247 137.899 220.07 136.621 221.378C133.921 218.531 132.509 216.409 131.24 212.869C131.421 212.435 131.633 212.015 131.875 211.612C132.253 210.966 132.743 210.392 133.322 209.918C134.559 212.383 136.834 215.05 141.14 216.937Z" fill="#DDEAF8"/>
<path fill-rule="evenodd" clip-rule="evenodd" d="M141.141 216.938C142.404 218.228 144.514 219.303 145.775 220.592C146.38 218.156 146.325 215.473 145.809 212.621C145.287 212.13 144.727 211.684 144.132 211.285C143.753 213.339 142.462 215.452 141.141 216.938Z" fill="#DDEAF8"/>
<path fill-rule="evenodd" clip-rule="evenodd" d="M136.457 205.277C137.747 207.915 140.23 211.752 144.132 211.288L144.148 207.204C142.411 207.482 140.712 207.345 136.457 205.277Z" fill="#EA8287"/>
<path fill-rule="evenodd" clip-rule="evenodd" d="M126.449 190.357C125.533 187.377 126.508 184.24 129.447 181.938C135.538 177.18 140.768 179.809 143.028 180.371C144.594 180.763 145.643 180.714 147.179 181.035C151.018 181.838 151.345 189.823 148.577 192.446C148.302 192.707 147.876 189.049 147.568 189.282C147.235 189.578 146.874 189.841 146.489 190.065C141.986 192.376 136.785 189.635 134.154 192.728C132.854 194.259 132.979 196.468 134.442 199.881C134.87 200.885 135.444 201.625 133.747 200.838C132.963 200.478 131.683 199.975 131.246 200.327C130.267 201.11 130.763 202.773 131.54 203.307C131.888 203.544 132.546 203.895 132.546 203.895C125.376 202.536 123.7 192.487 126.445 190.361" fill="#0F4884"/>
<path fill-rule="evenodd" clip-rule="evenodd" d="M123.418 383.867H126.747C126.968 383.868 127.179 383.956 127.335 384.113C127.492 384.269 127.58 384.48 127.581 384.701V388.985C127.58 389.206 127.492 389.417 127.335 389.573C127.179 389.729 126.967 389.817 126.747 389.818H123.418C123.198 389.817 122.986 389.729 122.83 389.573C122.674 389.417 122.586 389.206 122.586 388.985V384.701C122.586 384.481 122.674 384.269 122.83 384.113C122.986 383.956 123.197 383.868 123.418 383.867Z" fill="#0F4884"/>
<path fill-rule="evenodd" clip-rule="evenodd" d="M167.093 384.477C170.833 386.031 177.103 388.665 179.678 389.896C178.33 390.934 177.048 390.729 177.048 390.729C177.048 390.729 169.745 388.449 167.667 386.975C166.44 386.106 166.688 385.131 167.093 384.477Z" fill="#0F4884"/>
<path fill-rule="evenodd" clip-rule="evenodd" d="M152.619 371.084L154.34 380.721C156.218 381.718 163.063 380.988 164.673 380.502C164.8 377.119 165.027 373.502 165.156 370.125C159.523 369.59 154.233 370.64 152.625 371.092" fill="#083D75"/>
<path fill-rule="evenodd" clip-rule="evenodd" d="M120.092 370.964L120.201 380.203C120.201 380.203 119.694 381.018 124.601 381.48C129.508 381.942 131.035 381.666 131.035 381.666L132.705 372.142C132.831 371.43 121.684 370.274 120.092 370.967" fill="#083D75"/>
<path d="M123.895 271.645L123.832 273.609L134.725 273.957L134.788 271.993L123.895 271.645Z" fill="#7BA9E3"/>
<path d="M162.433 270.665L153.922 271.281L154.064 273.242L162.575 272.626L162.433 270.665Z" fill="#7BA9E3"/>
<path fill-rule="evenodd" clip-rule="evenodd" d="M144.352 266.281C144.577 266.282 144.796 266.349 144.983 266.474C145.169 266.599 145.315 266.776 145.4 266.984C145.486 267.191 145.508 267.419 145.464 267.64C145.42 267.86 145.312 268.062 145.153 268.221C144.994 268.379 144.792 268.487 144.571 268.531C144.351 268.575 144.123 268.552 143.915 268.466C143.708 268.38 143.531 268.234 143.406 268.048C143.281 267.861 143.215 267.641 143.215 267.417C143.215 267.268 143.244 267.12 143.301 266.982C143.359 266.844 143.442 266.719 143.548 266.613C143.654 266.508 143.779 266.424 143.917 266.367C144.055 266.31 144.203 266.281 144.352 266.281Z" fill="#7BA9E3"/>
<path fill-rule="evenodd" clip-rule="evenodd" d="M144.774 275.551C144.999 275.551 145.218 275.617 145.405 275.742C145.592 275.867 145.738 276.044 145.824 276.252C145.909 276.459 145.932 276.688 145.888 276.908C145.844 277.128 145.736 277.331 145.577 277.489C145.419 277.648 145.216 277.756 144.996 277.8C144.776 277.844 144.547 277.822 144.34 277.736C144.132 277.65 143.955 277.504 143.83 277.317C143.705 277.131 143.639 276.911 143.639 276.686C143.639 276.385 143.758 276.096 143.971 275.883C144.184 275.67 144.473 275.551 144.774 275.551Z" fill="#7BA9E3"/>
<path fill-rule="evenodd" clip-rule="evenodd" d="M99.5272 274.415C99.4 278.241 101.395 281.621 104.675 282.343C107.77 283.023 109.914 279.719 110.057 278.208C110.143 277.272 110.154 276.33 110.091 275.392C109.7 274.752 109.179 274.201 108.563 273.775C107.947 273.348 107.248 273.054 106.511 272.913C103.939 272.373 100.281 273.142 99.5272 274.415Z" fill="#7BA9E3"/>
<path fill-rule="evenodd" clip-rule="evenodd" d="M108.575 279.601L109.039 282.266C110.194 283.756 111.028 285.517 112.338 287.03C112.994 287.79 113.625 288.481 114.187 288.828C115.003 289.331 113.975 289.955 113.376 289.908C111.678 289.771 110.494 288.6 110.427 288.702C110.155 289.182 110.598 294.496 110.455 294.529C106.856 295.403 103.798 290.776 103.23 289.852C102.801 289.143 103.674 285.276 102.116 280.735C101.622 278.472 107.43 278.711 108.577 279.601" fill="#F7AAAC"/>
<path fill-rule="evenodd" clip-rule="evenodd" d="M236.433 395.579C235.131 394.746 227.932 390.449 226.671 389.546C197.925 369.018 179.763 331.078 182.592 295.928L183.291 287.266L191.877 285.915C206.94 283.543 218.008 278.997 231.233 271.533L236.662 268.484L242.084 271.541C255.398 279.044 266.426 283.416 281.55 285.938L290.043 287.354L290.735 295.936C293.687 332.629 273.765 372.364 242.807 392.158L236.433 395.579Z" fill="#A0C1FF"/>
<path fill-rule="evenodd" clip-rule="evenodd" d="M236.662 268.484L242.084 271.541C255.398 279.044 266.426 283.416 281.549 285.938L290.043 287.354L290.734 295.936C293.687 332.629 273.764 372.364 242.808 392.158L236.662 395.455V268.484Z" fill="#B7D0FF"/>
<path fill-rule="evenodd" clip-rule="evenodd" d="M197.707 300.411C197.079 312.709 199.511 325.127 204.086 336.522C210.61 352.774 222.004 368.081 236.662 377.903C251.321 368.081 262.703 352.772 269.239 336.522C273.817 325.121 276.249 312.695 275.618 300.391C268.896 299.171 262.355 297.499 255.919 295.128C249.232 292.663 242.882 289.536 236.664 286.086C230.132 289.71 223.457 292.988 216.414 295.524C210.332 297.694 204.073 299.332 197.707 300.419" fill="#355298"/>
<path fill-rule="evenodd" clip-rule="evenodd" d="M197.707 300.411C197.079 312.709 199.511 325.127 204.086 336.522C210.61 352.774 222.004 368.081 236.662 377.903V286.086C230.13 289.71 223.455 292.988 216.412 295.524C210.33 297.694 204.071 299.332 197.705 300.419" fill="#355298"/>
<path fill-rule="evenodd" clip-rule="evenodd" d="M236.662 290.215V373.485C249.73 364.055 259.917 350.006 265.876 335.167C269.909 325.124 272.216 314.247 272.088 303.398C266.163 302.222 260.338 300.592 254.662 298.525C248.443 296.234 242.475 293.371 236.648 290.215" fill="#4663AA"/>
<path fill-rule="evenodd" clip-rule="evenodd" d="M236.661 306.188C232.543 306.188 228.518 307.409 225.094 309.697C221.669 311.984 219.001 315.236 217.425 319.041C215.849 322.846 215.437 327.032 216.24 331.071C217.043 335.11 219.026 338.82 221.938 341.732C224.85 344.644 228.56 346.627 232.599 347.43C236.638 348.234 240.825 347.821 244.629 346.245C248.434 344.67 251.686 342.001 253.974 338.577C256.262 335.153 257.483 331.127 257.483 327.009C257.483 321.487 255.289 316.191 251.384 312.286C247.479 308.381 242.183 306.188 236.661 306.188Z" fill="#D2EBAB"/>
<path fill-rule="evenodd" clip-rule="evenodd" d="M236.661 306.188C232.774 306.369 229.027 307.688 225.883 309.979C222.74 312.271 220.338 315.435 218.976 319.08C217.614 322.724 217.352 326.688 218.222 330.479C219.092 334.271 221.056 337.724 223.871 340.41C226.685 343.096 230.226 344.897 234.054 345.589C237.882 346.281 241.83 345.834 245.406 344.303C248.983 342.772 252.031 340.225 254.174 336.978C256.316 333.731 257.458 329.926 257.458 326.036C257.208 320.688 254.907 315.643 251.034 311.947C247.161 308.251 242.014 306.188 236.661 306.188Z" fill="#8CC640"/>
<path fill-rule="evenodd" clip-rule="evenodd" d="M236.661 314.562C237.273 314.564 237.858 314.808 238.291 315.24C238.723 315.672 238.966 316.258 238.968 316.869V323.722H245.821C246.432 323.724 247.017 323.968 247.449 324.4C247.881 324.832 248.124 325.418 248.126 326.029C248.124 326.64 247.881 327.225 247.449 327.657C247.017 328.089 246.432 328.333 245.821 328.335H238.968V335.188C238.966 335.799 238.722 336.384 238.29 336.816C237.858 337.248 237.272 337.491 236.661 337.493C236.051 337.491 235.466 337.247 235.034 336.815C234.602 336.384 234.359 335.799 234.357 335.188V328.335H227.504C226.893 328.334 226.307 328.09 225.875 327.658C225.442 327.226 225.199 326.64 225.197 326.029C225.199 325.417 225.442 324.832 225.875 324.399C226.307 323.967 226.893 323.724 227.504 323.722H234.357V316.869C234.358 316.258 234.602 315.673 235.033 315.24C235.465 314.808 236.05 314.565 236.661 314.562Z" fill="white"/>
</svg>
