<svg width="24" height="24" viewBox="0 0 24 24" fill="none" xmlns="http://www.w3.org/2000/svg">
<path d="M12 22C17.5228 22 22 17.5228 22 12C22 6.47715 17.5228 2 12 2C6.47715 2 2 6.47715 2 12C2 17.5228 6.47715 22 12 22Z" fill="#303B8D"/>
<path d="M10.8328 15.0828C10.6408 15.0828 10.4488 15.0098 10.3028 14.8628L7.96975 12.5298C7.67675 12.2368 7.67675 11.7618 7.96975 11.4688C8.26275 11.1758 8.73775 11.1758 9.03075 11.4688L10.8338 13.2718L14.9697 9.13577C15.2628 8.84277 15.7378 8.84277 16.0308 9.13577C16.3238 9.42877 16.3238 9.9038 16.0308 10.1968L11.3638 14.8638C11.2168 15.0098 11.0248 15.0828 10.8328 15.0828Z" fill="white"/>
</svg>
