<svg width="24" height="24" viewBox="0 0 24 24" fill="none" xmlns="http://www.w3.org/2000/svg">
<path d="M21.4373 3.74973L18.5508 2.21875L18.1992 2.88133L21.1682 4.456C21.2223 4.48472 21.2827 4.49973 21.3439 4.49973H23.2189V3.74973H21.4373Z" fill="white"/>
<path d="M21.3103 7.50155L19.0556 7.70648C18.5331 7.75277 18.007 7.67721 17.5187 7.48576C17.0304 7.29431 16.5931 6.99218 16.2413 6.60314L15.0748 5.30691C14.898 5.11045 14.7961 4.85803 14.7868 4.59392C14.7775 4.32982 14.8615 4.07087 15.0241 3.8625L17.0112 5.18719C17.0521 5.21508 17.0982 5.23459 17.1467 5.24456C17.1953 5.25454 17.2453 5.2548 17.294 5.24532C17.3426 5.23584 17.3889 5.21682 17.4301 5.18935C17.4714 5.16187 17.5068 5.1265 17.5343 5.08526C17.5618 5.04403 17.5808 4.99775 17.5903 4.94912C17.5998 4.90048 17.5996 4.85044 17.5896 4.80189C17.5796 4.75334 17.5602 4.70725 17.5323 4.66628C17.5044 4.62531 17.4687 4.59027 17.4272 4.56319L15.1772 3.06319L15.1765 3.06267L15.176 3.06239C15.1142 3.02145 15.0416 2.99974 14.9674 3H10.8444C10.415 2.99984 9.99907 2.84996 9.66825 2.57617C9.33742 2.30238 9.11241 1.92182 9.03195 1.5H15.5945L17.4493 2.48381L17.8009 1.82123L15.8637 0.793734C15.8095 0.765006 15.7492 0.749989 15.6879 0.75H8.62545C8.52689 0.749991 8.43229 0.788784 8.36211 0.857989C8.29193 0.927194 8.25182 1.02125 8.25045 1.1198C8.24568 1.46347 8.30924 1.80467 8.43746 2.12357C8.56568 2.44247 8.75599 2.7327 8.99733 2.97742C9.23868 3.22214 9.52625 3.41646 9.84334 3.54909C10.1604 3.68171 10.5007 3.75001 10.8444 3.75H14.2169C14.0582 4.08449 14.002 4.45849 14.0555 4.82484C14.109 5.19119 14.2698 5.53351 14.5175 5.80866L15.684 7.10484C16.0723 7.53415 16.5461 7.87744 17.0749 8.11261C17.6038 8.34778 18.1761 8.46962 18.7549 8.47031C18.8775 8.47031 19.0003 8.46475 19.1234 8.45362L21.3612 8.25H23.2191V7.5H21.3441C21.333 7.5 21.3215 7.50052 21.3103 7.50155ZM13.156 20.25H11.6252V21H13.156C13.5854 21.0002 14.0014 21.15 14.3322 21.4238C14.663 21.6976 14.888 22.0782 14.9685 22.5H8.40598L2.83198 19.5437C2.77786 19.515 2.71752 19.5 2.65625 19.5H0.78125V20.25H2.56297L8.13678 23.2063C8.1909 23.235 8.25124 23.25 8.31252 23.25H15.3752C15.4738 23.25 15.5684 23.2112 15.6386 23.142C15.7087 23.0728 15.7489 22.9788 15.7502 22.8802C15.755 22.5365 15.6914 22.1953 15.5632 21.8764C15.435 21.5575 15.2446 21.2672 15.0033 21.0225C14.7619 20.7778 14.4743 20.5835 14.1572 20.4508C13.8401 20.3182 13.4997 20.25 13.156 20.25Z" fill="white"/>
<path d="M2.69019 16.4985L4.94487 16.2935C5.46734 16.2472 5.99343 16.3227 6.48176 16.5142C6.97009 16.7057 7.40733 17.0078 7.75911 17.3969L8.92564 18.6931C9.10247 18.8895 9.20448 19.142 9.21378 19.4061C9.22308 19.6703 9.13907 19.9293 8.9765 20.1377L6.98928 18.813C6.94832 18.7851 6.90224 18.7656 6.85369 18.7556C6.80515 18.7456 6.75511 18.7454 6.70647 18.7549C6.65783 18.7643 6.61155 18.7834 6.5703 18.8108C6.52905 18.8383 6.49366 18.8737 6.46617 18.9149C6.43868 18.9562 6.41964 19.0024 6.41014 19.0511C6.40064 19.0997 6.40088 19.1498 6.41084 19.1983C6.4208 19.2468 6.44028 19.2929 6.46816 19.3339C6.49604 19.3749 6.53176 19.4099 6.57327 19.437L8.82327 20.937L8.82448 20.9378C8.88578 20.9784 8.95766 21 9.03116 21H10.8752V20.25H9.7835C9.94225 19.9155 9.99843 19.5415 9.94494 19.1752C9.89145 18.8088 9.73069 18.4665 9.48294 18.1913L8.31641 16.8952C7.88644 16.4197 7.35203 16.0504 6.75521 15.8164C6.15839 15.5824 5.51542 15.49 4.87686 15.5466L2.63928 15.75H0.78125V16.5H2.65625C2.66741 16.5 2.67894 16.4995 2.69019 16.4985ZM13.5002 7.125H10.5002C10.4008 7.125 10.3054 7.16451 10.2351 7.23483C10.1647 7.30516 10.1252 7.40054 10.1252 7.5V10.125H9.37522V10.875H10.5002C10.5997 10.875 10.6951 10.8355 10.7654 10.7652C10.8357 10.6948 10.8752 10.5995 10.8752 10.5V7.875H13.1252V10.5C13.1252 10.5995 13.1647 10.6948 13.2351 10.7652C13.3054 10.8355 13.4008 10.875 13.5002 10.875H16.1252V13.125H13.5002C13.4008 13.125 13.3054 13.1645 13.2351 13.2348C13.1647 13.3052 13.1252 13.4005 13.1252 13.5V16.125H10.8752V13.5C10.8752 13.4005 10.8357 13.3052 10.7654 13.2348C10.6951 13.1645 10.5997 13.125 10.5002 13.125H7.87522V10.875H8.62522V10.125H7.50022C7.40076 10.125 7.30538 10.1645 7.23505 10.2348C7.16473 10.3052 7.12522 10.4005 7.12522 10.5V13.5C7.12522 13.5995 7.16473 13.6948 7.23505 13.7652C7.30538 13.8355 7.40076 13.875 7.50022 13.875H10.1252V16.5C10.1252 16.5995 10.1647 16.6948 10.2351 16.7652C10.3054 16.8355 10.4008 16.875 10.5002 16.875H13.5002C13.5997 16.875 13.6951 16.8355 13.7654 16.7652C13.8357 16.6948 13.8752 16.5995 13.8752 16.5V13.875H16.5002C16.5997 13.875 16.6951 13.8355 16.7654 13.7652C16.8357 13.6948 16.8752 13.5995 16.8752 13.5V10.5C16.8752 10.4005 16.8357 10.3052 16.7654 10.2348C16.6951 10.1645 16.5997 10.125 16.5002 10.125H13.8752V7.5C13.8752 7.40054 13.8357 7.30516 13.7654 7.23483C13.6951 7.16451 13.5997 7.125 13.5002 7.125Z" fill="white"/>
<path d="M4.875 12C4.87417 12.798 5.00803 13.5903 5.27096 14.3438L5.979 14.0965C5.74388 13.4226 5.6242 12.7138 5.625 12C5.625 8.4848 8.4848 5.625 12 5.625C12.2368 5.62503 12.4733 5.63808 12.7087 5.66409L12.7913 4.91878C12.5286 4.88966 12.2644 4.87504 12 4.875C8.07127 4.875 4.875 8.07127 4.875 12ZM12 18.375C11.7632 18.375 11.5267 18.3619 11.2913 18.3359L11.2087 19.0812C11.4714 19.1103 11.7356 19.125 12 19.125C15.9287 19.125 19.125 15.9287 19.125 12C19.1258 11.202 18.992 10.4097 18.7291 9.65625L18.021 9.90352C18.2561 10.5774 18.3758 11.2862 18.375 12C18.375 15.5152 15.5152 18.375 12 18.375Z" fill="white"/>
<path d="M20.1042 9.44983C20.0436 9.49467 19.998 9.55673 19.9732 9.6279C19.9484 9.69907 19.9456 9.77606 19.9653 9.84883C20.4468 11.6396 20.312 13.5402 19.5827 15.2451C18.8533 16.95 17.5718 18.3601 15.9441 19.2485L16.3034 19.9069C17.9427 19.0122 19.2636 17.6304 20.0835 15.9524C20.9035 14.2745 21.182 12.3833 20.8806 10.5402L21.9247 11.194L22.3228 10.5584L20.5264 9.43342C20.4625 9.39342 20.3881 9.37359 20.3128 9.37652C20.2374 9.37945 20.1648 9.40499 20.1042 9.44983ZM3.57809 14.2512C3.63423 14.2512 3.68966 14.2386 3.74028 14.2144C3.79089 14.1901 3.83542 14.1548 3.87056 14.111C3.9057 14.0672 3.93056 14.0161 3.94332 13.9614C3.95607 13.9067 3.95638 13.8499 3.94423 13.7951C3.5403 11.9789 3.76177 10.0794 4.57273 8.40486C5.3837 6.73029 6.73658 5.37878 8.41198 4.56953L8.08555 3.89453C6.38104 4.71938 4.97963 6.06015 4.08024 7.72653C3.18086 9.39291 2.82918 11.3002 3.07512 13.1778L1.67722 12.4214L1.32031 13.081L3.39969 14.206C3.45447 14.2357 3.51579 14.2513 3.57809 14.2512Z" fill="white"/>
</svg>
