<svg width="24" height="24" viewBox="0 0 24 24" fill="none" xmlns="http://www.w3.org/2000/svg">
<path d="M23.8807 14.6058C23.81 14.4343 23.6899 14.2876 23.5357 14.1846C23.3814 14.0815 23.2 14.0267 23.0145 14.0271L20.1537 14.0275V1.17188C20.1537 0.551578 19.6491 0.046875 19.0287 0.046875H10.8495C10.2292 0.046875 9.72455 0.551578 9.72455 1.17188V4.35187C9.14118 4.21639 8.54421 4.14813 7.94531 4.14844C3.61594 4.14844 0.09375 7.67062 0.09375 12C0.09375 16.3294 3.61594 19.8516 7.94531 19.8516C8.69906 19.8516 9.4282 19.7445 10.1187 19.5453L14.2762 23.7029C14.3631 23.7902 14.4664 23.8594 14.5802 23.9066C14.694 23.9537 14.816 23.9778 14.9392 23.9775C15.1896 23.9775 15.425 23.88 15.6021 23.7029L23.6774 15.6275C23.8088 15.4966 23.8984 15.3296 23.9346 15.1476C23.9708 14.9657 23.952 14.7771 23.8807 14.6058V14.6058ZM0.84375 12C0.84375 8.0842 4.02947 4.89844 7.94531 4.89844C11.8612 4.89844 15.0469 8.0842 15.0469 12C15.0469 15.9158 11.8612 19.1016 7.94531 19.1016C4.02947 19.1016 0.84375 15.9158 0.84375 12ZM23.1471 15.0971L15.0717 23.1726C15.0543 23.19 15.0337 23.2038 15.0109 23.2132C14.9882 23.2226 14.9638 23.2275 14.9392 23.2274C14.9101 23.2274 14.8543 23.2203 14.8065 23.1725L10.9056 19.2716C13.7719 18.1005 15.7969 15.2825 15.7969 12C15.7969 8.55516 13.5668 5.62148 10.4745 4.56647V1.17188C10.4745 0.965109 10.6428 0.796875 10.8495 0.796875H19.0288C19.2355 0.796875 19.4038 0.965109 19.4038 1.17188V14.0271C19.4038 14.4406 19.7402 14.7771 20.1538 14.7771H23.0145C23.1276 14.7771 23.1733 14.858 23.1877 14.8928C23.2021 14.9276 23.227 15.0172 23.1471 15.0971Z" fill="white"/>
<path d="M7.61042 9.6902H8.2827C8.72052 9.6902 9.07677 10.0464 9.07677 10.4843C9.07677 10.5837 9.11627 10.6791 9.1866 10.7494C9.25693 10.8198 9.35231 10.8593 9.45177 10.8593C9.55122 10.8593 9.6466 10.8198 9.71693 10.7494C9.78726 10.6791 9.82677 10.5837 9.82677 10.4843C9.82677 9.64586 9.155 8.96195 8.32156 8.94119V8.58203C8.32156 8.48258 8.28205 8.38719 8.21173 8.31687C8.1414 8.24654 8.04602 8.20703 7.94656 8.20703C7.84711 8.20703 7.75172 8.24654 7.6814 8.31687C7.61107 8.38719 7.57156 8.48258 7.57156 8.58203V8.94119C6.73812 8.96195 6.06641 9.64586 6.06641 10.4843V10.8302C6.06641 11.6815 6.75903 12.3742 7.61042 12.3742H8.2827C8.72052 12.3742 9.07677 12.7304 9.07677 13.1682V13.5141C9.07677 13.9519 8.72052 14.3081 8.2827 14.3081H7.61047C7.17266 14.3081 6.81641 13.9519 6.81641 13.5141V13.4817C6.81641 13.3823 6.7769 13.2869 6.70657 13.2166C6.63625 13.1462 6.54086 13.1067 6.44141 13.1067C6.34195 13.1067 6.24657 13.1462 6.17624 13.2166C6.10591 13.2869 6.06641 13.3823 6.06641 13.4817V13.5141C6.06641 14.3525 6.73817 15.0364 7.57161 15.0572V15.4163C7.57161 15.5158 7.61112 15.6112 7.68144 15.6815C7.75177 15.7518 7.84715 15.7913 7.94661 15.7913C8.04607 15.7913 8.14145 15.7518 8.21177 15.6815C8.2821 15.6112 8.32161 15.5158 8.32161 15.4163V15.0572C9.15505 15.0364 9.82677 14.3525 9.82677 13.5141V13.1682C9.82677 12.3168 9.13414 11.6242 8.28275 11.6242H7.61047C7.17266 11.6242 6.81641 11.268 6.81641 10.8301V10.4843C6.81641 10.0464 7.17266 9.6902 7.61047 9.6902H7.61042Z" fill="white"/>
<path d="M7.94397 6.12305C4.70303 6.12305 2.06641 8.75977 2.06641 12.0006C2.06641 15.2415 4.70308 17.8782 7.94397 17.8782C11.1849 17.8782 13.8215 15.2415 13.8215 12.0006C13.8215 8.75977 11.1849 6.12305 7.94397 6.12305ZM7.94397 17.1282C5.11666 17.1282 2.81641 14.8279 2.81641 12.0006C2.81641 9.1733 5.11666 6.87305 7.94397 6.87305C10.7713 6.87305 13.0715 9.1733 13.0715 12.0006C13.0715 14.8279 10.7713 17.1282 7.94397 17.1282Z" fill="white"/>
</svg>
