<svg width="24" height="20" viewBox="0 0 24 20" fill="none" xmlns="http://www.w3.org/2000/svg">
<path d="M13.793 18.834C13.0036 18.834 11.953 18.6366 10.8703 17.8686C10.865 17.8633 10.8596 17.858 10.849 17.8526C10.8276 17.8366 8.65164 16.0126 5.67031 16.9833C5.53164 17.0313 5.38231 16.9513 5.33431 16.8126C5.28631 16.674 5.36631 16.5246 5.50497 16.4766C7.21697 15.922 8.66764 16.21 9.58498 16.5566C10.5183 16.9033 11.0996 17.3673 11.185 17.442C13.0996 18.7966 14.8756 18.1566 14.9503 18.13C14.9556 18.1246 14.9663 18.1246 14.977 18.1193L22.4703 16.114C23.041 15.9593 23.3823 15.3673 23.233 14.7966C23.1583 14.5193 22.9823 14.29 22.7316 14.146C22.481 14.002 22.193 13.9646 21.9156 14.0393L15.7876 15.6713C15.6436 15.7086 15.4996 15.6233 15.4623 15.4846C15.425 15.3406 15.5103 15.1966 15.649 15.1593L21.777 13.5166C22.193 13.4046 22.625 13.4633 22.9983 13.6766C23.3716 13.89 23.6383 14.2366 23.7503 14.6526C23.9796 15.5113 23.4676 16.3913 22.6143 16.6206L15.1316 18.626C15.0303 18.6633 14.5236 18.834 13.793 18.834Z" fill="white"/>
<path d="M14.1614 16.8818C13.8414 16.8818 13.5214 16.8018 13.2281 16.6312L9.38809 14.4125C9.2601 14.3378 9.21743 14.1778 9.29209 14.0498C9.36676 13.9218 9.52676 13.8792 9.65476 13.9538L13.4948 16.1725C14.1348 16.5405 14.9561 16.3218 15.3294 15.6818C15.6974 15.0418 15.4788 14.2205 14.8388 13.8472C14.1561 13.4525 13.5214 13.0472 12.9081 12.6525C10.0921 10.8498 7.87343 9.42048 4.11876 11.0738C3.98543 11.1325 3.82543 11.0738 3.76676 10.9352C3.7081 10.8018 3.76676 10.6418 3.90543 10.5832C7.92143 8.81782 10.3641 10.3858 13.1961 12.2045C13.8041 12.5938 14.4334 12.9992 15.1054 13.3832C16.0014 13.9005 16.3108 15.0472 15.7934 15.9432C15.4414 16.5405 14.8068 16.8818 14.1614 16.8818Z" fill="white"/>
<path d="M2.85401 19.2325C2.80601 19.2325 2.76335 19.2218 2.72068 19.1952C2.66201 19.1578 2.61401 19.0992 2.59801 19.0352L0.235346 10.2298C0.198012 10.0858 0.283346 9.94183 0.422012 9.9045L3.53135 9.0725C3.60068 9.0565 3.67001 9.06183 3.73401 9.09916C3.79268 9.1365 3.84068 9.19516 3.85668 9.25916L6.21401 18.0645C6.25135 18.2085 6.16601 18.3525 6.02735 18.3898L2.92335 19.2272C2.90201 19.2325 2.87535 19.2325 2.85401 19.2325ZM0.822012 10.3472L3.04068 18.6405L5.63801 17.9472L3.41935 9.65383L0.822012 10.3472ZM22.838 12.0005H13.4513C13.302 12.0005 13.1847 11.8832 13.1847 11.7338V10.5338C13.1847 8.65116 14.2353 6.95516 15.926 6.10183C16.0487 6.03783 16.2033 6.0805 16.2727 6.20316C16.6727 6.86983 17.3713 7.2645 18.1447 7.2645C18.918 7.2645 19.6167 6.86983 20.0167 6.20316C20.086 6.0805 20.2407 6.03783 20.3633 6.10183C22.054 6.95516 23.1047 8.65116 23.1047 10.5338V11.7338C23.1047 11.8778 22.9873 12.0005 22.838 12.0005ZM13.718 11.4672H22.5767V10.5338C22.5767 8.93383 21.7233 7.47783 20.3367 6.6885C19.83 7.3765 19.014 7.79783 18.15 7.79783C17.286 7.79783 16.47 7.3765 15.9633 6.6885C14.5767 7.48316 13.7233 8.93383 13.7233 10.5338V11.4672H13.718Z" fill="white"/>
<path d="M18.1446 6.27308C16.6459 6.27308 15.4299 5.05708 15.4299 3.55842C15.4299 2.05975 16.6459 0.84375 18.1446 0.84375C19.6432 0.84375 20.8592 2.05975 20.8592 3.55842C20.8592 5.05708 19.6432 6.27308 18.1446 6.27308ZM18.1446 1.37708C16.9446 1.37708 15.9632 2.35308 15.9632 3.55842C15.9632 4.75842 16.9392 5.73975 18.1446 5.73975C19.3499 5.73975 20.3259 4.76375 20.3259 3.55842C20.3259 2.35842 19.3499 1.37708 18.1446 1.37708ZM8.24589 8.57708C7.56855 8.57708 7.01922 8.02775 7.01922 7.35042V6.25708H5.92589C5.24855 6.25708 4.69922 5.70775 4.69922 5.03042C4.69922 4.35308 5.24855 3.80375 5.92589 3.80375H7.01922V2.70508C7.01922 2.02775 7.56855 1.47842 8.24589 1.47842C8.92322 1.47842 9.47255 2.02775 9.47255 2.70508V3.79842H10.5659C11.2432 3.79842 11.7926 4.34775 11.7926 5.02508C11.7926 5.70242 11.2432 6.25175 10.5659 6.25175H9.47255V7.34508C9.47789 8.02775 8.92322 8.57708 8.24589 8.57708ZM5.92589 4.33175C5.54189 4.33175 5.23255 4.64642 5.23255 5.02508C5.23255 5.40375 5.54722 5.71842 5.92589 5.71842H7.28589C7.43522 5.71842 7.55255 5.83575 7.55255 5.98508V7.34508C7.55255 7.72908 7.86722 8.03842 8.24589 8.03842C8.62455 8.03842 8.93922 7.72375 8.93922 7.34508V5.98508C8.93922 5.83575 9.05655 5.71842 9.20589 5.71842H10.5659C10.9499 5.71842 11.2592 5.40375 11.2592 5.02508C11.2592 4.64642 10.9446 4.33175 10.5659 4.33175H9.20589C9.05655 4.33175 8.93922 4.21442 8.93922 4.06508V2.70508C8.93922 2.32108 8.62455 2.01175 8.24589 2.01175C7.86189 2.01175 7.55255 2.32642 7.55255 2.70508V4.06508C7.55255 4.21442 7.43522 4.33175 7.28589 4.33175H5.92589Z" fill="white"/>
</svg>
