<svg width="20" height="22" viewBox="0 0 20 22" fill="none" xmlns="http://www.w3.org/2000/svg">
<path d="M17.5918 16.2739C17.9374 16.0119 18.192 15.6481 18.3199 15.2337C18.4477 14.8193 18.4422 14.3752 18.3043 13.9641C18.1663 13.553 17.9028 13.1955 17.5509 12.9421C17.1989 12.6887 16.7764 12.5521 16.3427 12.5516C15.909 12.5511 15.4862 12.6868 15.1337 12.9394C14.7812 13.192 14.5169 13.5489 14.378 13.9597C14.2391 14.3705 14.2327 14.8146 14.3595 15.2293C14.4864 15.6439 14.7403 16.0083 15.0853 16.2711C14.5681 16.4658 14.1033 16.7781 13.7278 17.1835C13.2301 16.2598 12.4088 15.5526 11.4215 15.1975C11.9187 14.8885 12.3018 14.4259 12.5126 13.8798C12.7234 13.3337 12.7505 12.7337 12.5898 12.1708C12.4292 11.6079 12.0895 11.1126 11.6222 10.76C11.1549 10.4074 10.5854 10.2167 10 10.2167C9.4146 10.2167 8.84513 10.4074 8.37783 10.76C7.91052 11.1126 7.57082 11.6079 7.41016 12.1708C7.2495 12.7337 7.27663 13.3337 7.48744 13.8798C7.69824 14.4259 8.08125 14.8885 8.57847 15.1975C7.59118 15.5523 6.76983 16.2595 6.27222 17.1831C5.89671 16.7779 5.432 16.4656 4.91491 16.2711C5.25993 16.0084 5.51379 15.644 5.64071 15.2293C5.76762 14.8146 5.76119 14.3705 5.62231 13.9597C5.48344 13.5488 5.21912 13.192 4.86663 12.9393C4.51414 12.6867 4.09125 12.5511 3.65757 12.5515C3.2239 12.552 2.80132 12.6886 2.44939 12.942C2.09747 13.1955 1.83396 13.5529 1.696 13.9641C1.55805 14.3752 1.55261 14.8193 1.68046 15.2337C1.8083 15.6481 2.06298 16.0119 2.40859 16.2739C1.73069 16.5283 1.14639 16.9832 0.733538 17.578C0.320682 18.1728 0.0988717 18.8793 0.0976562 19.6033V21.0696C0.0979539 21.3057 0.191883 21.5321 0.358843 21.699C0.525803 21.866 0.752164 21.9599 0.988281 21.9602C6.62697 21.9529 13.3633 21.9529 19.0108 21.9602C19.2469 21.9599 19.4733 21.866 19.6402 21.699C19.8072 21.5321 19.9011 21.3057 19.9014 21.0696V19.6033C19.9001 18.8795 19.6785 18.1732 19.2659 17.5784C18.8533 16.9836 18.2693 16.5286 17.5918 16.2739ZM16.3404 13.2118C16.6203 13.2118 16.8939 13.2948 17.1267 13.4504C17.3594 13.6059 17.5408 13.8269 17.6479 14.0855C17.755 14.3441 17.7831 14.6287 17.7285 14.9032C17.6739 15.1777 17.5391 15.4299 17.3411 15.6278C17.1432 15.8258 16.891 15.9605 16.6165 16.0152C16.342 16.0698 16.0574 16.0417 15.7988 15.9346C15.5402 15.8275 15.3192 15.6461 15.1637 15.4134C15.0082 15.1806 14.9252 14.907 14.9252 14.6271C14.9256 14.2519 15.0749 13.8922 15.3402 13.6269C15.6055 13.3615 15.9652 13.2123 16.3404 13.2118ZM7.96253 12.9133C7.96268 12.5105 8.08227 12.1167 8.30619 11.7819C8.53011 11.447 8.8483 11.186 9.22052 11.0319C9.59275 10.8779 10.0023 10.8376 10.3974 10.9163C10.7925 10.995 11.1554 11.1891 11.4402 11.474C11.725 11.7589 11.9189 12.1219 11.9974 12.517C12.076 12.9121 12.0356 13.3216 11.8814 13.6938C11.7272 14.066 11.4661 14.3841 11.1312 14.6079C10.7962 14.8316 10.4024 14.9511 9.99953 14.9511C9.45935 14.9504 8.9415 14.7355 8.5596 14.3535C8.17771 13.9715 7.96298 13.4535 7.96253 12.9133ZM9.99953 15.6073C10.9475 15.6084 11.8564 15.9854 12.5267 16.6558C13.1971 17.3261 13.5741 18.235 13.5752 19.183V21.0696C13.5751 21.1317 13.5504 21.1913 13.5065 21.2353C13.4625 21.2792 13.4029 21.3039 13.3408 21.304H6.65809C6.59595 21.3039 6.53636 21.2792 6.49242 21.2353C6.44848 21.1913 6.42377 21.1317 6.42372 21.0696V19.183C6.42476 18.2349 6.80184 17.326 7.47221 16.6557C8.14259 15.9854 9.0515 15.6083 9.99953 15.6073ZM3.65866 13.2118C3.93857 13.2118 4.21219 13.2948 4.44493 13.4504C4.67766 13.6059 4.85906 13.8269 4.96618 14.0855C5.07329 14.3441 5.10132 14.6287 5.04671 14.9032C4.99211 15.1777 4.85732 15.4299 4.65939 15.6278C4.46146 15.8258 4.20929 15.9605 3.93476 16.0152C3.66023 16.0698 3.37567 16.0417 3.11706 15.9346C2.85846 15.8275 2.63743 15.6461 2.48192 15.4134C2.32641 15.1806 2.24341 14.907 2.24341 14.6271C2.2438 14.2519 2.39304 13.8921 2.65836 13.6268C2.92369 13.3615 3.28343 13.2122 3.65866 13.2118ZM0.753906 21.0696V19.6033C0.754323 18.9941 0.946209 18.4003 1.30244 17.9061C1.65868 17.4118 2.16124 17.042 2.7391 16.8489C3.31696 16.6558 3.9409 16.6492 4.52271 16.83C5.10453 17.0109 5.6148 17.37 5.98141 17.8566C5.8396 18.2844 5.76737 18.7322 5.76747 19.183V21.0696C5.76858 21.1492 5.7805 21.2282 5.80291 21.3045H0.988281C0.957455 21.3045 0.926932 21.2985 0.89846 21.2866C0.869987 21.2748 0.844125 21.2575 0.822354 21.2357C0.800583 21.2139 0.783331 21.188 0.771585 21.1595C0.75984 21.131 0.753832 21.1004 0.753906 21.0696ZM19.2452 21.0696C19.2451 21.1317 19.2204 21.1913 19.1765 21.2353C19.1325 21.2792 19.0729 21.3039 19.0108 21.304H14.1956C14.218 21.2276 14.2299 21.1486 14.231 21.069V19.183C14.2311 18.7324 14.1589 18.2848 14.0173 17.8572C14.3838 17.3704 14.8941 17.0112 15.4759 16.8302C16.0577 16.6493 16.6817 16.6558 17.2596 16.8489C17.8376 17.0419 18.3402 17.4117 18.6965 17.906C19.0528 18.4003 19.2447 18.994 19.2452 19.6033V21.0696ZM9.99953 9.20085C10.9052 9.20088 11.7905 8.93236 12.5435 8.42925C13.2965 7.92613 13.8835 7.21101 14.2301 6.37432C14.5766 5.53763 14.6674 4.61696 14.4907 3.72872C14.314 2.84048 13.878 2.02457 13.2376 1.38418C12.5972 0.743782 11.7813 0.307662 10.8931 0.130967C10.0049 -0.045727 9.08418 0.0449404 8.24748 0.391504C7.41078 0.738067 6.69563 1.32496 6.19248 2.07797C5.68934 2.83097 5.42078 3.71627 5.42078 4.62191C5.42212 5.83587 5.90495 6.99974 6.76333 7.85816C7.62172 8.71658 8.78557 9.19946 9.99953 9.20085ZM9.99953 0.698283C10.7754 0.698246 11.5338 0.928276 12.1789 1.35928C12.824 1.79029 13.3268 2.40292 13.6238 3.11969C13.9207 3.83647 13.9984 4.6252 13.8471 5.38613C13.6957 6.14707 13.3221 6.84605 12.7735 7.39466C12.225 7.94328 11.526 8.3169 10.7651 8.46827C10.0041 8.61964 9.2154 8.54197 8.49861 8.24508C7.78183 7.94819 7.16918 7.44541 6.73814 6.80032C6.3071 6.15523 6.07703 5.39681 6.07703 4.62097C6.07822 3.58101 6.49186 2.58398 7.22721 1.84859C7.96256 1.11321 8.95957 0.699524 9.99953 0.698283Z" fill="white"/>
<path d="M7.63477 5.60573H9.0157V6.98667C9.0157 7.0737 9.05027 7.15716 9.11181 7.21869C9.17334 7.28023 9.2568 7.3148 9.34383 7.3148H10.6563C10.6994 7.31482 10.7421 7.30635 10.7819 7.28987C10.8217 7.27339 10.8579 7.24922 10.8884 7.21875C10.9189 7.18827 10.943 7.15209 10.9595 7.11227C10.976 7.07245 10.9845 7.02977 10.9845 6.98667V5.60573H12.3656C12.4526 5.60573 12.5361 5.57116 12.5976 5.50963C12.6591 5.44809 12.6937 5.36463 12.6937 5.27761V3.96511C12.6937 3.92201 12.6853 3.87933 12.6688 3.83951C12.6523 3.79969 12.6281 3.76351 12.5977 3.73304C12.5672 3.70256 12.531 3.67839 12.4912 3.66191C12.4514 3.64543 12.4087 3.63696 12.3656 3.63698H10.9845V2.25586C10.9845 2.16884 10.9499 2.08538 10.8883 2.02384C10.8268 1.9623 10.7434 1.92773 10.6563 1.92773H9.34383C9.25682 1.92778 9.17339 1.96237 9.11186 2.02389C9.05034 2.08542 9.01575 2.16885 9.0157 2.25586V3.63698H7.63477C7.59167 3.63696 7.54899 3.64543 7.50917 3.66191C7.46935 3.67839 7.43317 3.70256 7.40269 3.73304C7.37222 3.76351 7.34805 3.79969 7.33157 3.83951C7.31509 3.87933 7.30662 3.92201 7.30664 3.96511V5.27761C7.30664 5.36463 7.34121 5.44809 7.40275 5.50963C7.46428 5.57116 7.54774 5.60573 7.63477 5.60573ZM7.96289 4.29323H9.3442C9.43123 4.29323 9.51469 4.25866 9.57622 4.19713C9.63776 4.13559 9.67233 4.05213 9.67233 3.96511V2.58398H10.3286V3.96511C10.3286 4.05213 10.3631 4.13559 10.4247 4.19713C10.4862 4.25866 10.5697 4.29323 10.6567 4.29323H12.0378V4.94948H10.6567C10.6136 4.94946 10.5709 4.95793 10.5311 4.97441C10.4913 4.99089 10.4551 5.01506 10.4246 5.04554C10.3942 5.07601 10.37 5.11219 10.3535 5.15201C10.337 5.19183 10.3286 5.23451 10.3286 5.27761V6.65855H9.67233V5.27761C9.67235 5.23451 9.66388 5.19183 9.6474 5.15201C9.63092 5.11219 9.60675 5.07601 9.57628 5.04554C9.5458 5.01506 9.50962 4.99089 9.4698 4.97441C9.42998 4.95793 9.3873 4.94946 9.3442 4.94948H7.96289V4.29323Z" fill="white"/>
</svg>
