<svg width="64" height="64" viewBox="0 0 64 64" fill="none" xmlns="http://www.w3.org/2000/svg">
<rect width="64" height="64" rx="12" fill="#253082"/>
<g clip-path="url(#clip0_7386_19798)">
<path d="M29.9156 29.082C29.9156 29.4273 30.1953 29.707 30.5406 29.707C30.8859 29.707 31.1656 29.4273 31.1656 29.082C31.1656 27.3195 29.7336 25.8539 27.8656 25.5828V24.3664C27.8656 24.0211 27.5859 23.7414 27.2406 23.7414C26.8953 23.7414 26.6156 24.0211 26.6156 24.3664V25.5828C24.7477 25.8539 23.3156 27.3195 23.3156 29.082C23.3156 30.2891 23.757 31.1922 24.6273 31.7664C25.2086 32.15 25.9086 32.3469 26.6148 32.5055V37.15C25.4406 36.9078 24.5648 36 24.5648 34.9187C24.5648 34.5734 24.2852 34.2937 23.9398 34.2937C23.5945 34.2937 23.3148 34.5734 23.3148 34.9187C23.3148 36.6812 24.7469 38.1469 26.6148 38.418V39.6344C26.6148 39.9797 26.8945 40.2594 27.2398 40.2594C27.5852 40.2594 27.8648 39.9797 27.8648 39.6344V38.418C29.7328 38.1469 31.1648 36.6812 31.1648 34.9187C31.1648 33.7117 30.7234 32.8086 29.8531 32.2344C29.2719 31.8508 28.5719 31.6539 27.8656 31.4953V26.8508C29.0398 27.093 29.9156 28.0016 29.9156 29.082ZM24.5664 29.082C24.5664 28.0016 25.4422 27.093 26.6164 26.8508V31.2195C25.2977 30.8937 24.5664 30.4727 24.5664 29.082ZM29.9156 34.9195C29.9156 36 29.0398 36.9086 27.8656 37.1508V32.782C29.1844 33.1078 29.9156 33.5289 29.9156 34.9195ZM51.9414 35.8289C51.8913 35.7209 51.8113 35.6295 51.711 35.5654C51.6106 35.5014 51.4941 35.4673 51.375 35.4672H47.5664V22.143C47.5664 21.7977 47.2867 21.518 46.9414 21.518H38.3148C35.4422 18.4797 31.4234 16.7422 27.2414 16.7422C18.8367 16.7422 12 23.5875 12 32.0016C12 40.4148 18.8367 47.2594 27.2406 47.2594C31.4031 47.2594 35.3711 45.5547 38.2398 42.5602L42.0141 47.0375C42.1328 47.1781 42.3078 47.2594 42.4922 47.2594C42.6766 47.2594 42.8516 47.1781 42.9703 47.0367L51.8531 36.4945C52.0094 36.3094 52.0445 36.0492 51.9414 35.8289ZM33.132 36.4953L35.4352 39.2297C33.3586 41.5914 30.4016 42.9367 27.2414 42.9367C21.2195 42.9367 16.3195 38.0312 16.3195 32.0023C16.3195 25.9734 21.2188 21.0672 27.2406 21.0672C31.7172 21.0672 35.7922 23.8602 37.418 28.0273V35.4672H33.6094C33.3664 35.4672 33.1453 35.6078 33.043 35.8289C32.9406 36.05 32.975 36.3094 33.132 36.4953ZM27.2406 46.0094C19.5266 46.0094 13.25 39.7258 13.25 32.0016C13.25 24.2766 19.5266 17.9914 27.2406 17.9914C31.0852 17.9914 34.7805 19.5914 37.418 22.3891V25.3125C36.5797 24.0352 35.5055 22.9219 34.2336 22.0273C32.1789 20.5812 29.7609 19.8172 27.2406 19.8172C20.5289 19.8172 15.0687 25.2836 15.0687 32.0016C15.0687 38.7195 20.5289 44.1859 27.2406 44.1859C30.7 44.1859 33.9414 42.7398 36.2484 40.1945L37.4297 41.5969C34.7891 44.4078 31.1063 46.0094 27.2406 46.0094ZM42.4922 45.6648L38.5281 40.9625L34.9531 36.718H38.043C38.3883 36.718 38.668 36.4383 38.668 36.093V22.768H46.3156V36.093C46.3156 36.4383 46.5953 36.718 46.9406 36.718H50.0305L42.4922 45.6648Z" fill="white"/>
</g>
<defs>
<clipPath id="clip0_7386_19798">
<rect width="40" height="40" fill="white" transform="translate(12 12)"/>
</clipPath>
</defs>
</svg>
