<svg width="64" height="64" viewBox="0 0 64 64" fill="none" xmlns="http://www.w3.org/2000/svg">
<rect width="64" height="64" rx="12" fill="#253082"/>
<path d="M48.2554 32.4857C48.1809 32.3346 48.1422 32.1685 48.1422 32C48.1422 31.8316 48.1809 31.6654 48.2554 31.5143L49.654 28.6532C50.4327 27.0601 49.8157 25.1613 48.2494 24.3302L45.4362 22.8376C45.2872 22.7591 45.1582 22.6474 45.0592 22.5112C44.9602 22.3749 44.8938 22.2177 44.8652 22.0518L44.315 18.9149C44.0086 17.1684 42.3931 15.9948 40.6377 16.2431L37.4844 16.6892C37.3178 16.7133 37.1478 16.6987 36.9876 16.6467C36.8274 16.5946 36.6813 16.5065 36.5606 16.389L34.2718 14.1747C32.9973 12.9418 31.0008 12.9417 29.7264 14.1747L27.4374 16.3892C27.3167 16.5066 27.1706 16.5948 27.0105 16.6469C26.8503 16.6989 26.6803 16.7135 26.5136 16.6894L23.3604 16.2434C21.6044 15.9949 19.9894 17.1686 19.6831 18.9151L19.1329 22.0518C19.1043 22.2178 19.0379 22.375 18.9389 22.5113C18.8399 22.6475 18.711 22.7592 18.562 22.8377L15.7488 24.3304C14.1824 25.1614 13.5654 27.0603 14.3441 28.6534L15.7427 31.5145C15.8171 31.6656 15.8558 31.8317 15.8558 32.0002C15.8558 32.1686 15.8171 32.3348 15.7427 32.4859L14.3441 35.347C13.5654 36.94 14.1823 38.8388 15.7487 39.6699L18.5619 41.1626C18.7109 41.241 18.8399 41.3527 18.9389 41.489C19.0379 41.6252 19.1043 41.7824 19.1329 41.9484L19.6831 45.0852C19.962 46.6751 21.3253 47.7902 22.8921 47.79C23.0465 47.79 23.203 47.7792 23.3604 47.7569L26.5137 47.3109C26.6804 47.2868 26.8504 47.3013 27.0106 47.3533C27.1708 47.4054 27.3168 47.4936 27.4375 47.6111L29.7264 49.8253C30.3637 50.4419 31.1812 50.7501 31.999 50.75C32.8166 50.7499 33.6347 50.4417 34.2717 49.8253L36.5606 47.6111C36.8076 47.3722 37.1442 47.2631 37.4844 47.3109L40.6377 47.7569C42.3939 48.0053 44.0086 46.8317 44.315 45.0851L44.8653 41.9484C44.8939 41.7825 44.9602 41.6253 45.0592 41.489C45.1582 41.3527 45.2872 41.2411 45.4362 41.1626L48.2494 39.6699C49.8157 38.8389 50.4327 36.94 49.654 35.3469L48.2554 32.4857ZM47.2356 37.7593L44.4224 39.2519C43.5255 39.7279 42.9104 40.5744 42.735 41.5746L42.1848 44.7114C42.1363 44.9946 41.979 45.2476 41.7466 45.4165C41.5142 45.5853 41.2249 45.6567 40.9406 45.6153L37.7874 45.1693C36.7818 45.0268 35.7867 45.3505 35.0569 46.0565L32.7679 48.2706C32.5622 48.4712 32.2863 48.5834 31.999 48.5834C31.7117 48.5834 31.4358 48.4712 31.2301 48.2706L28.9412 46.0564C28.3244 45.4597 27.518 45.1363 26.6761 45.1363C26.5219 45.1363 26.3664 45.1472 26.2107 45.1692L23.0574 45.6153C22.7731 45.6565 22.484 45.5852 22.2515 45.4163C22.0191 45.2474 21.8619 44.9945 21.8133 44.7113L21.263 41.5745C21.0875 40.5743 20.4725 39.7277 19.5755 39.2518L16.7623 37.7592C16.5079 37.6255 16.3159 37.3978 16.2271 37.1246C16.1383 36.8513 16.1598 36.5542 16.287 36.2966L17.6856 33.4354C18.1315 32.5232 18.1315 31.4768 17.6856 30.5645L16.287 27.7034C16.1598 27.4458 16.1383 27.1486 16.2271 26.8754C16.3159 26.6022 16.5079 26.3744 16.7623 26.2408L19.5755 24.7481C20.4724 24.2722 21.0875 23.4256 21.263 22.4254L21.8131 19.2887C21.8617 19.0055 22.0189 18.7525 22.2513 18.5836C22.4838 18.4147 22.773 18.3434 23.0573 18.3847L26.2106 18.8308C27.2158 18.9731 28.2112 18.6496 28.9411 17.9436L31.23 15.7294C31.4357 15.5288 31.7116 15.4166 31.9989 15.4166C32.2862 15.4166 32.5621 15.5288 32.7678 15.7294L35.0567 17.9436C35.7866 18.6496 36.7818 18.9731 37.7872 18.8308L40.9405 18.3847C41.2248 18.3434 41.514 18.4148 41.7464 18.5837C41.9788 18.7525 42.1361 19.0055 42.1846 19.2887L42.7348 22.4255C42.9103 23.4257 43.5254 24.2723 44.4224 24.7481L47.2356 26.2408C47.4899 26.3744 47.682 26.6022 47.7707 26.8754C47.8595 27.1486 47.838 27.4458 47.7108 27.7034L46.3122 30.5645C45.8663 31.4767 45.8663 32.5232 46.3122 33.4354L47.7108 36.2965C47.8381 36.5541 47.8596 36.8513 47.7708 37.1245C47.682 37.3978 47.49 37.6256 47.2356 37.7593Z" fill="white"/>
<path d="M39.9034 24.0986C39.4812 23.6763 38.7964 23.6763 38.3741 24.0986L24.1001 38.3726C23.6778 38.7949 23.6778 39.4797 24.1001 39.902C24.2004 40.0025 24.3196 40.0823 24.4509 40.1367C24.5821 40.191 24.7227 40.2189 24.8648 40.2187C25.1415 40.2187 25.4183 40.1132 25.6294 39.902L39.9034 25.628C40.3258 25.2057 40.3258 24.521 39.9034 24.0986ZM27.6761 22.2676C25.4897 22.2676 23.7109 24.0464 23.7109 26.2328C23.7109 28.4192 25.4897 30.198 27.6761 30.198C29.8626 30.198 31.6414 28.4192 31.6414 26.2328C31.6414 24.0464 29.8626 22.2676 27.6761 22.2676ZM27.6761 28.0351C26.6823 28.0351 25.8738 27.2266 25.8738 26.2327C25.8738 25.2389 26.6823 24.4304 27.6761 24.4304C28.67 24.4304 29.4785 25.2389 29.4785 26.2327C29.4785 27.2266 28.67 28.0351 27.6761 28.0351ZM36.3274 33.8026C34.141 33.8026 32.3622 35.5815 32.3622 37.7679C32.3622 39.9543 34.141 41.7331 36.3274 41.7331C38.5138 41.7331 40.2926 39.9543 40.2926 37.7679C40.2926 35.5815 38.5138 33.8026 36.3274 33.8026ZM36.3274 39.5702C35.3336 39.5702 34.525 38.7617 34.525 37.7679C34.525 36.774 35.3335 35.9655 36.3274 35.9655C37.3212 35.9655 38.1297 36.774 38.1297 37.7679C38.1297 38.7617 37.3212 39.5702 36.3274 39.5702Z" fill="white"/>
</svg>
