<svg width="64" height="64" viewBox="0 0 64 64" fill="none" xmlns="http://www.w3.org/2000/svg">
<rect width="64" height="64" rx="12" fill="#253082"/>
<path d="M30.1178 47.8525L26.7339 45.844C25.8751 45.3344 25.4456 45.0794 24.9691 45.0647C24.4541 45.0487 24.0171 45.2932 23.089 45.844C22.0497 46.461 19.983 48.1604 18.6462 47.35C17.8281 46.854 17.8281 45.5944 17.8281 43.0749V25.332C17.8281 20.618 17.8281 18.261 19.2926 16.7965C20.7571 15.332 23.1141 15.332 27.8281 15.332H36.1615C40.8755 15.332 43.2325 15.332 44.697 16.7965C46.1615 18.261 46.1615 20.618 46.1615 25.332V43.0749C46.1615 45.5944 46.1615 46.854 45.3435 47.35C44.0066 48.1604 41.94 46.461 40.9005 45.844C40.0418 45.3344 39.6123 45.0794 39.1358 45.0647C38.6208 45.0487 38.1838 45.2932 37.2558 45.844L33.8718 47.8525C32.9591 48.3944 32.5026 48.6652 31.9948 48.6652C31.487 48.6652 31.0305 48.3944 30.1178 47.8525Z" stroke="white" stroke-width="1.5" stroke-linecap="round" stroke-linejoin="round"/>
<path d="M37 25.332L27 35.332" stroke="white" stroke-width="1.5" stroke-linecap="round" stroke-linejoin="round"/>
<path d="M37 35.332H36.985M27.015 25.332H27" stroke="white" stroke-width="2" stroke-linecap="round" stroke-linejoin="round"/>
</svg>
