<svg width="30" height="30" viewBox="0 0 30 30" fill="none" xmlns="http://www.w3.org/2000/svg">
<g id="elements">
<path id="Vector" d="M4.03423 14.9225C2.77019 12.7184 2.15986 10.9187 1.79185 9.0943C1.24756 6.39612 2.49314 3.76042 4.55657 2.07865C5.42866 1.36786 6.42837 1.61071 6.94407 2.53588L8.10831 4.62456C9.03112 6.2801 9.49252 7.10787 9.401 7.98547C9.30948 8.86307 8.68722 9.57783 7.44269 11.0074L4.03423 14.9225ZM4.03423 14.9225C6.59274 19.3837 10.6078 23.401 15.0743 25.9625M15.0743 25.9625C17.2783 27.2265 19.0781 27.8369 20.9024 28.2049C23.6006 28.7492 26.2363 27.5036 27.9181 25.4402C28.6289 24.5681 28.386 23.5684 27.4609 23.0527L25.3722 21.8884C23.7166 20.9656 22.8889 20.5042 22.0113 20.5957C21.1337 20.6873 20.4189 21.3095 18.9894 22.5541L15.0743 25.9625Z" stroke="#20254B" stroke-width="1.5" stroke-linejoin="round"/>
<path id="Vector_2" d="M17.6641 8.10849C19.5617 8.91433 21.0825 10.435 21.8883 12.3327M18.5361 1.66602C23.2524 3.02703 26.9695 6.74404 28.3307 11.4602" stroke="#20254B" stroke-width="1.5" stroke-linecap="round"/>
</g>
</svg>
