<svg width="24" height="24" viewBox="0 0 24 24" fill="none" xmlns="http://www.w3.org/2000/svg">
<g id="Frame">
<g id="Group">
<path id="Vector" d="M2.75816 23.984H15.5289C16.8416 23.984 17.7605 23.3558 18.1121 22.2541C18.0091 22.2607 17.9057 22.2607 17.8026 22.2541H17.6198C17.4614 22.2424 17.3044 22.2157 17.151 22.1743C16.0451 21.8725 15.2777 20.8687 15.2759 19.7224V10.0179H14.7038C14.445 10.0179 14.235 9.8078 14.235 9.54908C14.235 9.29015 14.445 9.08013 14.7038 9.08013H18.2716V3.45429C18.2716 1.43371 16.865 0.711716 15.5288 0.711716H13.2505V3.34649C13.2505 3.60525 13.0404 3.81527 12.7817 3.81527H5.49154C5.2326 3.81527 5.02258 3.60538 5.02258 3.34649V0.707031H2.75816C1.43142 0.707031 0.015625 1.42903 0.015625 3.44974V21.2648C0.015625 23.2433 1.43138 23.984 2.75816 23.984ZM5.17737 7.26123H13.1099C13.3687 7.26123 13.5787 7.47125 13.5787 7.72997C13.5787 7.9889 13.3687 8.19879 13.1099 8.19879H5.17737C4.91861 8.19879 4.70859 7.9889 4.70859 7.72997C4.70859 7.47121 4.91865 7.26123 5.17737 7.26123ZM5.17737 9.87718H13.1099C13.3687 9.87718 13.5787 10.0872 13.5787 10.346C13.5787 10.6048 13.3687 10.8149 13.1099 10.8149H5.17737C4.91861 10.8149 4.70859 10.6048 4.70859 10.346C4.70859 10.0872 4.91865 9.87718 5.17737 9.87718ZM5.17737 12.4933H13.1099C13.3687 12.4933 13.5787 12.7032 13.5787 12.9621C13.5787 13.2208 13.3687 13.4309 13.1099 13.4309H5.17737C4.91861 13.4309 4.70859 13.2208 4.70859 12.9621C4.70859 12.7033 4.91865 12.4933 5.17737 12.4933ZM5.17737 15.1093H13.1099C13.3687 15.1093 13.5787 15.3193 13.5787 15.5781C13.5787 15.8368 13.3687 16.0468 13.1099 16.0468H5.17737C4.91861 16.0468 4.70859 15.837 4.70859 15.5781C4.70859 15.3193 4.91865 15.1092 5.17737 15.1092V15.1093ZM5.17737 17.7252H13.1099C13.3687 17.7252 13.5787 17.9352 13.5787 18.194C13.5787 18.4529 13.3687 18.663 13.1099 18.663H5.17737C4.91861 18.663 4.70859 18.4529 4.70859 18.194C4.70859 17.9352 4.91865 17.7252 5.17737 17.7252Z" fill="#77B032"/>
<path id="Vector_2" d="M5.96875 0.707899V2.86916H12.3072V0H5.96879L5.96875 0.707899ZM19.4005 15.2742H16.1937V19.7561C16.2002 20.5057 16.7197 21.1532 17.4501 21.3219C18.3296 21.4932 19.181 20.9188 19.3521 20.0393C19.3704 19.9446 19.3807 19.848 19.3817 19.7515L19.4005 15.2742ZM20.896 10.0234H18.2613V9.0859H20.896C21.1548 9.0859 21.3648 9.29579 21.3648 9.55468C21.3648 9.81344 21.1548 10.0235 20.896 10.0235V10.0234Z" fill="#77B032"/>
</g>
</g>
</svg>
