<svg width="100" height="105" viewBox="0 0 100 105" fill="none" xmlns="http://www.w3.org/2000/svg">
<path d="M50.0026 10.9375C30.4734 10.9375 14.5859 27.6194 14.5859 48.125C14.5859 69.9256 33.8734 83.3042 46.6359 92.1548L48.8443 93.6951C49.1943 93.9401 49.5984 94.0625 49.9984 94.0625C50.3984 94.0625 50.8026 93.9401 51.1526 93.6951L53.3609 92.1548C66.1234 83.3042 85.4109 69.9256 85.4109 48.125C85.4193 27.6194 69.5318 10.9375 50.0026 10.9375ZM50.0026 59.0625C44.2484 59.0625 39.5859 54.1669 39.5859 48.125C39.5859 42.0831 44.2484 37.1875 50.0026 37.1875C55.7568 37.1875 60.4193 42.0831 60.4193 48.125C60.4193 54.1669 55.7568 59.0625 50.0026 59.0625Z" fill="#E0E8F9"/>
<g clip-path="url(#clip0_7386_18912)">
<path fill-rule="evenodd" clip-rule="evenodd" d="M49.1199 49.2866L54.0274 50.679L63.9708 53.5L66.6587 43.63C68.0394 38.5603 65.1044 33.2579 60.1375 31.8485C55.1682 30.4393 49.9755 33.4325 48.5923 38.5045L47 44.3577C47 47.9332 47.9269 48.9495 49.1199 49.2866Z" fill="#EB5468"/>
<path fill-rule="evenodd" clip-rule="evenodd" d="M62.4342 42.2959L59.7189 52.0432L63.9828 53.2266L66.6982 43.4791C68.0931 38.4725 65.1281 33.2359 60.1102 31.8441C59.3914 31.6447 58.6517 31.5305 57.9062 31.5039C61.6371 33.5785 63.6251 38.0198 62.4342 42.2959Z" fill="#E5384F"/>
<path fill-rule="evenodd" clip-rule="evenodd" d="M63.9828 53.2263L59.7188 52.043L57.0034 61.7904C56.2759 64.4039 54.4993 66.4593 52.2521 67.6283C52.0454 68.134 51.7948 68.6205 51.503 69.0824C51.3428 69.3378 51.1697 69.5848 50.9844 69.8226C55.5532 70.3807 59.9996 67.5228 61.2673 62.9738L63.9828 53.2263Z" fill="#E5384F"/>
<path fill-rule="evenodd" clip-rule="evenodd" d="M40.9828 41.6641C36.5556 41.6641 32.9688 45.2454 32.9688 49.6628C32.9688 52.7793 34.7526 55.4767 37.36 56.7991C40.3442 58.1262 44.0103 58.0926 46.7978 55.1677C48.1615 53.7352 48.9994 51.7948 48.9994 49.6628C48.9994 49.4616 48.9922 49.2627 48.9777 49.0663C48.8385 47.1882 48.051 45.4922 46.8361 44.1986C45.3741 42.639 43.2924 41.6641 40.9828 41.6641Z" fill="#FFD772"/>
<path fill-rule="evenodd" clip-rule="evenodd" d="M43.4707 64.0355L52.7789 65.8777C53.6576 61.4843 51.3024 56.9568 46.9808 55.2391L46.7935 55.1673C45.8548 54.8175 44.892 54.6235 43.9389 54.578C41.5308 54.4583 39.1756 55.268 37.3557 56.7987C36.6186 57.4143 35.9728 58.1498 35.4446 58.9905L43.4707 64.0355ZM51.4968 69.0829L43.4611 65.0751L34.165 62.1981C33.2911 66.5867 35.6464 71.1119 39.9631 72.8271C41.1108 73.2822 42.2967 73.5002 43.4612 73.5002H43.478C46.3902 73.4978 49.18 72.1467 50.9783 69.8231C51.1636 69.5853 51.3367 69.3382 51.4968 69.0829Z" fill="#B1E4F9"/>
<path fill-rule="evenodd" clip-rule="evenodd" d="M42.9587 41.9102C44.7954 43.8697 47.153 51.0156 42.5625 54.6112C43.0187 54.5657 43.4797 54.5538 43.943 54.5777C44.8962 54.6232 45.8589 54.8173 46.7976 55.167C48.1613 53.7345 48.9992 51.7941 48.9992 49.662C48.9992 49.4608 48.9921 49.2619 48.9776 49.0656C48.8383 47.1874 48.0509 45.4914 46.836 44.1979C45.8037 43.0983 44.4665 42.291 42.9587 41.9102Z" fill="#FBBA58"/>
<path fill-rule="evenodd" clip-rule="evenodd" d="M51.5026 69.0831L47.025 67.3032C46.9354 67.6037 46.8353 67.9009 46.7249 68.1943C45.911 70.3695 44.5929 72.2093 42.9531 73.4861C43.1236 73.4956 43.2965 73.5005 43.4669 73.5005H43.4838C46.396 73.4981 49.1858 72.147 50.984 69.8233C51.1693 69.5856 51.3424 69.3385 51.5026 69.0831ZM47.618 63.8249L52.7846 65.8779C53.6634 61.4845 51.3081 56.957 46.9865 55.2393L46.7993 55.1675C46.2036 54.9438 45.5865 54.7817 44.9578 54.6836C45.2817 55.1115 45.5769 55.5605 45.8414 56.0274C46.9745 58.0229 47.6372 60.4472 47.6372 63.0607C47.6372 63.3171 47.6324 63.571 47.618 63.8249Z" fill="#75CEF8"/>
<path fill-rule="evenodd" clip-rule="evenodd" d="M52.7857 65.8774L42.791 61.9056L35.4515 58.9902C35.1434 59.4787 34.8806 59.9943 34.6664 60.5306C34.452 61.0704 34.2865 61.6284 34.1719 62.1978L44.8269 66.4308L51.5038 69.0826C51.8136 68.5923 52.0772 68.0742 52.2912 67.5351C52.5055 66.9985 52.6711 66.4437 52.7857 65.8774Z" fill="#75CEF8"/>
<path fill-rule="evenodd" clip-rule="evenodd" d="M47.0234 67.3025L51.501 69.0824C51.8108 68.592 52.0744 68.074 52.2885 67.5349C52.5028 66.9983 52.6683 66.4435 52.783 65.8772L47.6163 63.8242C47.5564 65.0387 47.3523 66.2077 47.0234 67.3025Z" fill="#60B7FF"/>
<path d="M43.0271 49.5149H43.0102C42.8421 49.5149 42.6809 49.4481 42.5621 49.3293C42.4432 49.2104 42.3764 49.0492 42.3764 48.8811C42.3764 48.713 42.4432 48.5518 42.5621 48.4329C42.6809 48.3141 42.8421 48.2473 43.0102 48.2473H43.0271C43.1952 48.2473 43.3564 48.3141 43.4752 48.4329C43.5941 48.5518 43.6609 48.713 43.6609 48.8811C43.6609 49.0492 43.5941 49.2104 43.4752 49.3293C43.3564 49.4481 43.1952 49.5149 43.0271 49.5149ZM41.2504 52.962H41.2336C41.0655 52.962 40.9043 52.8952 40.7854 52.7764C40.6666 52.6575 40.5998 52.4963 40.5998 52.3282C40.5998 52.1601 40.6666 51.9989 40.7854 51.88C40.9043 51.7612 41.0655 51.6944 41.2336 51.6944H41.2504C41.4185 51.6944 41.5797 51.7612 41.6986 51.88C41.8175 51.9989 41.8843 52.1601 41.8843 52.3282C41.8843 52.4963 41.8175 52.6575 41.6986 52.7764C41.5797 52.8952 41.4185 52.962 41.2504 52.962ZM37.8484 50.4323H37.8291C37.661 50.4323 37.4998 50.3656 37.381 50.2467C37.2621 50.1278 37.1953 49.9666 37.1953 49.7985C37.1953 49.6304 37.2621 49.4692 37.381 49.3503C37.4998 49.2315 37.661 49.1647 37.8291 49.1647H37.8484C38.0165 49.1647 38.1777 49.2315 38.2966 49.3503C38.4154 49.4692 38.4822 49.6304 38.4822 49.7985C38.4822 49.9666 38.4154 50.1278 38.2966 50.2467C38.1777 50.3656 38.0165 50.4323 37.8484 50.4323ZM40.17 46.3145H40.1532C39.9851 46.3145 39.8239 46.2477 39.705 46.1289C39.5861 46.01 39.5194 45.8488 39.5194 45.6807C39.5194 45.5126 39.5861 45.3514 39.705 45.2325C39.8239 45.1137 39.9851 45.0469 40.1532 45.0469H40.17C40.3381 45.0469 40.4993 45.1137 40.6182 45.2325C40.737 45.3514 40.8038 45.5126 40.8038 45.6807C40.8038 45.8488 40.737 46.01 40.6182 46.1289C40.4993 46.2477 40.3381 46.3145 40.17 46.3145Z" fill="#FBBA58"/>
</g>
<defs>
<clipPath id="clip0_7386_18912">
<rect width="42" height="42" fill="white" transform="translate(29 31.5)"/>
</clipPath>
</defs>
</svg>
