<svg width="44" height="44" viewBox="0 0 44 44" fill="none" xmlns="http://www.w3.org/2000/svg">
<rect width="44" height="44" rx="22" fill="white"/>
<path d="M31 21.25H28.96C28.961 21.255 28.96 21.2589 28.961 21.2639C28.618 17.9859 26.015 15.3821 22.737 15.0391C22.741 15.0391 22.746 15.039 22.75 15.04V13C22.75 12.59 22.41 12.25 22 12.25C21.59 12.25 21.25 12.59 21.25 13V15.04C21.254 15.04 21.259 15.0401 21.263 15.0391C17.985 15.3821 15.382 17.9859 15.039 21.2639C15.04 21.2589 15.039 21.255 15.04 21.25H13C12.59 21.25 12.25 21.59 12.25 22C12.25 22.41 12.59 22.75 13 22.75H15.04C15.039 22.745 15.04 22.7411 15.039 22.7361C15.382 26.0141 17.986 28.6179 21.263 28.9609C21.259 28.9609 21.254 28.961 21.25 28.96V31C21.25 31.41 21.59 31.75 22 31.75C22.41 31.75 22.75 31.41 22.75 31V28.96C22.746 28.96 22.741 28.9599 22.737 28.9609C26.015 28.6179 28.618 26.0141 28.961 22.7361C28.96 22.7411 28.961 22.745 28.96 22.75H31C31.41 22.75 31.75 22.41 31.75 22C31.75 21.59 31.41 21.25 31 21.25ZM22 24.5C20.619 24.5 19.5 23.381 19.5 22C19.5 20.619 20.619 19.5 22 19.5C23.381 19.5 24.5 20.619 24.5 22C24.5 23.381 23.381 24.5 22 24.5Z" fill="#303B8D"/>
</svg>
