<svg width="24" height="24" viewBox="0 0 24 24" fill="none" xmlns="http://www.w3.org/2000/svg">
<g id="Frame" clip-path="url(#clip0_7386_18887)">
<g id="Group">
<path id="Vector" d="M12.6141 13.2837C13.2091 13.6281 13.8587 13.8681 14.5347 13.9935H15.4853C15.6896 13.9935 15.8743 14.0251 16.0396 14.0815C18.0615 13.946 19.8669 12.8244 20.8795 11.0693C21.6881 9.66956 21.9029 8.03901 21.4845 6.4777C21.0661 4.91658 20.0647 3.61186 18.6649 2.80378C15.7762 1.1363 12.0684 2.12977 10.3995 5.01853C9.78184 6.0892 9.51072 7.29773 9.60948 8.52398C10.0817 8.8193 10.4746 9.23152 10.7522 9.73406C11.1445 10.4444 11.2623 11.2536 11.0933 12.0359C11.5284 12.5324 12.0422 12.9539 12.6141 13.2837ZM13.545 9.43125H14.2381V9.7778C14.2381 10.2358 14.6107 10.6083 15.0686 10.6083H15.9342C16.5453 10.6083 17.0425 10.1111 17.0425 9.50006C17.0425 8.8882 16.5453 8.39039 15.9342 8.39039C15.3433 8.39039 13.545 8.39039 13.545 6.58903C13.545 5.61291 14.3244 4.81608 15.2931 4.78767V3.41283H15.9862V4.78631H16.212C17.0521 4.78631 17.7355 5.46975 17.7355 6.30984V6.65639H17.0425V6.30984C17.0425 5.85192 16.6699 5.47936 16.212 5.47936H15.3464C14.7353 5.47936 14.2381 5.97713 14.2381 6.58898C14.2381 7.38656 14.7136 7.69725 15.9342 7.69725C16.9275 7.69725 17.7355 8.50598 17.7355 9.50002C17.7355 10.4759 16.9554 11.2724 15.9861 11.3001V12.6762H15.293V11.3014H15.0685C14.2285 11.3014 13.545 10.6179 13.545 9.7778V9.43125H13.545ZM23.6613 8.0438C23.6613 11.9993 20.842 15.2963 17.0094 15.9488C17.0376 15.8244 17.0523 15.697 17.0523 15.5697C17.0523 15.2604 16.9681 14.9498 16.8031 14.6869C18.7613 14.3452 20.4724 13.1617 21.4797 11.4158C22.3809 9.85589 22.6203 8.0385 22.1539 6.29831C21.6876 4.55845 20.5716 3.10425 19.0114 2.20364C15.7919 0.345094 11.6594 1.45233 9.79937 4.67198C9.17645 5.7518 8.86961 6.95728 8.8982 8.1893C8.85528 8.17482 8.81207 8.16123 8.76859 8.14852L8.24673 7.99842C8.0628 7.94517 7.87094 8.05163 7.81797 8.23542L7.65536 8.79966C7.63155 8.5484 7.61949 8.29618 7.61922 8.0438C7.61917 3.62133 11.2171 0.0234375 15.6396 0.0234375C20.0628 0.0234375 23.6613 3.62133 23.6613 8.0438ZM13.3192 16.4528V17.1458H15.4852C16.089 17.1458 16.3592 17.5894 16.3592 18.029C16.3592 18.4686 16.089 18.9121 15.4852 18.9121H13.3191V19.6052H14.8792C15.4829 19.6052 15.7532 20.0487 15.7532 20.4883C15.7532 20.7225 15.6736 20.9471 15.5347 21.1044C15.3784 21.2816 15.1579 21.3714 14.8792 21.3714H13.3192V22.0645H14.6126C15.2164 22.0645 15.4867 22.5081 15.4867 22.9477C15.4867 23.3872 15.2164 23.8308 14.6126 23.8308H6.92209C6.36306 23.2541 5.66223 23.0812 5.04344 23.028V16.4026C5.60941 16.3013 6.03737 16.0803 6.34473 15.7303C6.37842 15.692 6.40322 15.6467 6.41734 15.5976L8.38797 8.76019L8.57683 8.81452C9.24841 9.00802 9.80552 9.45361 10.1455 10.0692C10.4855 10.6847 10.5661 11.3937 10.3725 12.0655L9.74547 14.2442C9.73062 14.2958 9.72796 14.3502 9.7377 14.403C9.74744 14.4558 9.76932 14.5056 9.80161 14.5485C9.83391 14.5914 9.87572 14.6262 9.92377 14.6502C9.97182 14.6742 10.0248 14.6866 10.0785 14.6866H15.4853C16.089 14.6866 16.3593 15.1302 16.3593 15.5698C16.3593 16.0094 16.089 16.4529 15.4853 16.4529H13.3192V16.4528ZM0.34375 15.5115H4.35039V23.9766H0.34375V15.5115Z" fill="#77B032"/>
</g>
</g>
<defs>
<clipPath id="clip0_7386_18887">
<rect width="24" height="24" fill="white"/>
</clipPath>
</defs>
</svg>
