<svg width="24" height="24" viewBox="0 0 24 24" fill="none" xmlns="http://www.w3.org/2000/svg">
<path d="M11.7277 18.717H10.1516C10.0522 18.717 9.95679 18.6775 9.88646 18.6072C9.81613 18.5368 9.77662 18.4415 9.77662 18.342C9.77662 18.2425 9.81613 18.1472 9.88646 18.0768C9.95679 18.0065 10.0522 17.967 10.1516 17.967H11.7277C12.1414 17.967 12.4777 17.6306 12.4777 17.217V5.25C12.4777 4.83637 12.1414 4.5 11.7277 4.5H3C2.58637 4.5 2.25 4.83637 2.25 5.25V17.217C2.25 17.6306 2.58637 17.967 3 17.967H4.57612C4.67558 17.967 4.77096 18.0065 4.84129 18.0768C4.91162 18.1472 4.95112 18.2425 4.95112 18.342C4.95112 18.4415 4.91162 18.5368 4.84129 18.6072C4.77096 18.6775 4.67558 18.717 4.57612 18.717H3C2.17275 18.717 1.5 18.0442 1.5 17.217V5.25C1.5 4.42275 2.17275 3.75 3 3.75H11.7277C12.555 3.75 13.2277 4.42275 13.2277 5.25V17.217C13.2277 18.0442 12.555 18.717 11.7277 18.717Z" fill="#777980"/>
<path d="M9.16087 4.50038H5.56687C5.46742 4.50038 5.37204 4.46087 5.30171 4.39054C5.23138 4.32021 5.19187 4.22483 5.19187 4.12538V3.672C5.19187 2.47462 6.16612 1.5 7.36387 1.5C8.56162 1.5 9.53587 2.47462 9.53587 3.672V4.12538C9.53587 4.22483 9.49637 4.32021 9.42604 4.39054C9.35571 4.46087 9.26033 4.50038 9.16087 4.50038ZM5.94187 3.75038H8.78587V3.672C8.78587 2.88787 8.148 2.25 7.36387 2.25C6.57975 2.25 5.94187 2.88787 5.94187 3.672V3.75038ZM12.8512 8.80875H12.3675C12.268 8.80875 12.1727 8.76924 12.1023 8.69892C12.032 8.62859 11.9925 8.53321 11.9925 8.43375C11.9925 8.33429 12.032 8.23891 12.1023 8.16859C12.1727 8.09826 12.268 8.05875 12.3675 8.05875H12.8512C12.9507 8.05875 13.0461 8.09826 13.1164 8.16859C13.1867 8.23891 13.2262 8.33429 13.2262 8.43375C13.2262 8.53321 13.1867 8.62859 13.1164 8.69892C13.0461 8.76924 12.9507 8.80875 12.8512 8.80875ZM2.35875 8.80875H1.875C1.77554 8.80875 1.68016 8.76924 1.60984 8.69892C1.53951 8.62859 1.5 8.53321 1.5 8.43375C1.5 8.33429 1.53951 8.23891 1.60984 8.16859C1.68016 8.09826 1.77554 8.05875 1.875 8.05875H2.35875C2.45821 8.05875 2.55359 8.09826 2.62391 8.16859C2.69424 8.23891 2.73375 8.33429 2.73375 8.43375C2.73375 8.53321 2.69424 8.62859 2.62391 8.69892C2.55359 8.76924 2.45821 8.80875 2.35875 8.80875ZM10.8679 16.4509H3.85987C3.76042 16.4509 3.66504 16.4114 3.59471 16.341C3.52438 16.2707 3.48487 16.1753 3.48487 16.0759V6.39188C3.48487 6.29242 3.52438 6.19704 3.59471 6.12671C3.66504 6.05638 3.76042 6.01688 3.85987 6.01688H10.8679C10.9673 6.01688 11.0627 6.05638 11.133 6.12671C11.2034 6.19704 11.2429 6.29242 11.2429 6.39188V16.0759C11.2429 16.1753 11.2034 16.2707 11.133 16.341C11.0627 16.4114 10.9673 16.4509 10.8679 16.4509ZM4.23487 15.7009H10.4929V6.76688H4.23487V15.7009Z" fill="#777980"/>
<path d="M8.81488 9.16406H5.91763C5.81817 9.16406 5.72279 9.12455 5.65246 9.05423C5.58213 8.9839 5.54263 8.88852 5.54263 8.78906C5.54263 8.68961 5.58213 8.59422 5.65246 8.5239C5.72279 8.45357 5.81817 8.41406 5.91763 8.41406H8.81488C8.91433 8.41406 9.00971 8.45357 9.08004 8.5239C9.15037 8.59422 9.18988 8.68961 9.18988 8.78906C9.18988 8.88852 9.15037 8.9839 9.08004 9.05423C9.00971 9.12455 8.91433 9.16406 8.81488 9.16406ZM8.81488 11.6098H5.91763C5.81817 11.6098 5.72279 11.5703 5.65246 11.5C5.58213 11.4297 5.54263 11.3343 5.54263 11.2348C5.54263 11.1354 5.58213 11.04 5.65246 10.9696C5.72279 10.8993 5.81817 10.8598 5.91763 10.8598H8.81488C8.91433 10.8598 9.00971 10.8993 9.08004 10.9696C9.15037 11.04 9.18988 11.1354 9.18988 11.2348C9.18988 11.3343 9.15037 11.4297 9.08004 11.5C9.00971 11.5703 8.91433 11.6098 8.81488 11.6098ZM8.81488 14.0556H5.91763C5.81817 14.0556 5.72279 14.0161 5.65246 13.9457C5.58213 13.8754 5.54263 13.78 5.54263 13.6806C5.54263 13.5811 5.58213 13.4857 5.65246 13.4154C5.72279 13.3451 5.81817 13.3056 5.91763 13.3056H8.81488C8.91433 13.3056 9.00971 13.3451 9.08004 13.4154C9.15037 13.4857 9.18988 13.5811 9.18988 13.6806C9.18988 13.78 9.15037 13.8754 9.08004 13.9457C9.00971 14.0161 8.91433 14.0556 8.81488 14.0556ZM10.1544 20.4752H4.57812C4.47867 20.4752 4.38329 20.4357 4.31296 20.3654C4.24263 20.295 4.20312 20.1996 4.20312 20.1002V18.3433C4.20312 18.2439 4.24263 18.1485 4.31296 18.0781C4.38329 18.0078 4.47867 17.9683 4.57812 17.9683H10.1544C10.2538 17.9683 10.3492 18.0078 10.4195 18.0781C10.4899 18.1485 10.5294 18.2439 10.5294 18.3433V20.1002C10.5294 20.1996 10.4899 20.295 10.4195 20.3654C10.3492 20.4357 10.2538 20.4752 10.1544 20.4752ZM4.95312 19.7252H9.77938V18.7183H4.95312V19.7252Z" fill="#777980"/>
<path d="M14.0495 22.5H9.38903C8.75256 22.4992 8.14238 22.246 7.69232 21.796C7.24227 21.3459 6.98908 20.7357 6.98828 20.0993C6.98828 19.9998 7.02779 19.9044 7.09812 19.8341C7.16844 19.7638 7.26383 19.7243 7.36328 19.7243C7.46274 19.7243 7.55812 19.7638 7.62845 19.8341C7.69877 19.9044 7.73828 19.9998 7.73828 20.0993C7.73878 20.5369 7.91286 20.9565 8.22232 21.266C8.53179 21.5754 8.95138 21.7495 9.38903 21.75H14.0495C14.4872 21.7495 14.9068 21.5754 15.2162 21.266C15.5257 20.9565 15.6998 20.5369 15.7003 20.0993V4.13287C15.7003 2.68087 16.8815 1.5 18.3332 1.5C19.7848 1.5 20.9664 2.68087 20.9664 4.13287V13.4201C20.9664 13.5196 20.9269 13.615 20.8566 13.6853C20.7862 13.7556 20.6909 13.7951 20.5914 13.7951C20.492 13.7951 20.3966 13.7556 20.3262 13.6853C20.2559 13.615 20.2164 13.5196 20.2164 13.4201V4.13287C20.2164 3.0945 19.3715 2.25 18.3332 2.25C17.2948 2.25 16.4503 3.09487 16.4503 4.13287V20.0989C16.4495 20.7353 16.1963 21.3455 15.7462 21.7956C15.2962 22.2456 14.686 22.4992 14.0495 22.5Z" fill="#777980"/>
<path d="M22.1238 17.7373H19.0586C18.9591 17.7373 18.8638 17.6978 18.7934 17.6275C18.7231 17.5571 18.6836 17.4618 18.6836 17.3623V13.4199C18.6836 13.3205 18.7231 13.2251 18.7934 13.1548C18.8638 13.0844 18.9591 13.0449 19.0586 13.0449H22.1238C22.2233 13.0449 22.3187 13.0844 22.389 13.1548C22.4593 13.2251 22.4988 13.3205 22.4988 13.4199V17.3623C22.4988 17.4618 22.4593 17.5571 22.389 17.6275C22.3187 17.6978 22.2233 17.7373 22.1238 17.7373ZM19.4336 16.9873H21.7488V13.7949H19.4336V16.9873Z" fill="#777980"/>
<path d="M21.3719 19.4112H19.8164C19.717 19.4112 19.6216 19.3716 19.5512 19.3013C19.4809 19.231 19.4414 19.1356 19.4414 19.0362V17.3633C19.4414 17.2638 19.4809 17.1684 19.5512 17.0981C19.6216 17.0278 19.717 16.9883 19.8164 16.9883C19.9159 16.9883 20.0112 17.0278 20.0816 17.0981C20.1519 17.1684 20.1914 17.2638 20.1914 17.3633V18.6612H20.9969V17.3633C20.9969 17.2638 21.0364 17.1684 21.1067 17.0981C21.1771 17.0278 21.2724 16.9883 21.3719 16.9883C21.4714 16.9883 21.5667 17.0278 21.6371 17.0981C21.7074 17.1684 21.7469 17.2638 21.7469 17.3633V19.0362C21.7469 19.1356 21.7074 19.231 21.6371 19.3013C21.5667 19.3716 21.4714 19.4112 21.3719 19.4112Z" fill="#777980"/>
<path d="M20.5938 22.4998C20.4943 22.4998 20.3989 22.4603 20.3286 22.3899C20.2583 22.3196 20.2188 22.2242 20.2188 22.1248V19.0352C20.2188 18.9357 20.2583 18.8403 20.3286 18.77C20.3989 18.6997 20.4943 18.6602 20.5938 18.6602C20.6932 18.6602 20.7886 18.6997 20.8589 18.77C20.9292 18.8403 20.9688 18.9357 20.9688 19.0352V22.1248C20.9688 22.2242 20.9292 22.3196 20.8589 22.3899C20.7886 22.4603 20.6932 22.4998 20.5938 22.4998Z" fill="#777980"/>
</svg>
