<svg width="32" height="32" viewBox="0 0 32 32" fill="none" xmlns="http://www.w3.org/2000/svg">
<path fill-rule="evenodd" clip-rule="evenodd" d="M21.3206 10.0169C21.3206 12.7966 18.9278 15.0339 16.035 15.0339C13.1065 15.0339 10.7852 12.7966 10.7852 10.0169C10.7852 7.23729 13.178 5 16.0708 5C18.285 5 20.1778 6.28813 20.9635 8.15254V8.18644C21.1778 8.76271 21.3206 9.37288 21.3206 10.0169ZM20.0698 7.9489C19.2841 6.59297 17.7841 5.67771 16.0342 5.67771C14.2842 5.67771 12.7843 6.62686 12.0343 7.9489H13.2128C13.3914 7.23703 14.0699 6.69466 14.8913 6.69466C15.7128 6.69466 16.3913 7.23703 16.5699 7.9489H20.0698ZM14.8569 7.3731C15.4283 7.3731 15.8568 7.81378 15.8568 8.32225C15.8568 8.83073 15.3926 9.27141 14.8569 9.27141C14.3212 9.27141 13.8569 8.83073 13.8569 8.32225C13.8569 7.81378 14.2855 7.3731 14.8569 7.3731ZM13.1413 8.66122H11.677C11.5342 9.068 11.4627 9.54258 11.427 10.0172C11.427 12.4239 13.4627 14.3561 15.9983 14.3561C18.534 14.3561 20.5697 12.39 20.5697 10.0172C20.5697 9.54258 20.4625 9.1019 20.3197 8.66122H16.4983C16.3555 9.40698 15.6412 9.98325 14.8198 9.98325C13.9984 9.98325 13.2841 9.40698 13.1413 8.66122Z" fill="#777980"/>
<path fill-rule="evenodd" clip-rule="evenodd" d="M20.6425 14.4917H21.3568C23.9282 14.4917 26.0353 16.4917 25.9995 18.8985V24.6612C25.9995 24.8646 25.8567 25.0002 25.6424 25.0002H6.35713C6.14285 25.0002 6 24.8646 6 24.6612V18.8985C6 16.4578 8.07138 14.4917 10.6428 14.4917H11.357C11.7499 14.4917 12.107 14.6951 12.2856 15.0002L15.4284 19.2036C15.5355 19.3731 15.7498 19.4747 15.9998 19.4747C16.2141 19.4747 16.4283 19.3731 16.5712 19.2036L19.714 15.0002C19.9283 14.6951 20.2497 14.4917 20.6425 14.4917ZM6.75107 24.322H25.3221H25.3935V18.8982C25.3935 16.8304 23.6435 15.1694 21.465 15.1694H20.7507C20.6079 15.1694 20.5008 15.2372 20.4293 15.3389C20.3936 15.3389 20.3936 15.3728 20.3936 15.3728L17.2508 19.6101C16.9651 19.983 16.5366 20.1864 16.0723 20.1864C15.608 20.1864 15.1437 19.983 14.8937 19.6101L11.751 15.3728C11.7152 15.3728 11.7152 15.3389 11.7152 15.3389C11.6438 15.2372 11.5367 15.1694 11.3938 15.1694H10.6795C8.50103 15.1694 6.75107 16.8304 6.75107 18.8982V24.322Z" fill="#777980"/>
<path d="M23.5362 20.7632H22.2862V19.5768C22.2862 19.3734 22.1434 19.2378 21.9291 19.2378C21.7148 19.2378 21.572 19.3734 21.572 19.5768V20.7632H20.322C20.1077 20.7632 19.9648 20.8988 19.9648 21.1022C19.9648 21.3056 20.1077 21.4412 20.322 21.4412H21.572V22.6276C21.572 22.831 21.7148 22.9666 21.9291 22.9666C22.1434 22.9666 22.2862 22.831 22.2862 22.6276V21.4412H23.5362C23.7505 21.4412 23.8933 21.3056 23.8933 21.1022C23.8933 20.8988 23.7148 20.7632 23.5362 20.7632Z" fill="#777980"/>
</svg>
