<svg width="24" height="24" viewBox="0 0 24 24" fill="none" xmlns="http://www.w3.org/2000/svg">
<path d="M20.0991 21.2372V23.6C20.0991 23.7061 20.057 23.8078 19.982 23.8828C19.907 23.9579 19.8052 24 19.6991 24C19.593 24 19.4913 23.9579 19.4163 23.8828C19.3413 23.8078 19.2991 23.7061 19.2991 23.6V21.2372C19.2991 19.3975 17.8104 17.9086 15.9705 17.9086C15.0999 17.9086 14.3101 17.4651 13.8576 16.7222C13.8024 16.6316 13.7855 16.5228 13.8105 16.4197C13.8355 16.3166 13.9005 16.2277 13.9911 16.1725C14.0817 16.1173 14.1905 16.1004 14.2936 16.1254C14.3967 16.1504 14.4856 16.2154 14.5408 16.306C14.8469 16.8085 15.3814 17.1085 15.9705 17.1085C18.2523 17.1085 20.0991 18.9551 20.0991 21.2372ZM13.4256 18.1398L11.9991 19.2441L9.57373 17.3664C10.0973 16.9458 10.4358 16.3341 10.4907 15.6393C10.9805 15.7835 11.4886 15.8565 11.9992 15.8562C14.9492 15.8562 17.3492 13.4562 17.3492 10.5062C17.3492 10.4751 17.3499 7.7056 17.3479 7.6746C17.3343 7.4582 17.1538 7.29995 16.9492 7.29995C16.8807 7.29995 16.3878 7.39745 15.9054 7.1072C15.153 6.65455 15.1491 5.66235 15.1492 5.6524C15.1511 5.3274 14.7836 5.1356 14.5181 5.32345C12.8705 6.4898 10.9413 7.2807 8.84643 7.57395C8.74608 7.58788 8.65475 7.63938 8.5909 7.71803C8.52704 7.79669 8.49541 7.89664 8.50239 7.99772C8.50937 8.09879 8.55445 8.19345 8.62851 8.26258C8.70258 8.3317 8.80012 8.37015 8.90143 8.37015C8.96443 8.37015 10.2614 8.2114 11.7358 7.6759C12.687 7.33017 13.597 6.88021 14.4492 6.33425C14.744 7.44055 15.5709 8.056 16.5492 8.11155V10.5062C16.5492 13.0151 14.5081 15.0562 11.9992 15.0562C9.49033 15.0562 7.44923 13.0151 7.44923 10.5062V7.7C7.44923 7.59391 7.40709 7.49217 7.33207 7.41716C7.25706 7.34214 7.15532 7.3 7.04923 7.3C6.94315 7.3 6.8414 7.34214 6.76639 7.41716C6.69137 7.49217 6.64923 7.59391 6.64923 7.7V10.5063C6.64923 12.6334 7.89713 14.4743 9.69923 15.336V15.4415C9.69923 16.3636 8.95203 17.1085 8.02788 17.1085C7.5233 17.1081 7.02292 17.2003 6.55158 17.3804L6.29333 17.1749C4.26678 15.5619 3.88723 12.7145 5.26928 10.6399C5.85828 9.7558 6.19923 8.6983 6.19923 7.56685V5.4002C6.19923 2.86365 8.26278 0.8 10.7992 0.8H13.1992C15.7357 0.8 17.7992 2.86355 17.7992 5.4V7.56665C17.7992 8.6672 18.1193 9.7277 18.7248 10.6335C19.8322 12.29 19.83 14.4642 18.6857 16.1245C18.6272 16.2119 18.6054 16.3188 18.6251 16.4222C18.6448 16.5255 18.7044 16.6169 18.791 16.6766C18.8776 16.7363 18.9843 16.7594 19.0878 16.7411C19.1914 16.7227 19.2836 16.6643 19.3444 16.5785C20.6764 14.6458 20.678 12.1158 19.3898 10.1888C18.8726 9.4151 18.5992 8.5084 18.5992 7.56665V5.4C18.5992 2.42245 16.1767 0 13.1992 0H10.7992C7.82163 0 5.39918 2.42255 5.39918 5.4002V7.56665C5.40008 8.50271 5.12312 9.41798 4.60338 10.1965C2.99063 12.6176 3.44768 15.9104 5.76973 17.7801C4.62903 18.5284 3.89918 19.7992 3.89918 21.2372V23.6C3.89918 23.7061 3.94132 23.8078 4.01634 23.8828C4.09135 23.9579 4.19309 24 4.29918 24C4.40527 24 4.50701 23.9579 4.58202 23.8828C4.65704 23.8078 4.69918 23.7061 4.69918 23.6V21.2372C4.69918 19.3974 6.18793 17.9086 8.02783 17.9086C8.29293 17.9086 8.55483 17.8666 8.80598 17.7837L11.7543 20.0663C11.8244 20.1205 11.9105 20.15 11.9992 20.15C12.0878 20.15 12.1739 20.1205 12.244 20.0663L13.9154 18.7723C13.9985 18.7071 14.0525 18.6117 14.0655 18.5068C14.0785 18.402 14.0495 18.2962 13.9848 18.2127C13.9201 18.1292 13.825 18.0746 13.7203 18.0609C13.6155 18.0473 13.5096 18.0756 13.4256 18.1398Z" fill="#777980"/>
</svg>
