<svg width="24" height="24" viewBox="0 0 24 24" fill="none" xmlns="http://www.w3.org/2000/svg">
<path d="M17.2501 2.625H6.74998C6.5429 2.625 6.375 2.7929 6.375 2.99998V12.75C6.375 12.9571 6.5429 13.125 6.74998 13.125H17.25C17.457 13.125 17.625 12.9571 17.625 12.75V2.99998C17.625 2.7929 17.457 2.625 17.25 2.625H17.2501ZM16.8751 12.375H7.12514V3.37495H16.8751V12.375V12.375Z" fill="#4A4C56"/>
<path d="M10.9849 11.1402C11.0582 11.2134 11.1541 11.25 11.2501 11.25C11.3461 11.25 11.442 11.2135 11.5152 11.1402L16.0152 6.64022C16.1616 6.49373 16.1616 6.25632 16.0152 6.10982L14.5152 4.60982C14.4449 4.53955 14.3495 4.5 14.2501 4.5C14.1506 4.5 14.0553 4.53955 13.9849 4.60982L11.2501 7.34467L10.0152 6.10982C9.86873 5.96342 9.63132 5.96342 9.48482 6.10982L7.98482 7.60982C7.83842 7.75632 7.83842 7.99373 7.98482 8.14022L10.9848 11.1402H10.9849ZM9.75007 6.90538L10.9849 8.14022C11.1314 8.28662 11.3688 8.28662 11.5153 8.14022L14.2502 5.40538L15.2198 6.37507L11.2501 10.3448L8.78038 7.87507L9.75007 6.90538ZM10.875 14.25H6.74998C6.5429 14.25 6.375 14.4179 6.375 14.6249C6.375 14.832 6.5429 14.9999 6.74998 14.9999H10.875C11.0821 14.9999 11.25 14.832 11.25 14.6249C11.25 14.4179 11.0821 14.25 10.875 14.25ZM17.2501 14.25H13.125C12.918 14.25 12.7501 14.4179 12.7501 14.6249C12.7501 14.832 12.918 14.9999 13.125 14.9999H17.2501C17.4571 14.9999 17.625 14.832 17.625 14.6249C17.625 14.4179 17.4571 14.25 17.2501 14.25Z" fill="#4A4C56"/>
<path d="M12 0C8.0802 0 4.125 0.927648 4.125 3V11.625C4.125 15.0841 6.34068 18.1038 9.63847 19.1392C9.69502 19.157 9.75497 19.1611 9.81341 19.1512C9.87184 19.1413 9.92711 19.1177 9.97466 19.0823C10.0222 19.0469 10.0607 19.0007 10.087 18.9476C10.1132 18.8944 10.1265 18.8358 10.1258 18.7765L10.125 18.75C10.125 17.7162 10.9662 16.8751 12 16.8751C13.0338 16.8751 13.875 17.7162 13.8748 18.7548L13.8742 18.7765C13.8735 18.8262 13.8828 18.8755 13.9013 18.9216C13.9199 18.9676 13.9474 19.0096 13.9823 19.0449C14.0172 19.0802 14.0588 19.1083 14.1046 19.1274C14.1504 19.1466 14.1996 19.1564 14.2493 19.1564C14.2869 19.1564 14.3247 19.1508 14.3616 19.1392C17.6594 18.1038 19.875 15.084 19.875 11.625V3C19.875 0.927648 15.9198 0 12 0ZM19.125 11.625C19.125 14.5969 17.3177 17.2103 14.5807 18.2683C14.3539 17.0502 13.2829 16.125 12 16.125C10.717 16.125 9.64615 17.0502 9.41921 18.2683C6.68225 17.2102 4.87495 14.5969 4.87495 11.625V3C4.87495 1.73827 8.00465 0.749952 12 0.749952C15.9953 0.749952 19.125 1.73827 19.125 3V11.625Z" fill="#4A4C56"/>
<path d="M12 17.4375C11.2763 17.4375 10.6875 18.0263 10.6875 18.75V23.625C10.6875 23.8321 10.8554 24 11.0625 24H12.9375C13.1445 24 13.3124 23.8321 13.3124 23.625V18.75C13.3124 18.0263 12.7237 17.4375 11.9999 17.4375H12ZM12.5625 23.25H11.4375V18.75C11.4375 18.4398 11.6897 18.1875 11.9999 18.1875C12.3101 18.1875 12.5624 18.4398 12.5624 18.75V23.25H12.5625Z" fill="#4A4C56"/>
</svg>
