<svg width="24" height="24" viewBox="0 0 24 24" fill="none" xmlns="http://www.w3.org/2000/svg">
<path d="M0.528188 16.7521L3.12019 21.2641C3.21619 21.4081 3.36019 21.5041 3.55219 21.5041H8.78419C8.97619 21.5041 9.12019 21.4081 9.21619 21.2641L11.6642 16.9921H14.5922C14.7842 16.9921 14.9282 16.8961 15.0242 16.7521L17.4722 12.4801H20.4002C20.5922 12.4801 20.7362 12.3841 20.8322 12.2401L23.4242 7.72809C23.5202 7.58409 23.5202 7.39209 23.4242 7.24809L20.8322 2.73609C20.7362 2.59209 20.5922 2.49609 20.4002 2.49609H15.2162C15.0242 2.49609 14.8802 2.59209 14.7842 2.73609L12.3362 7.00809H9.40819C9.21619 7.00809 9.07219 7.10409 8.97619 7.24809L6.52819 11.5201H3.55219C3.36019 11.5201 3.21619 11.6161 3.12019 11.7601L0.528188 16.2721C0.480188 16.4161 0.480188 16.6081 0.528188 16.7521ZM15.5042 3.45609H20.1602L22.5122 7.48809L20.1602 11.5201H15.5042L13.1522 7.48809L15.5042 3.45609ZM9.64819 7.96809H12.3362L14.7842 12.2401C14.8802 12.3841 15.0242 12.4801 15.2162 12.4801H16.3682L14.3042 16.0321H9.64819L7.34419 12.0001L9.64819 7.96809ZM3.84019 12.4801H6.52819L8.97619 16.7521C9.07219 16.8961 9.21619 16.9921 9.40819 16.9921H10.5602L8.49619 20.5441H3.84019L1.48819 16.5121L3.84019 12.4801Z" fill="#777980"/>
<path d="M4.12691 14.5442H4.41491C4.70291 14.5442 4.89491 14.3522 4.89491 14.0642C4.89491 13.7762 4.70291 13.5842 4.41491 13.5842H4.12691C3.83891 13.5842 3.64691 13.7762 3.64691 14.0642C3.64691 14.3522 3.83891 14.5442 4.12691 14.5442ZM6.47891 14.8802H6.76691C7.05491 14.8802 7.24691 14.6882 7.24691 14.4002C7.24691 14.1122 7.05491 13.9202 6.76691 13.9202H6.47891C6.19091 13.9202 5.99891 14.1122 5.99891 14.4002C5.99891 14.6882 6.23891 14.8802 6.47891 14.8802ZM11.0869 9.88816H11.3749C11.6629 9.88816 11.8549 9.69616 11.8549 9.40816C11.8549 9.12016 11.6629 8.92816 11.3749 8.92816H11.0869C10.7989 8.92816 10.6069 9.12016 10.6069 9.40816C10.6069 9.69616 10.8469 9.88816 11.0869 9.88816ZM9.11891 11.7602H9.40691C9.69491 11.7602 9.88691 11.5682 9.88691 11.2802C9.88691 10.9922 9.69491 10.8002 9.40691 10.8002H9.11891C8.83091 10.8002 8.63891 10.9922 8.63891 11.2802C8.63891 11.5682 8.87891 11.7602 9.11891 11.7602ZM11.4709 11.5202C11.1829 11.5202 10.9909 11.7122 10.9909 12.0002C10.9909 12.2882 11.1829 12.4802 11.4709 12.4802H11.7589C12.0469 12.4802 12.2389 12.2882 12.2389 12.0002C12.2389 11.7122 12.0469 11.5202 11.7589 11.5202H11.4709ZM10.9429 14.5442H11.2309C11.5189 14.5442 11.7109 14.3522 11.7109 14.0642C11.7109 13.7762 11.5189 13.5842 11.2309 13.5842H10.9429C10.6549 13.5842 10.4629 13.7762 10.4629 14.0642C10.4629 14.3522 10.7029 14.5442 10.9429 14.5442ZM13.5829 13.9202H13.8709C14.1589 13.9202 14.3509 13.7282 14.3509 13.4402C14.3509 13.1522 14.1589 12.9602 13.8709 12.9602H13.5829C13.2949 12.9602 13.1029 13.1522 13.1029 13.4402C13.1029 13.7282 13.3429 13.9202 13.5829 13.9202ZM5.47091 16.7522H5.75891C6.04691 16.7522 6.23891 16.5602 6.23891 16.2722C6.23891 15.9842 6.04691 15.7922 5.75891 15.7922H5.47091C5.18291 15.7922 4.99091 15.9842 4.99091 16.2722C4.99091 16.5602 5.18291 16.7522 5.47091 16.7522ZM4.12691 16.2722C4.12691 15.9842 3.93491 15.7922 3.64691 15.7922H3.35891C3.07091 15.7922 2.87891 15.9842 2.87891 16.2722C2.87891 16.5602 3.07091 16.7522 3.35891 16.7522H3.64691C3.88691 16.7522 4.12691 16.5122 4.12691 16.2722ZM6.86291 17.1362C6.86291 17.4242 7.05491 17.6162 7.34291 17.6162H7.63091C7.91891 17.6162 8.11091 17.4242 8.11091 17.1362C8.11091 16.8482 7.91891 16.6562 7.63091 16.6562H7.34291C7.05491 16.6562 6.86291 16.8482 6.86291 17.1362ZM5.47091 18.9602H5.18291C4.89491 18.9602 4.70291 19.1522 4.70291 19.4402C4.70291 19.7282 4.89491 19.9202 5.18291 19.9202H5.47091C5.75891 19.9202 5.95091 19.7282 5.95091 19.4402C5.95091 19.1522 5.71091 18.9602 5.47091 18.9602ZM7.48691 18.8642C7.48691 19.1522 7.67891 19.3442 7.96691 19.3442H8.25491C8.54291 19.3442 8.73491 19.1522 8.73491 18.8642C8.73491 18.5762 8.54291 18.3842 8.25491 18.3842H7.96691C7.72691 18.3842 7.48691 18.5762 7.48691 18.8642ZM5.32691 18.3362C5.61491 18.3362 5.80691 18.1442 5.80691 17.8562C5.80691 17.5682 5.61491 17.3762 5.32691 17.3762H5.03891C4.75091 17.3762 4.55891 17.5682 4.55891 17.8562C4.55891 18.1442 4.75091 18.3362 5.03891 18.3362H5.32691ZM18.0469 17.6162C18.0469 17.3762 17.8549 17.1842 17.6149 17.1362L15.4069 17.0402C15.1669 17.0402 14.9269 17.2322 14.9269 17.5202C14.9269 17.8082 15.1189 18.0002 15.4069 18.0002L16.5109 18.0482L13.5829 20.9762C13.3909 21.1682 13.3909 21.4562 13.5829 21.6482C13.7749 21.8402 14.0629 21.8402 14.2549 21.6482L17.0869 18.8162L17.0389 19.7282C17.0389 20.0162 17.2309 20.2082 17.5189 20.2082C17.7589 20.2082 17.9989 20.0162 17.9989 19.7282C17.9989 18.5762 18.0469 17.7602 18.0469 17.6162ZM10.9429 2.73616C10.9429 2.49616 10.7509 2.30416 10.5109 2.25616L8.30291 2.16016C8.06291 2.16016 7.82291 2.35216 7.82291 2.64016C7.82291 2.92816 8.01491 3.12016 8.30291 3.12016L9.40691 3.16816L6.47891 6.09616C6.28691 6.28816 6.28691 6.57616 6.47891 6.76816C6.67091 6.96016 6.95891 6.96016 7.15091 6.76816L9.98291 3.93616L9.93491 4.84816C9.93491 5.13616 10.1269 5.32816 10.4149 5.32816C10.6549 5.32816 10.8949 5.13616 10.8949 4.84816L10.9429 2.73616C10.9429 2.78416 10.9429 2.78416 10.9429 2.73616Z" fill="#777980"/>
</svg>
