<svg width="24" height="24" viewBox="0 0 24 24" fill="none" xmlns="http://www.w3.org/2000/svg">
<g clip-path="url(#clip0_5303_32205)">
<path d="M19.2801 0.472706C18.6479 -0.131527 17.6522 -0.131527 17.02 0.472706C16.396 1.09689 16.396 2.10864 17.02 2.73277L17.6902 3.4029L15.946 5.14671L14.8155 4.01627C14.1895 3.3949 13.1794 3.3949 12.5535 4.01627L12.2738 4.29596C11.7603 4.81274 11.6612 5.61136 12.0328 6.23797L10.8648 7.40559L10.8608 7.40797L10.858 7.41196L9.44907 8.81934H9.44669V8.82172L8.03413 10.2338L2.89929 15.3658C2.78724 15.4772 2.69837 15.6096 2.63781 15.7555C2.57725 15.9014 2.54621 16.0578 2.54647 16.2158V20.8071L0.122157 23.231C0.0839561 23.2678 0.0534802 23.3119 0.0325091 23.3607C0.011538 23.4094 0.000492 23.4619 1.60646e-05 23.515C-0.000459871 23.568 0.00964381 23.6207 0.0297371 23.6698C0.0498305 23.719 0.0795108 23.7636 0.117045 23.8011C0.154579 23.8387 0.199215 23.8683 0.248347 23.8884C0.297478 23.9085 0.35012 23.9186 0.4032 23.9182C0.456279 23.9177 0.508732 23.9066 0.557495 23.8857C0.606258 23.8647 0.650355 23.8342 0.68721 23.796L3.11314 21.3705H7.70126C7.85931 21.3708 8.01584 21.3397 8.16179 21.279C8.30774 21.2184 8.44023 21.1294 8.55158 21.0173L12.3924 17.1696V17.7463C12.3924 19.4341 12.3924 21.7458 17.2575 23.9119C17.3614 23.9575 17.4736 23.9811 17.5871 23.9811C17.7006 23.9811 17.8128 23.9575 17.9168 23.9119C22.7818 21.7442 22.7818 19.4325 22.7818 17.7463V12.4057C22.7815 12.2916 22.7569 12.179 22.7095 12.0753C22.6622 11.9715 22.5931 11.8792 22.5071 11.8043C22.4211 11.7295 22.32 11.6739 22.2107 11.6414C22.1015 11.6089 21.9865 11.6001 21.8735 11.6157C21.1709 11.723 20.4554 11.714 19.7557 11.5889L19.9411 11.4035C20.0903 11.2552 20.2087 11.0789 20.2895 10.8847C20.3703 10.6904 20.4119 10.4822 20.4119 10.2718C20.4119 10.0615 20.3703 9.85323 20.2895 9.65902C20.2087 9.46481 20.0903 9.28849 19.9411 9.14021L18.7715 7.97221L20.5157 6.2284L21.2521 6.96484C21.3995 7.1178 21.5759 7.23986 21.771 7.32388C21.9661 7.40789 22.176 7.45218 22.3884 7.45416C22.6008 7.45614 22.8114 7.41576 23.008 7.33539C23.2047 7.25501 23.3833 7.13626 23.5335 6.98606C23.6837 6.83587 23.8024 6.65724 23.8828 6.46062C23.9632 6.264 24.0036 6.05334 24.0016 5.84094C23.9996 5.62854 23.9553 5.41866 23.8713 5.22357C23.7873 5.02848 23.6652 4.8521 23.5123 4.70472L19.2801 0.472706ZM3.34566 16.6969L7.22166 20.5729H3.34566V16.6969ZM8.10873 20.3295L3.58698 15.8082L4.07686 15.3187L5.20811 16.4495C5.24496 16.4877 5.28906 16.5182 5.33782 16.5391C5.38658 16.5601 5.43904 16.5711 5.49212 16.5716C5.5452 16.5721 5.59784 16.562 5.64697 16.5419C5.6961 16.5218 5.74074 16.4921 5.77827 16.4546C5.81581 16.4171 5.84549 16.3724 5.86558 16.3233C5.88567 16.2742 5.89578 16.2215 5.8953 16.1684C5.89482 16.1154 5.88378 16.0629 5.86281 16.0141C5.84184 15.9654 5.81136 15.9213 5.77316 15.8844L4.64234 14.7536L5.48985 13.9065L6.6211 15.0369C6.69657 15.1091 6.79732 15.1489 6.90177 15.1477C7.00621 15.1466 7.10606 15.1046 7.17991 15.0307C7.25377 14.9569 7.29578 14.857 7.29693 14.7526C7.29809 14.6481 7.25831 14.5474 7.1861 14.4719L6.05528 13.3415L6.90322 12.4935L8.03366 13.6244C8.10913 13.6966 8.20988 13.7363 8.31433 13.7352C8.41877 13.734 8.51861 13.692 8.59247 13.6182C8.66633 13.5443 8.70834 13.4445 8.70949 13.34C8.71065 13.2356 8.67087 13.1348 8.59866 13.0593L7.46822 11.9289L8.31654 11.0814L9.44698 12.2115C9.52245 12.2837 9.6232 12.3235 9.72765 12.3223C9.83209 12.3211 9.93194 12.2791 10.0058 12.2053C10.0797 12.1314 10.1217 12.0316 10.1228 11.9271C10.124 11.8227 10.0842 11.7219 10.012 11.6465L8.88154 10.5164L9.72986 9.66889L10.8595 10.7989C10.9085 10.8511 10.9706 10.8891 11.0393 10.9091C11.1081 10.929 11.1809 10.9301 11.2502 10.9123C11.3195 10.8945 11.3828 10.8584 11.4334 10.8078C11.484 10.7572 11.5201 10.6939 11.5378 10.6246C11.5556 10.5553 11.5544 10.4824 11.5344 10.4137C11.5144 10.345 11.4763 10.2829 11.4241 10.2339L10.2945 9.10389L11.1424 8.25638L12.2725 9.38601C12.3475 9.46093 12.4491 9.503 12.5551 9.50296C12.6611 9.50292 12.7628 9.46077 12.8377 9.38579C12.9126 9.31081 12.9547 9.20914 12.9546 9.10314C12.9546 8.99714 12.9125 8.8955 12.8375 8.82057L11.7082 7.69133L12.557 6.84339L16.825 11.1154C15.7329 11.6515 14.4987 11.8267 13.3006 11.6157C13.1877 11.6001 13.0727 11.6089 12.9634 11.6415C12.8541 11.674 12.7531 11.7296 12.6671 11.8044C12.581 11.8793 12.512 11.9716 12.4646 12.0753C12.4172 12.179 12.3926 12.2917 12.3924 12.4057V16.0384L8.10873 20.3295ZM21.9825 12.4057V17.7462C21.9825 19.3777 21.9825 21.2266 17.5818 23.1806C13.1915 21.2246 13.1915 19.3761 13.1915 17.7462V16.1982L13.1879 12.4085C15.5427 12.7461 17.0532 11.9501 17.5834 11.5921C18.9008 12.3925 20.466 12.6819 21.9825 12.4057ZM19.611 10.2738C19.6109 10.3792 19.5899 10.4835 19.5493 10.5808C19.5087 10.678 19.4493 10.7663 19.3744 10.8405L19.0907 11.1242C19.0016 11.2108 18.8931 11.2749 18.7742 11.3112C18.5112 11.2087 18.2593 11.0797 18.0226 10.926C17.908 10.8523 17.7762 10.8097 17.6402 10.8025L14.6157 7.77559L14.6129 7.77159L12.8387 5.99741C12.7632 5.92357 12.7033 5.83542 12.6624 5.73812C12.6215 5.64082 12.6004 5.53633 12.6004 5.43078C12.6004 5.32523 12.6215 5.22074 12.6624 5.12344C12.7033 5.02614 12.7632 4.93799 12.8387 4.86416L13.1184 4.58446C13.4323 4.27406 13.9376 4.27406 14.2516 4.58446L15.6586 5.99141L15.6626 5.99702L17.923 8.25752L17.9279 8.26114L19.3744 9.70726C19.4492 9.78144 19.5086 9.86968 19.5493 9.96692C19.5899 10.0642 19.6108 10.1685 19.611 10.2738ZM18.2064 7.4072L16.511 5.71176L18.2552 3.96795L19.9506 5.66339L18.2064 7.4072ZM22.9471 6.39983C22.6309 6.70185 22.1332 6.70185 21.8171 6.39983L20.8261 5.40883C20.8192 5.39713 20.8117 5.3858 20.8037 5.37489C20.7937 5.36532 20.7805 5.36132 20.7697 5.35252L18.5664 3.1492C18.5576 3.13839 18.5536 3.12482 18.5437 3.11444C18.5323 3.10612 18.5206 3.09838 18.5085 3.09126L17.587 2.16782C17.5105 2.09415 17.4494 2.00596 17.4073 1.9084C17.3652 1.81084 17.343 1.70587 17.342 1.59962C17.341 1.49338 17.3612 1.388 17.4013 1.28965C17.4415 1.1913 17.5009 1.10195 17.576 1.02682C17.6512 0.951691 17.7405 0.892298 17.8389 0.852113C17.9372 0.811927 18.0426 0.791756 18.1489 0.792779C18.2551 0.793802 18.3601 0.815999 18.4576 0.858071C18.5552 0.900144 18.6434 0.961246 18.717 1.03781L22.9471 5.26987C23.2591 5.58189 23.2591 6.08776 22.9471 6.39983Z" fill="#777980"/>
<path fill-rule="evenodd" clip-rule="evenodd" d="M15.0743 17.7038C14.9988 17.6316 14.8981 17.5918 14.7936 17.593C14.6892 17.5942 14.5893 17.6362 14.5155 17.71C14.4416 17.7839 14.3996 17.8837 14.3985 17.9882C14.3973 18.0926 14.4371 18.1934 14.5093 18.2688L16.1076 19.8672C16.1802 19.9399 16.278 19.9818 16.3807 19.9842C16.4834 19.9867 16.5831 19.9495 16.6591 19.8804L21.0546 15.8845C21.1319 15.8129 21.1779 15.7137 21.1824 15.6083C21.187 15.503 21.1497 15.4002 21.0788 15.3222C21.0079 15.2442 20.909 15.1974 20.8037 15.1919C20.6984 15.1865 20.5953 15.2229 20.5167 15.2931L16.4033 19.0329L15.0743 17.7038Z" fill="#777980"/>
</g>
<defs>
<clipPath id="clip0_5303_32205">
<rect width="24" height="24" fill="white"/>
</clipPath>
</defs>
</svg>
