<svg width="24" height="24" viewBox="0 0 24 24" fill="none" xmlns="http://www.w3.org/2000/svg">
<path d="M15.3878 10.1066C16.4769 10.1066 17.3627 9.22081 17.3627 8.13169C17.3627 7.04257 16.4766 6.15649 15.3878 6.15649C14.2989 6.15649 13.4128 7.04257 13.4128 8.13169C13.4128 9.22081 14.2989 10.1066 15.3878 10.1066ZM15.3878 6.87649C15.7205 6.87687 16.0395 7.00924 16.2748 7.24456C16.5101 7.47988 16.6424 7.79893 16.6427 8.13169C16.6427 8.82361 16.0797 9.38665 15.3878 9.38665C14.6958 9.38665 14.1328 8.82361 14.1328 8.13169C14.1328 7.43977 14.6956 6.87649 15.3878 6.87649ZM9.05321 5.43649C10.1423 5.43649 11.0282 4.55065 11.0282 3.46153C11.0282 2.37241 10.1421 1.48633 9.05321 1.48633C7.96433 1.48633 7.07825 2.37241 7.07825 3.46153C7.07801 4.55065 7.96409 5.43649 9.05321 5.43649ZM9.05321 2.20633C9.38597 2.20671 9.70499 2.33908 9.94026 2.5744C10.1755 2.80972 10.3079 3.12877 10.3082 3.46153C10.3082 4.15345 9.74513 4.71649 9.05321 4.71649C8.36129 4.71649 7.79825 4.15345 7.79825 3.46153C7.79857 3.12877 7.93088 2.80972 8.16615 2.5744C8.40143 2.33908 8.72045 2.20671 9.05321 2.20633ZM17.9135 16.9668H15.7684V12.1668C15.7679 11.7134 15.5876 11.2788 15.267 10.9582C14.9464 10.6376 14.5118 10.4573 14.0584 10.4568C13.7447 10.4572 13.4372 10.5438 13.1694 10.7072C12.9017 10.8706 12.684 11.1044 12.5402 11.3832L10.037 7.27129C9.34937 6.12673 8.51321 5.88649 7.93313 5.88649C7.20281 5.88649 6.62609 6.26017 6.49745 6.35065C4.79057 7.30633 5.00921 15.5407 5.07041 17.1766V20.6527C5.07041 21.6782 5.90489 22.5127 6.93041 22.5127C7.95593 22.5127 8.79041 21.6782 8.79041 20.6527V10.6646L10.8309 13.4333C10.8414 13.4477 10.8534 13.4614 10.8659 13.4741C10.9854 13.5943 11.1276 13.6896 11.2842 13.7545C11.4408 13.8194 11.6087 13.8526 11.7782 13.8521C11.98 13.8521 12.1725 13.801 12.3482 13.7138V18.1519C12.3485 18.4661 12.4734 18.7674 12.6956 18.9896C12.9178 19.2118 13.2191 19.3367 13.5333 19.337H16.6533L16.6864 19.3366C16.7565 19.3366 16.8177 19.3428 16.8633 19.351V21.407C16.8633 21.9862 17.3342 22.457 17.9133 22.457C18.4924 22.457 18.9633 21.9862 18.9633 21.407V18.0168C18.963 17.7384 18.8524 17.4716 18.6556 17.2747C18.4587 17.0779 18.1919 16.9671 17.9135 16.9668ZM12.1814 12.965C11.9718 13.175 11.6092 13.1815 11.3927 12.9816L8.72033 9.35593C8.67538 9.29486 8.61229 9.24955 8.54006 9.22645C8.46784 9.20335 8.39017 9.20365 8.31812 9.2273C8.24608 9.25096 8.18334 9.29675 8.13886 9.35816C8.09438 9.41957 8.07042 9.49346 8.07041 9.56929V20.653C8.07041 21.2815 7.55897 21.793 6.93041 21.793C6.30185 21.793 5.79041 21.2815 5.79041 20.653L5.79017 17.1631C5.61641 12.5083 5.96561 7.42609 6.85073 6.97801C6.86897 6.96865 6.88769 6.95713 6.90401 6.94489C6.90857 6.94153 7.36697 6.60649 7.93313 6.60649C8.50673 6.60649 9.00689 6.95497 9.42089 7.64377L12.1283 12.0912C12.1432 12.1157 12.161 12.1382 12.1811 12.1586C12.4036 12.3811 12.4036 12.7428 12.1814 12.965ZM18.2435 21.4068C18.2435 21.5887 18.0954 21.7368 17.9135 21.7368C17.7316 21.7368 17.5835 21.5887 17.5835 21.4068V19.2168C17.5835 19.0759 17.5187 18.6163 16.6866 18.6163L13.5335 18.6168C13.4102 18.6167 13.292 18.5676 13.2048 18.4804C13.1176 18.3932 13.0685 18.275 13.0684 18.1517V12.1668C13.0684 11.621 13.5126 11.1768 14.0584 11.1768C14.6042 11.1768 15.0484 11.621 15.0484 12.1668V17.3268C15.0484 17.3741 15.0577 17.4209 15.0758 17.4646C15.0939 17.5083 15.1204 17.5479 15.1538 17.5814C15.1873 17.6148 15.227 17.6413 15.2706 17.6594C15.3143 17.6775 15.3611 17.6868 15.4084 17.6868H17.9135C18.0954 17.6868 18.2435 17.8349 18.2435 18.0168V21.4068Z" fill="#777980"/>
</svg>
