<svg width="24" height="25" viewBox="0 0 24 25" fill="none" xmlns="http://www.w3.org/2000/svg">
<path d="M18 24.4997C18.1061 24.4997 18.2078 24.4576 18.2828 24.3826C18.3579 24.3076 18.4 24.2058 18.4 24.0997V21.0637L21.0968 18.9501C21.4344 18.6813 21.8864 18.1541 22.0632 17.7349L23.9672 13.3085C23.9888 13.2585 24 13.2046 24 13.1501V9.29494C24 8.79734 23.436 8.43014 22.8912 8.36374C22.216 8.27654 21.3672 8.64374 21.0472 9.92134C20.8824 10.5845 20.8456 11.1453 20.8128 11.6397C20.805 11.7473 20.8395 11.8537 20.909 11.9362C20.9785 12.0187 21.0775 12.0708 21.1848 12.0813C21.4056 12.0965 21.5952 11.9453 21.6088 11.7253C21.6416 11.2309 21.676 10.7085 21.824 10.1141C21.9248 9.71254 22.1408 9.21894 22.6024 9.15734C22.9112 9.11334 23.1696 9.27894 23.212 9.35414L23.2 13.0677L21.3272 17.4221C21.2104 17.7013 20.8472 18.1261 20.6008 18.3229L17.7528 20.5549C17.7051 20.5922 17.6665 20.64 17.64 20.6944C17.6135 20.7489 17.5998 20.8088 17.6 20.8693V24.0997C17.6 24.2058 17.6421 24.3076 17.7172 24.3826C17.7922 24.4576 17.8939 24.4997 18 24.4997ZM6 24.4997C5.89391 24.4997 5.79217 24.4576 5.71716 24.3826C5.64214 24.3076 5.6 24.2058 5.6 24.0997V21.0637L2.9032 18.9501C2.5656 18.6813 2.1136 18.1541 1.9368 17.7349L0.0328 13.3085C0.0111499 13.2585 -1.35265e-05 13.2046 1.22999e-08 13.1501V9.29494C1.22999e-08 8.79734 0.564 8.43014 1.1088 8.36374C1.784 8.27654 2.6328 8.64374 2.9528 9.92134C3.1176 10.5845 3.1544 11.1453 3.1872 11.6397C3.19502 11.7473 3.1605 11.8537 3.09101 11.9362C3.02152 12.0187 2.92255 12.0708 2.8152 12.0813C2.5944 12.0965 2.4048 11.9453 2.3912 11.7253C2.3584 11.2309 2.324 10.7085 2.176 10.1141C2.0752 9.71254 1.8592 9.21894 1.3976 9.15734C1.0888 9.11334 0.8304 9.27894 0.788 9.35414L0.8 13.0677L2.6728 17.4221C2.7896 17.7013 3.1528 18.1261 3.3992 18.3229L6.2472 20.5549C6.29494 20.5922 6.33352 20.64 6.36001 20.6944C6.38649 20.7489 6.40017 20.8088 6.4 20.8693V24.0997C6.4 24.2058 6.35786 24.3076 6.28284 24.3826C6.20783 24.4576 6.10609 24.4997 6 24.4997ZM10.8 24.4997C10.6939 24.4997 10.5922 24.4576 10.5172 24.3826C10.4421 24.3076 10.4 24.2058 10.4 24.0997V19.7293C10.4 18.0437 9.236 16.5741 7.5688 16.1549C7.51785 16.1421 7.46992 16.1194 7.42775 16.0881C7.38558 16.0567 7.35 16.0174 7.32303 15.9723C7.29606 15.9272 7.27824 15.8772 7.27059 15.8252C7.26293 15.7733 7.26558 15.7203 7.2784 15.6693C7.29122 15.6184 7.31394 15.5705 7.34528 15.5283C7.37662 15.4861 7.41596 15.4505 7.46106 15.4236C7.50615 15.3966 7.55611 15.3788 7.60809 15.3711C7.66007 15.3635 7.71305 15.3661 7.764 15.3789C9.7864 15.8877 11.2 17.6765 11.2 19.7293V24.0997C11.2 24.2058 11.1579 24.3076 11.0828 24.3826C11.0078 24.4576 10.9061 24.4997 10.8 24.4997Z" fill="#777980"/>
<path d="M6.2111 17.6333C6.10497 17.6333 6.00316 17.5914 5.9279 17.5165L2.4183 14.0125C2.38105 13.9754 2.35149 13.9312 2.33133 13.8826C2.31116 13.834 2.30078 13.7819 2.30078 13.7293C2.30078 13.6767 2.31116 13.6246 2.33133 13.576C2.35149 13.5274 2.38105 13.4833 2.4183 13.4461C3.5183 12.3461 4.8743 12.4389 6.1375 13.7021L7.9415 15.5021C8.01661 15.5771 8.05884 15.6789 8.05892 15.785C8.05899 15.8912 8.0169 15.993 7.9419 16.0681C7.86689 16.1432 7.76512 16.1855 7.65898 16.1856C7.55283 16.1856 7.45101 16.1435 7.3759 16.0685L5.5719 14.2685C4.7519 13.4485 3.9847 13.2749 3.2911 13.7533L6.4927 16.9501C6.54792 17.0063 6.58542 17.0774 6.60053 17.1547C6.61564 17.232 6.6077 17.312 6.57769 17.3848C6.54768 17.4576 6.49693 17.52 6.43175 17.5642C6.36657 17.6084 6.28984 17.6324 6.2111 17.6333ZM13.2015 24.4997C13.0954 24.4997 12.9937 24.4576 12.9187 24.3826C12.8436 24.3076 12.8015 24.2058 12.8015 24.0997V19.7293C12.8015 17.6765 14.2151 15.8877 16.2375 15.3789C16.2885 15.3659 16.3415 15.3631 16.3936 15.3706C16.4456 15.3782 16.4957 15.396 16.5408 15.423C16.5859 15.45 16.6253 15.4856 16.6566 15.5279C16.6879 15.5702 16.7105 15.6183 16.7231 15.6693C16.7486 15.7722 16.7323 15.881 16.6779 15.972C16.6235 16.0629 16.5354 16.1287 16.4327 16.1549C14.7655 16.5741 13.6015 18.0437 13.6015 19.7293V24.0997C13.6015 24.2058 13.5594 24.3076 13.4843 24.3826C13.4093 24.4576 13.3076 24.4997 13.2015 24.4997Z" fill="#777980"/>
<path d="M17.7908 17.6333C17.712 17.6327 17.635 17.6089 17.5696 17.5648C17.5042 17.5208 17.4532 17.4584 17.423 17.3855C17.3928 17.3127 17.3847 17.2325 17.3997 17.1551C17.4148 17.0776 17.4523 17.0064 17.5076 16.9501L20.7092 13.7533C20.0164 13.2757 19.2484 13.4493 18.4284 14.2685L16.6244 16.0685C16.5493 16.1435 16.4475 16.1856 16.3413 16.1856C16.2352 16.1855 16.1334 16.1432 16.0584 16.0681C15.9834 15.993 15.9413 15.8912 15.9414 15.785C15.9415 15.6789 15.9837 15.5771 16.0588 15.5021L17.8628 13.7021C19.126 12.4389 20.482 12.3461 21.582 13.4461C21.6193 13.4833 21.6488 13.5274 21.669 13.576C21.6892 13.6246 21.6995 13.6767 21.6995 13.7293C21.6995 13.7819 21.6892 13.834 21.669 13.8826C21.6488 13.9312 21.6193 13.9754 21.582 14.0125L18.0724 17.5165C18.0356 17.5537 17.9917 17.5831 17.9433 17.6032C17.895 17.6232 17.8432 17.6335 17.7908 17.6333Z" fill="#777980"/>
<path d="M17.7904 17.633C17.7115 17.6324 17.6346 17.6086 17.5691 17.5645C17.5037 17.5205 17.4527 17.4581 17.4225 17.3852C17.3923 17.3124 17.3842 17.2322 17.3993 17.1548C17.4144 17.0774 17.4519 17.0061 17.5072 16.9498L20.7088 13.753C20.016 13.2754 19.248 13.449 18.428 14.2682L16.624 16.0682C16.5489 16.1432 16.4471 16.1853 16.3409 16.1853C16.2348 16.1852 16.133 16.143 16.058 16.0678C15.983 15.9927 15.9409 15.8909 15.941 15.7848C15.941 15.6786 15.9833 15.5768 16.0584 15.5018L17.8624 13.7018C19.1256 12.4386 20.4816 12.3458 21.5816 13.4458C21.6188 13.483 21.6484 13.5271 21.6686 13.5757C21.6887 13.6243 21.6991 13.6764 21.6991 13.729C21.6991 13.7817 21.6887 13.8338 21.6686 13.8823C21.6484 13.9309 21.6188 13.9751 21.5816 14.0122L18.072 17.5162C18.0351 17.5534 17.9913 17.5828 17.9429 17.6029C17.8946 17.6229 17.8427 17.6332 17.7904 17.633ZM13.7592 9.65864C13.5424 9.65864 13.3256 9.64104 13.1088 9.60504C12.0736 9.43304 11.1664 8.86744 10.5544 8.01144C9.94239 7.15544 9.70079 6.11384 9.87199 5.07864C9.93688 4.73716 10.1328 4.43464 10.4179 4.23579C10.703 4.03695 11.0546 3.95757 11.3975 4.01465C11.7403 4.07172 12.0473 4.26071 12.2526 4.54119C12.4579 4.82167 12.5452 5.17136 12.496 5.51544C12.448 5.80344 12.5024 6.10184 12.6464 6.35384C12.6726 6.39944 12.6895 6.44974 12.6962 6.50187C12.7029 6.55401 12.6993 6.60696 12.6856 6.65769C12.6718 6.70843 12.6482 6.75597 12.6161 6.79758C12.584 6.8392 12.544 6.87408 12.4984 6.90024C12.4528 6.9264 12.4025 6.94332 12.3504 6.95004C12.2982 6.95676 12.2453 6.95315 12.1945 6.9394C12.1438 6.92566 12.0963 6.90206 12.0547 6.86995C12.013 6.83783 11.9782 6.79784 11.952 6.75224C11.7156 6.33822 11.6286 5.85555 11.7056 5.38504C11.7285 5.24621 11.6955 5.10396 11.6138 4.98941C11.5321 4.87486 11.4083 4.79735 11.2696 4.77384C11.1309 4.75115 10.9888 4.78426 10.8745 4.86595C10.7601 4.94765 10.6827 5.07128 10.6592 5.20984C10.5224 6.03384 10.7152 6.86344 11.2032 7.54584C11.6912 8.22824 12.4144 8.67944 13.2384 8.81624C13.4648 8.85304 13.6944 8.86744 13.9184 8.85464C13.9709 8.85191 14.0234 8.85954 14.0729 8.8771C14.1224 8.89466 14.168 8.9218 14.207 8.95697C14.2461 8.99215 14.2778 9.03467 14.3004 9.0821C14.323 9.12954 14.3361 9.18096 14.3388 9.23344C14.3415 9.28592 14.3339 9.33842 14.3163 9.38794C14.2988 9.43747 14.2716 9.48306 14.2365 9.52209C14.2013 9.56113 14.1588 9.59286 14.1113 9.61546C14.0639 9.63807 14.0125 9.65111 13.96 9.65384C13.8931 9.65708 13.8262 9.65868 13.7592 9.65864Z" fill="#777980"/>
<path d="M11.4283 15.0596C11.0619 15.0596 10.6723 15.0244 10.2563 14.9476C9.1747 14.7476 8.2923 14.1252 7.7707 13.1932C7.4115 12.5524 7.1107 11.55 7.3131 10.0812C7.17428 10.1448 7.02923 10.1939 6.8803 10.2276C6.3259 10.3612 5.5307 10.1276 5.0683 9.69719C4.7179 9.36999 4.5651 8.94519 4.6395 8.50119C4.7043 8.11799 4.8931 7.81319 5.1859 7.61879C5.5195 7.39799 5.9203 7.36199 6.1995 7.37879C6.7579 5.90359 7.9363 5.18119 9.2771 5.52359C9.8683 5.67479 10.3491 6.04039 10.6667 6.58039C11.2451 7.56199 11.1939 8.89639 10.9531 9.81719C10.9424 9.87061 10.9209 9.92128 10.89 9.9661C10.859 10.0109 10.8192 10.0489 10.773 10.0778C10.7269 10.1067 10.6753 10.1259 10.6214 10.1341C10.5676 10.1424 10.5126 10.1396 10.4599 10.1258C10.4072 10.1121 10.3578 10.0877 10.3149 10.0542C10.2719 10.0207 10.2363 9.97876 10.2101 9.93099C10.1839 9.88321 10.1678 9.8306 10.1626 9.77636C10.1575 9.72213 10.1635 9.66742 10.1803 9.61559C10.3699 8.88439 10.4315 7.75799 9.9779 6.98679C9.8828 6.8169 9.75398 6.66823 9.59935 6.54992C9.44473 6.43161 9.26755 6.34615 9.0787 6.29879C8.0619 6.03719 7.2371 6.64999 6.8587 7.92999C6.82956 8.02805 6.76404 8.11126 6.67554 8.16257C6.58704 8.21389 6.48228 8.22942 6.3827 8.20599C6.2523 8.17639 5.8587 8.13319 5.6267 8.28839C5.5595 8.33399 5.4659 8.41879 5.4291 8.63559C5.4179 8.70039 5.3843 8.89879 5.6139 9.11319C5.9259 9.40359 6.4635 9.50599 6.6931 9.45079C6.9763 9.38279 7.3531 9.29159 7.7587 8.28279C7.8043 8.15159 7.8523 8.01799 7.9051 7.88199C7.94085 7.78206 8.01483 7.70042 8.11078 7.65503C8.20672 7.60965 8.31676 7.60424 8.4167 7.63999C8.51663 7.67574 8.59827 7.74973 8.64365 7.84567C8.68904 7.94161 8.69445 8.05166 8.6587 8.15159C8.6099 8.29479 8.5619 8.42759 8.5123 8.55159C7.9067 10.3076 7.8915 11.7716 8.4691 12.8036C8.8723 13.5236 9.5587 14.006 10.4027 14.162C13.9547 14.8164 15.2955 12.0452 16.0947 10.3876C16.3659 9.82439 16.5299 9.48519 16.7619 9.31959C16.8923 9.23672 17.0269 9.16062 17.1651 9.09159C18.1171 8.59159 20.3475 7.41959 20.5995 5.22359C20.8115 3.39079 19.4875 1.65159 17.6507 1.34679C17.2205 1.27433 16.7802 1.28778 16.3553 1.38637C15.9303 1.48495 15.529 1.66673 15.1747 1.92119C14.8191 2.17411 14.5171 2.49501 14.2863 2.86536C14.0555 3.2357 13.9003 3.64813 13.8299 4.07879C13.8091 4.24999 13.6779 4.44599 13.5091 4.47959C13.2508 4.52779 13.0139 4.6553 12.8314 4.84439C12.6489 5.03348 12.5299 5.27475 12.4909 5.53463C12.4519 5.79451 12.4949 6.06008 12.6139 6.29439C12.7328 6.52871 12.9219 6.72011 13.1547 6.84199C13.2482 6.89238 13.3178 6.97784 13.3482 7.07956C13.3787 7.18128 13.3675 7.29093 13.3171 7.38439C13.2667 7.47785 13.1813 7.54747 13.0795 7.57792C12.9778 7.60838 12.8682 7.59718 12.7747 7.54679C12.3934 7.34279 12.0855 7.02461 11.8941 6.63683C11.7027 6.24905 11.6375 5.81112 11.7075 5.38439C11.7703 5.018 11.9301 4.6751 12.1702 4.39134C12.4104 4.10758 12.7221 3.89331 13.0731 3.77079C13.283 2.76092 13.8672 1.86783 14.7083 1.27079C15.1478 0.954525 15.6457 0.728605 16.1732 0.606113C16.7007 0.483622 17.2472 0.466993 17.7811 0.557191C20.0315 0.930791 21.6523 3.06519 21.3939 5.31479C21.0923 7.93159 18.5091 9.28839 17.5363 9.79959C17.3907 9.87639 17.2819 9.93079 17.2267 9.96919C17.1491 10.0412 16.9635 10.426 16.8139 10.7348C16.1131 12.1892 14.7275 15.0596 11.4283 15.0596Z" fill="#777980"/>
</svg>
