<svg width="24" height="24" viewBox="0 0 24 24" fill="none" xmlns="http://www.w3.org/2000/svg">
<path d="M8.64903 19.2705H4.17866C4.07015 19.2705 3.96609 19.2274 3.88936 19.1507C3.81264 19.074 3.76953 18.9699 3.76953 18.8614V7.72952C3.76993 7.43515 3.88704 7.15295 4.09519 6.9448C4.30334 6.73665 4.58554 6.61954 4.87991 6.61914H7.90391C8.20991 6.61944 8.50328 6.74115 8.71962 6.95756C8.93596 7.17397 9.05758 7.46739 9.05778 7.77339V18.8614C9.05778 19.0875 8.87478 19.2705 8.64903 19.2705ZM4.58778 18.4526H8.23991V7.77339C8.23991 7.68431 8.20457 7.59886 8.14165 7.5358C8.07873 7.47274 7.99336 7.43721 7.90428 7.43702H4.87991C4.8024 7.43711 4.72809 7.46798 4.67332 7.52282C4.61855 7.57766 4.58778 7.652 4.58778 7.72952V18.4526Z" fill="#777980"/>
<path d="M7.53475 7.4377C7.48102 7.4377 7.42782 7.42712 7.37819 7.40656C7.32855 7.386 7.28345 7.35586 7.24546 7.31787C7.20746 7.27988 7.17733 7.23478 7.15677 7.18514C7.13621 7.13551 7.12563 7.0823 7.12563 7.02858C7.12563 6.63783 6.808 6.31983 6.41725 6.31983C6.0265 6.31983 5.70888 6.63783 5.70888 7.02858C5.70888 7.13708 5.66577 7.24115 5.58905 7.31787C5.51232 7.3946 5.40826 7.4377 5.29975 7.4377C5.19124 7.4377 5.08718 7.3946 5.01046 7.31787C4.93373 7.24115 4.89062 7.13708 4.89062 7.02858C4.89062 6.1867 5.57575 5.50195 6.41725 5.50195C7.25875 5.50195 7.94388 6.1867 7.94388 7.02858C7.94388 7.2547 7.7605 7.4377 7.53475 7.4377Z" fill="#777980"/>
<path d="M6.43256 6.32062C6.32406 6.32062 6.21999 6.27752 6.14327 6.2008C6.06654 6.12407 6.02344 6.02001 6.02344 5.9115V0.784125C6.02344 0.675618 6.06654 0.571556 6.14327 0.49483C6.21999 0.418104 6.32406 0.375 6.43256 0.375C6.54107 0.375 6.64513 0.418104 6.72186 0.49483C6.79858 0.571556 6.84169 0.675618 6.84169 0.784125V5.9115C6.84169 6.13762 6.65831 6.32062 6.43256 6.32062ZM8.64731 17.544H7.29956C7.19106 17.544 7.08699 17.5009 7.01027 17.4242C6.93354 17.3474 6.89044 17.2434 6.89044 17.1349C6.89044 17.0264 6.93354 16.9223 7.01027 16.8456C7.08699 16.7689 7.19106 16.7257 7.29956 16.7257H8.64731C8.75582 16.7257 8.85988 16.7689 8.93661 16.8456C9.01333 16.9223 9.05644 17.0264 9.05644 17.1349C9.05644 17.2434 9.01333 17.3474 8.93661 17.4242C8.85988 17.5009 8.75582 17.544 8.64731 17.544ZM8.64731 15.6375H6.78656C6.67806 15.6375 6.57399 15.5944 6.49727 15.5177C6.42054 15.4409 6.37744 15.3369 6.37744 15.2284C6.37744 15.1199 6.42054 15.0158 6.49727 14.9391C6.57399 14.8624 6.67806 14.8193 6.78656 14.8193H8.64731C8.75582 14.8193 8.85988 14.8624 8.93661 14.9391C9.01333 15.0158 9.05644 15.1199 9.05644 15.2284C9.05644 15.3369 9.01333 15.4409 8.93661 15.5177C8.85988 15.5944 8.75582 15.6375 8.64731 15.6375ZM8.64731 13.8626H6.77381C6.66531 13.8626 6.56124 13.8195 6.48452 13.7428C6.40779 13.6661 6.36469 13.562 6.36469 13.4535C6.36469 13.345 6.40779 13.2409 6.48452 13.1642C6.56124 13.0875 6.66531 13.0444 6.77381 13.0444H8.64731C8.75582 13.0444 8.85988 13.0875 8.93661 13.1642C9.01333 13.2409 9.05644 13.345 9.05644 13.4535C9.05644 13.562 9.01333 13.6661 8.93661 13.7428C8.85988 13.8195 8.75582 13.8626 8.64731 13.8626ZM8.64731 11.9561H6.78656C6.67806 11.9561 6.57399 11.913 6.49727 11.8363C6.42054 11.7596 6.37744 11.6555 6.37744 11.547C6.37744 11.4385 6.42054 11.3344 6.49727 11.2577C6.57399 11.181 6.67806 11.1379 6.78656 11.1379H8.64731C8.75582 11.1379 8.85988 11.181 8.93661 11.2577C9.01333 11.3344 9.05644 11.4385 9.05644 11.547C9.05644 11.6555 9.01333 11.7596 8.93661 11.8363C8.85988 11.913 8.75582 11.9561 8.64731 11.9561ZM8.64731 10.1812H7.13531C7.02681 10.1812 6.92274 10.1381 6.84602 10.0614C6.76929 9.98469 6.72619 9.88063 6.72619 9.77213C6.72619 9.66362 6.76929 9.55956 6.84602 9.48283C6.92274 9.4061 7.02681 9.363 7.13531 9.363H8.64731C8.75582 9.363 8.85988 9.4061 8.93661 9.48283C9.01333 9.55956 9.05644 9.66362 9.05644 9.77213C9.05644 9.88063 9.01333 9.98469 8.93661 10.0614C8.85988 10.1381 8.75582 10.1812 8.64731 10.1812ZM18.7386 23.625H12.9339C12.6549 23.6247 12.3873 23.5137 12.1899 23.3164C11.9926 23.119 11.8816 22.8515 11.8813 22.5724V13.8011C11.8819 13.2955 12.083 12.8107 12.4406 12.4532C12.7981 12.0956 13.2829 11.8945 13.7886 11.8939H18.5409C18.9893 11.8944 19.4191 12.0727 19.7362 12.3896C20.0532 12.7066 20.2316 13.1364 20.2322 13.5848V22.131C20.2317 22.527 20.0741 22.9067 19.794 23.1867C19.514 23.4667 19.1342 23.6242 18.7382 23.6246L18.7386 23.625ZM13.7889 12.7121C13.5002 12.7124 13.2234 12.8273 13.0192 13.0314C12.8151 13.2356 12.7002 13.5124 12.6999 13.8011V22.5724C12.6999 22.7017 12.8049 22.8071 12.9343 22.8071H18.7389C19.1113 22.8071 19.4143 22.5041 19.4143 22.1314V13.5851C19.4141 13.3537 19.3221 13.1317 19.1584 12.968C18.9947 12.8044 18.7728 12.7123 18.5413 12.7121H13.7889ZM18.9028 10.7437H12.9861C12.8776 10.7437 12.7735 10.7006 12.6968 10.6239C12.62 10.5472 12.5769 10.4431 12.5769 10.3346V8.59088C12.5773 8.35207 12.6724 8.12318 12.8414 7.95439C13.0103 7.7856 13.2393 7.6907 13.4781 7.6905H18.4112C18.65 7.6907 18.879 7.7856 19.0479 7.95439C19.2168 8.12318 19.3119 8.35207 19.3123 8.59088V10.3346C19.3123 10.5608 19.1286 10.7437 18.9028 10.7437ZM13.3952 9.92587H18.4937V8.59125C18.4937 8.56937 18.485 8.54839 18.4695 8.53291C18.4541 8.51744 18.4331 8.50875 18.4112 8.50875H13.4781C13.4562 8.50875 13.4352 8.51744 13.4197 8.53291C13.4043 8.54839 13.3956 8.56937 13.3956 8.59125L13.3952 9.92587Z" fill="#777980"/>
<path d="M14.1725 12.7128C14.064 12.7128 13.9599 12.6697 13.8832 12.593C13.8065 12.5162 13.7634 12.4122 13.7634 12.3037V10.4009C13.7634 10.2924 13.8065 10.1883 13.8832 10.1116C13.9599 10.0349 14.064 9.99178 14.1725 9.99178C14.281 9.99178 14.3851 10.0349 14.4618 10.1116C14.5385 10.1883 14.5816 10.2924 14.5816 10.4009V12.3037C14.5816 12.5298 14.3982 12.7128 14.1725 12.7128ZM17.624 12.7128C17.5155 12.7128 17.4114 12.6697 17.3347 12.593C17.258 12.5162 17.2149 12.4122 17.2149 12.3037V10.3349C17.2149 10.2264 17.258 10.1223 17.3347 10.0456C17.4114 9.96889 17.5155 9.92578 17.624 9.92578C17.7325 9.92578 17.8366 9.96889 17.9133 10.0456C17.99 10.1223 18.0331 10.2264 18.0331 10.3349V12.3037C18.0331 12.5298 17.8497 12.7128 17.624 12.7128ZM19.8264 20.7494H14.5175C14.409 20.7494 14.3049 20.7063 14.2282 20.6296C14.1515 20.5529 14.1084 20.4488 14.1084 20.3403V15.0318C14.1084 14.8057 14.2917 14.6227 14.5175 14.6227H19.8264C19.9349 14.6227 20.0389 14.6658 20.1157 14.7425C20.1924 14.8192 20.2355 14.9233 20.2355 15.0318C20.2355 15.1403 20.1924 15.2444 20.1157 15.3211C20.0389 15.3978 19.9349 15.4409 19.8264 15.4409H14.9266V19.9312H19.8264C19.9349 19.9312 20.0389 19.9743 20.1157 20.051C20.1924 20.1277 20.2355 20.2318 20.2355 20.3403C20.2355 20.4488 20.1924 20.5529 20.1157 20.6296C20.0389 20.7063 19.9349 20.7494 19.8264 20.7494ZM5.40913 22.9537C5.30062 22.9537 5.19656 22.9106 5.11983 22.8338C5.0431 22.7571 5 22.653 5 22.5445V18.8632C5 18.7546 5.0431 18.6506 5.11983 18.5739C5.19656 18.4971 5.30062 18.454 5.40913 18.454C5.51763 18.454 5.62169 18.4971 5.69842 18.5739C5.77515 18.6506 5.81825 18.7546 5.81825 18.8632V22.5445C5.81825 22.7707 5.63488 22.9537 5.40913 22.9537ZM7.42137 22.9537C7.31287 22.9537 7.20881 22.9106 7.13208 22.8338C7.05535 22.7571 7.01225 22.653 7.01225 22.5445V18.8632C7.01225 18.7546 7.05535 18.6506 7.13208 18.5739C7.20881 18.4971 7.31287 18.454 7.42137 18.454C7.52988 18.454 7.63394 18.4971 7.71067 18.5739C7.7874 18.6506 7.8305 18.7546 7.8305 18.8632V22.5445C7.8305 22.7707 7.64713 22.9537 7.42137 22.9537Z" fill="#777980"/>
<path d="M8.25419 22.953H4.57319C4.46468 22.953 4.36062 22.9099 4.28389 22.8332C4.20717 22.7565 4.16406 22.6524 4.16406 22.5439C4.16406 22.4354 4.20717 22.3313 4.28389 22.2546C4.36062 22.1779 4.46468 22.1348 4.57319 22.1348H8.25456C8.36307 22.1348 8.46713 22.1779 8.54386 22.2546C8.62058 22.3313 8.66369 22.4354 8.66369 22.5439C8.66369 22.6524 8.62058 22.7565 8.54386 22.8332C8.46713 22.9099 8.36269 22.953 8.25419 22.953Z" fill="#777980"/>
</svg>
