<svg width="24" height="24" viewBox="0 0 24 24" fill="none" xmlns="http://www.w3.org/2000/svg">
<g clip-path="url(#clip0_5303_32158)">
<path d="M18.6828 12.8137L17.0534 12.2308L17.0904 12.1225C17.1223 12.0294 17.1167 11.9276 17.0748 11.8386C17.0329 11.7496 16.958 11.6803 16.866 11.6455L15.3525 11.0726C15.267 11.0402 15.1727 11.0399 15.087 11.0716C15.0012 11.1033 14.9298 11.1649 14.8859 11.2451L14.7898 11.421L14.2486 11.2274V10.6439C14.9514 10.1097 15.4406 9.30912 15.5653 8.39389C16.4194 8.39075 17.1132 7.69513 17.1132 6.84036C17.1132 6.40653 16.9343 6.01391 16.6467 5.73177V4.49826C16.6465 2.01792 14.6286 0 12.1484 0C9.66801 0 7.65009 2.01792 7.65009 4.49826V5.73186C7.36247 6.014 7.1836 6.40658 7.1836 6.84041C7.1836 7.69517 7.87749 8.3908 8.73155 8.39394C8.85623 9.30917 9.34537 10.1097 10.0482 10.644V11.2278L8.94511 11.6224L8.86462 11.3767C8.8488 11.3284 8.82341 11.2838 8.78997 11.2455C8.75652 11.2072 8.7157 11.176 8.66995 11.1538C8.6242 11.1316 8.57445 11.1188 8.52365 11.1162C8.47286 11.1137 8.42207 11.1213 8.37431 11.1388L6.99328 11.6441C6.91647 11.6722 6.85082 11.7244 6.80612 11.7929C6.76143 11.8614 6.7401 11.9425 6.74532 12.0241L6.76932 12.4008L5.62369 12.8106C5.46563 12.8594 4.19532 13.2918 3.85866 14.6612C3.55421 15.8997 2.9019 20.6947 2.87462 20.8958C2.86829 20.9402 2.72706 21.9905 3.31885 22.6723C3.63737 23.0393 4.09013 23.2253 4.66454 23.2253H7.4596L7.48636 23.6453C7.49251 23.7414 7.53503 23.8316 7.60527 23.8975C7.67552 23.9634 7.76823 24 7.86455 24H12.4789C12.5286 24.0001 12.5779 23.9903 12.6239 23.9712C12.6699 23.9522 12.7117 23.9243 12.7468 23.8891C12.782 23.8539 12.8099 23.8121 12.829 23.7661C12.848 23.7202 12.8578 23.6709 12.8578 23.6211C12.8579 23.5715 12.8482 23.5224 12.8293 23.4765L12.7469 23.2253H13.1142C13.5549 23.7195 14.1753 24 14.8456 24H20.7625C20.8123 24.0001 20.8616 23.9903 20.9075 23.9712C20.9535 23.9522 20.9953 23.9243 21.0305 23.8891C21.0657 23.8539 21.0936 23.8121 21.1126 23.7661C21.1317 23.7202 21.1415 23.6709 21.1414 23.6211V16.2442C21.1414 13.7522 18.787 12.8522 18.6828 12.8137ZM4.66449 22.4673C4.31579 22.4673 4.06341 22.3725 3.89288 22.1774C3.58965 21.8303 3.59673 21.2106 3.62523 21C3.63193 20.9506 4.29966 16.0418 4.59455 14.842C4.83952 13.8455 5.80758 13.5465 5.84686 13.5348C5.85465 13.5326 5.86238 13.5301 5.87002 13.5273L6.81947 13.1877L7.21252 19.3516H6.61819C6.56843 19.3515 6.51915 19.3613 6.47317 19.3804C6.42719 19.3994 6.38542 19.4273 6.35023 19.4625C6.31504 19.4977 6.28713 19.5395 6.26809 19.5855C6.24905 19.6314 6.23925 19.6807 6.23925 19.7305C6.23925 19.831 6.27918 19.9274 6.35024 19.9984C6.42131 20.0695 6.51769 20.1094 6.61819 20.1094H7.26085L7.41122 22.4673H4.66449ZM15.9002 6.12177C15.9396 6.14061 15.9775 6.16264 16.0133 6.18763C16.0178 6.19072 16.0223 6.19368 16.0267 6.19691C16.2256 6.34171 16.3552 6.57617 16.3552 6.84041C16.3552 7.26645 16.0186 7.61544 15.5974 7.63527V6.04611C15.601 6.04625 15.6047 6.0463 15.6083 6.04658C15.6265 6.04771 15.6444 6.04944 15.6622 6.05178C15.668 6.05253 15.6738 6.053 15.6795 6.05385C15.7289 6.0613 15.7768 6.07325 15.8227 6.08943C15.8241 6.08994 15.8255 6.0905 15.8269 6.09097C15.8481 6.09857 15.8689 6.1071 15.8892 6.11638L15.9002 6.12177ZM8.69939 7.63527C8.27812 7.61548 7.94152 7.26645 7.94152 6.84041C7.94152 6.57603 8.07122 6.34157 8.27025 6.19677C8.27452 6.19368 8.27883 6.19082 8.28309 6.18782C8.30282 6.17401 8.32317 6.1611 8.34408 6.14914C8.36114 6.13939 8.37862 6.13025 8.39653 6.12172C8.40023 6.11994 8.40389 6.11811 8.40764 6.11643C8.42794 6.10714 8.44861 6.09866 8.4698 6.09111C8.47125 6.0906 8.47266 6.08994 8.47416 6.08943C8.52009 6.07325 8.568 6.06139 8.61731 6.05389C8.62308 6.05305 8.62894 6.05253 8.6347 6.05178C8.65247 6.04944 8.67042 6.04771 8.68851 6.04658C8.69217 6.04639 8.69583 6.04635 8.69948 6.04611V7.63527H8.69939ZM8.82708 4.87846C8.78694 4.91401 8.7548 4.95768 8.73279 5.00658C8.71078 5.05547 8.6994 5.10848 8.69939 5.1621V5.28716C8.69142 5.28735 8.6834 5.28796 8.67544 5.28829C8.66498 5.28871 8.65453 5.28913 8.64412 5.28974C8.62762 5.29075 8.61113 5.29201 8.59467 5.29354C8.58647 5.29429 8.57831 5.29494 8.57016 5.29588C8.55009 5.29799 8.53017 5.30061 8.5103 5.30352L8.49741 5.30535C8.46741 5.30999 8.43755 5.31515 8.40802 5.32152V4.49826C8.40802 2.43581 10.0859 0.75792 12.1484 0.75792C14.2107 0.75792 15.8886 2.43585 15.8886 4.49826V5.32143C15.859 5.31515 15.8292 5.30978 15.7992 5.3053C15.7949 5.30465 15.7907 5.30408 15.7864 5.30347C15.7664 5.30061 15.7465 5.29799 15.7265 5.29583C15.7183 5.29499 15.7101 5.29429 15.7019 5.29349C15.6751 5.29095 15.6481 5.2892 15.6212 5.28824C15.6132 5.28796 15.6052 5.2873 15.5972 5.28711V5.16205C15.5972 5.06629 15.561 4.97407 15.4957 4.90396L14.2893 3.60712C14.2254 3.53861 14.1385 3.49615 14.0451 3.48791C13.9518 3.47967 13.8588 3.50624 13.7839 3.56249C13.767 3.5752 12.0715 4.82887 9.83826 4.82887C9.59906 4.82887 9.35878 4.81438 9.12408 4.78588C9.07084 4.77943 9.01684 4.78435 8.96564 4.80031C8.91445 4.81627 8.86722 4.8429 8.82708 4.87846ZM9.45726 7.93217V5.5761C9.58401 5.58327 9.71128 5.58693 9.83821 5.58693C11.794 5.58693 13.341 4.75077 13.9556 4.36115L14.8394 5.31121V7.93217C14.8394 9.07208 14.1151 10.046 13.1026 10.418L13.1 10.419C13.019 10.4487 12.9365 10.4743 12.853 10.4959L12.8526 10.496C12.8061 10.5079 12.7593 10.5185 12.7122 10.5278C12.6772 10.5348 12.6421 10.5411 12.6066 10.5467C12.6014 10.5475 12.5962 10.5485 12.5909 10.5493C12.5512 10.5553 12.5112 10.5604 12.4709 10.5646C12.4616 10.5656 12.4523 10.5663 12.443 10.5672C12.4114 10.5702 12.3798 10.5726 12.3481 10.5744C12.3367 10.5751 12.3253 10.5758 12.3139 10.5763C12.2735 10.5781 12.233 10.5794 12.1922 10.5794H12.1045C12.0637 10.5794 12.0232 10.5781 11.9828 10.5763C11.9714 10.5758 11.96 10.5751 11.9486 10.5744C11.9169 10.5726 11.8853 10.5702 11.8537 10.5672C11.8444 10.5664 11.835 10.5656 11.8257 10.5646C11.7856 10.5604 11.7456 10.5553 11.7058 10.5493C11.7004 10.5485 11.6951 10.5475 11.6897 10.5466C11.6461 10.5397 11.6026 10.5317 11.5594 10.5226C11.5208 10.5146 11.4825 10.5057 11.4443 10.496L11.4434 10.4958C11.3601 10.4743 11.2779 10.4487 11.197 10.4191L11.1936 10.4179C10.1814 10.0458 9.45726 9.07198 9.45726 7.93217ZM13.4906 11.0807V11.8125L12.1483 12.837L10.806 11.8125V11.0807C10.8451 11.0968 10.8847 11.1115 10.9243 11.1261C10.9287 11.1278 10.9329 11.1295 10.9373 11.1311C10.9815 11.1473 11.0261 11.1622 11.0709 11.1765C11.0799 11.1793 11.0887 11.1825 11.0978 11.1853C11.1387 11.1979 11.1799 11.2094 11.2212 11.2204C11.2346 11.2241 11.2477 11.228 11.2611 11.2315C11.299 11.2412 11.3373 11.2496 11.3756 11.258C11.3926 11.2617 11.4095 11.2659 11.4265 11.2694C11.4623 11.2766 11.4985 11.2826 11.5346 11.2887C11.5543 11.2921 11.5739 11.296 11.5938 11.299C11.6289 11.3043 11.6641 11.3082 11.6994 11.3124C11.7205 11.3149 11.7414 11.318 11.7626 11.3202C11.8002 11.3239 11.838 11.3263 11.8759 11.3288C11.8949 11.3301 11.9136 11.3321 11.9327 11.3329C11.9898 11.3358 12.047 11.3373 12.1044 11.3373H12.1921C12.2493 11.3373 12.3066 11.3358 12.3638 11.3329C12.383 11.332 12.4019 11.33 12.4209 11.3288C12.4586 11.3262 12.4964 11.3239 12.5339 11.3201C12.5552 11.318 12.5762 11.3149 12.5974 11.3124C12.6326 11.3082 12.6677 11.3042 12.7026 11.299C12.7226 11.2959 12.7423 11.292 12.7622 11.2886C12.7982 11.2826 12.8342 11.2766 12.8699 11.2693C12.8871 11.2659 12.9039 11.2617 12.9209 11.2579C12.9593 11.2497 12.9975 11.2409 13.0355 11.2314C13.0489 11.228 13.062 11.224 13.0753 11.2204C13.1167 11.2094 13.1579 11.1979 13.1988 11.1853C13.2078 11.1826 13.2167 11.1794 13.2256 11.1765C13.2705 11.1623 13.315 11.1472 13.3593 11.1311C13.3637 11.1296 13.3679 11.1278 13.3723 11.1261C13.412 11.1115 13.4516 11.0968 13.4906 11.0807ZM10.05 12.032C10.0544 12.0847 10.0697 12.1358 10.0951 12.1822C10.1204 12.2286 10.1552 12.2691 10.1972 12.3012L11.9184 13.6149C11.9863 13.6667 12.0674 13.6926 12.1483 13.6926C12.2293 13.6926 12.3104 13.6667 12.3782 13.6149L14.0994 12.3012C14.1414 12.269 14.1762 12.2285 14.2015 12.1821C14.2269 12.1357 14.2422 12.0845 14.2466 12.0318L14.4213 12.0942L11.0932 18.1783L9.18112 12.3429L10.05 12.032ZM8.22009 23.2421L7.51969 12.2585L8.2665 11.9853L10.7552 19.5805L10.843 19.8485V19.8485L11.9549 23.2421H8.22009ZM12.4772 22.4022L11.726 20.1094H12.4772V22.4022ZM14.8455 23.2421C14.3495 23.2421 13.8935 23.0146 13.5942 22.6181C13.5935 22.6171 13.5927 22.6163 13.592 22.6154C13.5787 22.5982 13.5639 22.5821 13.5478 22.5674C13.5448 22.5645 13.5418 22.5617 13.5387 22.559C13.5327 22.5538 13.5265 22.549 13.5202 22.5443C13.5165 22.5415 13.513 22.5386 13.5092 22.536C13.5029 22.5316 13.4964 22.5276 13.4899 22.5235C13.486 22.5211 13.4821 22.5187 13.4782 22.5165C13.4713 22.5126 13.4642 22.509 13.4571 22.5056C13.4533 22.5038 13.4496 22.5018 13.4458 22.5001C13.4383 22.4969 13.4307 22.4939 13.423 22.4911C13.4192 22.4897 13.4155 22.4882 13.4116 22.487C13.404 22.4845 13.3963 22.4823 13.3886 22.4803C13.3843 22.4792 13.3801 22.478 13.3758 22.477C13.3687 22.4755 13.3614 22.4741 13.3542 22.473C13.3489 22.4721 13.3437 22.4712 13.3384 22.4705C13.3255 22.4691 13.3126 22.4681 13.2997 22.4678C13.2971 22.4677 13.2946 22.4673 13.292 22.4673H13.2351V20.1094H14.8455C15.7092 20.1094 16.4119 20.812 16.4119 21.6757C16.4119 22.5394 15.7093 23.2421 14.8455 23.2421ZM18.2675 23.2421V17.9621C18.2675 17.9123 18.2577 17.863 18.2387 17.8171C18.2196 17.7711 18.1917 17.7293 18.1565 17.6941C18.1213 17.6589 18.0796 17.631 18.0336 17.612C17.9876 17.5929 17.9383 17.5831 17.8886 17.5832C17.8388 17.5831 17.7895 17.5929 17.7435 17.612C17.6976 17.631 17.6558 17.6589 17.6206 17.6941C17.5854 17.7293 17.5575 17.7711 17.5384 17.8171C17.5194 17.863 17.5096 17.9123 17.5096 17.9621V23.2421H16.5611C16.9389 22.8286 17.1697 22.2787 17.1697 21.6757C17.1697 20.3941 16.1271 19.3516 14.8455 19.3516H14.6178L15.5919 16.5041C15.6244 16.409 15.6178 16.3049 15.5736 16.2147C15.5293 16.1244 15.4511 16.0555 15.356 16.0229C15.158 15.9554 14.9425 16.0608 14.8747 16.2588L13.8168 19.3516H11.4777L11.4371 19.2277L11.4168 19.1659L15.3926 11.8982L16.2546 12.2245L15.2212 15.2459C15.2051 15.293 15.1984 15.3428 15.2016 15.3924C15.2047 15.4421 15.2176 15.4907 15.2395 15.5353C15.2614 15.58 15.2919 15.6199 15.3293 15.6528C15.3666 15.6857 15.4101 15.7109 15.4572 15.727C15.5042 15.7431 15.554 15.7498 15.6037 15.7467C15.6534 15.7435 15.7019 15.7306 15.7466 15.7087C15.7913 15.6868 15.8312 15.6563 15.8641 15.619C15.897 15.5816 15.9222 15.5382 15.9383 15.4911L16.8081 12.948L18.4245 13.5262C18.5277 13.5654 20.3835 14.2993 20.3835 16.2441V23.242H18.2675V23.2421Z" fill="#777980"/>
</g>
<defs>
<clipPath id="clip0_5303_32158">
<rect width="24" height="24" fill="white"/>
</clipPath>
</defs>
</svg>
