<svg width="24" height="24" viewBox="0 0 24 24" fill="none" xmlns="http://www.w3.org/2000/svg">
<path d="M10.9994 18.0003C10.7614 18.0003 10.4754 17.8932 10.2874 17.7022L6.2874 13.6403C5.8994 13.2463 5.9044 12.6133 6.2984 12.2263C6.6914 11.8393 7.3244 11.8433 7.7124 12.2373L11.0054 15.5812L20.2934 6.29426C20.6844 5.90326 21.3164 5.90326 21.7074 6.29426C22.0984 6.68426 22.0984 7.31826 21.7074 7.70826L11.7074 17.7083C11.5194 17.8953 11.2644 18.0003 10.9994 18.0003ZM11.7064 13.7073L17.7064 7.70725C18.0974 7.31725 18.0974 6.68325 17.7064 6.29325C17.3154 5.90225 16.6834 5.90225 16.2924 6.29325L10.2924 12.2933C9.90141 12.6832 9.90141 13.3173 10.2924 13.7073C10.4874 13.9023 10.7434 14.0003 10.9994 14.0003C11.2554 14.0003 11.5114 13.9023 11.7064 13.7073ZM7.7014 17.7123C8.0954 17.3243 8.0994 16.6913 7.7124 16.2983L3.7124 12.2383C3.3244 11.8453 2.6914 11.8402 2.2984 12.2282C1.9044 12.6162 1.9004 13.2492 2.2874 13.6422L6.2874 17.7022C6.4824 17.9002 6.74141 18.0003 6.99941 18.0003C7.25241 18.0003 7.5064 17.9043 7.7014 17.7123Z" fill="#2E397A"/>
</svg>
