<svg width="1600" height="735" viewBox="0 0 1600 735" fill="none" xmlns="http://www.w3.org/2000/svg">
<g clip-path="url(#clip0_5303_26218)">
<g opacity="0.1">
<path d="M-28.9102 974C7.82453 888.675 152.12 810.94 300.513 796.371C370.811 789.478 443.091 794.888 509.953 774.821C582.366 753.01 627.954 706.858 650.285 663.149C672.617 619.439 678.167 575.206 703.009 531.671C727.851 488.137 779.121 442.682 853.647 424.884C905.842 412.409 960.416 415.549 1013.27 405.691C1085.82 392.168 1145.94 355.961 1191.66 318.446C1237.25 280.931 1273.59 240.188 1324.99 204.942C1400.84 152.944 1508.66 115.603 1616.62 104" stroke="#8CC640" stroke-miterlimit="10"/>
<path d="M-41.8594 956.028C-14.3744 896.179 65.0412 840.168 161.503 806.753C201.805 792.794 245.279 782.761 289.149 778.311C333.019 773.862 377.683 774.298 420.892 771.07C447.32 769.151 473.087 765.836 498.061 759.118C541.006 747.514 574.57 727.623 600.337 703.979C617.383 688.363 630.597 671.175 640.375 654.25C652.928 632.352 660.989 609.93 669.446 587.595C677.374 566.744 685.567 545.805 698.252 525.129C709.22 507.331 724.548 489.271 744.104 473.044C771.854 450.098 808.06 430.905 851.666 421.046C880.472 414.59 909.807 412.758 939.274 410.926C963.455 409.443 987.505 407.959 1011.29 404.033C1054.37 396.792 1093.08 382.048 1127.31 363.727C1150.7 351.251 1171.97 337.117 1191 322.635C1218.88 301.434 1243.46 278.925 1270.02 256.852C1287.99 241.934 1306.62 227.102 1327.76 213.143C1358.42 192.815 1393.57 174.494 1431.49 159.051C1489.37 135.321 1553.46 118.134 1617.41 109.846" stroke="#8CC640" stroke-miterlimit="10"/>
<path d="M-54.8125 938.143C-25.7419 878.643 53.8059 822.894 150.135 789.217C190.438 775.084 233.647 764.876 277.65 760.252C321.52 755.628 366.579 755.89 409.657 753.36C436.085 751.789 461.587 749.259 486.165 743.414C528.582 733.294 561.617 715.409 588.309 693.161C605.883 678.504 619.758 661.928 630.329 645.439C643.939 624.151 652.925 602.253 662.307 580.267C671.028 559.765 680.013 539.088 693.359 518.76C704.855 501.224 720.712 483.426 740.797 467.548C769.339 445.126 805.942 426.63 849.68 417.382C878.619 411.275 908.086 409.705 937.42 408.309C961.602 407.175 985.651 406.04 1009.44 402.463C1052.51 396.095 1091.23 382.572 1125.85 365.472C1149.37 353.781 1171.04 340.607 1190.47 326.91C1219.01 306.931 1244.38 285.382 1271.73 264.007C1290.23 249.524 1309.39 235.129 1330.67 221.344C1361.72 201.365 1397.13 183.044 1434.92 167.34C1492.67 143.261 1555.57 125.201 1618.6 115.691" stroke="#8CC640" stroke-miterlimit="10"/>
<path d="M-67.7617 920.169C-36.9733 860.93 42.7066 805.53 138.772 771.592C178.942 757.371 222.152 746.902 266.154 742.104C310.156 737.305 355.348 737.48 398.293 735.648C424.853 734.513 449.96 732.681 474.141 727.708C515.897 719.071 548.668 703.28 576.285 682.254C594.388 668.47 608.923 652.504 620.287 636.538C634.822 615.949 644.997 594.399 655.04 572.763C664.686 552.522 674.332 532.194 688.339 512.128C700.495 494.766 716.881 477.405 737.362 461.875C766.565 439.977 803.696 422.266 847.566 413.542C876.505 407.871 906.104 406.562 935.439 405.428C959.62 404.556 983.67 403.77 1007.32 400.717C1050.27 395.22 1089.25 382.919 1124 367.128C1147.79 356.31 1169.72 344.008 1189.67 331.096C1218.75 312.251 1245.04 291.749 1273.19 271.072C1292.21 257.113 1311.77 243.066 1333.31 229.456C1364.89 209.739 1400.44 191.505 1437.96 175.627C1495.44 151.198 1557.42 132.179 1619.26 121.535" stroke="#8CC640" stroke-miterlimit="10"/>
<path d="M-80.7109 902.197C-48.3368 843.22 31.4752 788.169 127.54 753.969C167.711 739.661 210.788 729.017 254.923 724.044C298.925 719.072 344.513 719.246 387.194 717.937C413.754 717.152 438.596 716.018 462.381 711.918C503.476 704.851 535.983 691.066 564.393 671.349C583.024 658.524 598.352 643.169 610.377 627.552C625.837 607.573 636.937 586.46 648.037 565.26C658.343 545.368 668.915 525.215 683.582 505.585C696.267 488.485 713.181 471.385 734.191 456.292C764.055 434.917 801.714 417.904 845.717 409.703C874.787 404.381 904.387 403.422 933.589 402.637C957.771 402.026 981.688 401.677 1005.34 399.06C1048.29 394.436 1087.27 383.356 1122.42 368.786C1146.33 358.84 1168.66 347.411 1189.15 335.284C1218.88 317.661 1245.83 298.118 1274.77 278.139C1294.2 264.616 1314.28 250.919 1336.22 237.658C1368.33 218.289 1404 199.968 1441.27 183.915C1498.62 159.051 1559.53 139.246 1620.32 127.381" stroke="#8CC640" stroke-miterlimit="10"/>
<path d="M-93.6602 884.226C-59.7004 825.511 20.2438 770.808 116.177 736.347C156.215 721.952 199.292 711.046 243.427 705.899C287.561 700.751 333.281 700.838 375.83 700.228C402.39 699.879 426.968 699.443 450.489 696.215C491.056 690.631 523.033 678.853 552.5 660.532C571.528 648.579 587.649 633.922 600.467 618.742C616.984 599.461 629.141 578.697 641.034 557.932C652.265 538.39 663.497 518.498 678.825 499.13C692.171 482.292 709.614 465.453 731.02 450.709C761.677 429.858 799.733 413.543 843.867 405.953C873.07 400.98 902.669 400.369 931.872 399.933C956.053 399.671 979.971 399.584 1003.62 397.49C1046.44 393.739 1085.55 383.88 1120.96 370.532C1145.14 361.458 1167.74 350.902 1188.62 339.56C1219.01 323.071 1246.76 304.575 1276.49 285.294C1296.44 272.295 1316.93 258.946 1339.12 245.86C1371.76 226.753 1407.57 208.519 1444.57 192.292C1501.66 167.078 1561.52 146.401 1621.37 133.314" stroke="#8CC640" stroke-miterlimit="10"/>
<path d="M-106.742 866.341C-71.1968 807.974 8.87959 753.534 104.813 718.811C144.851 704.328 187.664 693.161 231.93 687.926C276.065 682.691 322.182 682.168 364.466 682.604C391.026 682.953 415.34 682.953 438.464 680.598C478.37 676.497 509.951 666.813 540.343 649.713C559.9 638.72 576.682 624.587 590.292 609.93C607.734 591.347 620.948 571.019 633.634 550.516C645.658 531.323 657.683 511.693 673.804 492.673C687.811 476.097 705.649 459.521 727.584 445.212C758.901 424.797 797.486 409.268 841.753 402.288C871.088 397.752 900.687 397.228 929.89 397.315C954.071 397.403 977.988 397.577 1001.51 395.919C1044.32 392.953 1083.44 384.403 1119.24 372.363C1143.56 364.163 1166.68 354.478 1187.96 343.922C1218.88 328.567 1247.55 311.118 1278.08 292.622C1298.56 280.146 1319.44 267.06 1341.9 254.235C1374.93 235.39 1411.01 217.156 1447.74 200.754C1504.69 175.104 1563.5 153.555 1622.17 139.334" stroke="#8CC640" stroke-miterlimit="10"/>
<path d="M-119.691 848.369C-82.5603 790.264 -2.2197 736.172 93.449 701.188C133.355 686.618 176.168 675.189 220.567 669.78C264.834 664.37 311.214 664.196 353.235 664.894C379.927 665.33 403.712 666.377 426.572 664.807C465.817 662.189 497.002 654.599 528.319 638.808C548.404 628.688 565.714 615.252 580.382 601.031C598.749 583.059 613.02 563.167 626.63 543.101C639.448 524.169 652.398 504.888 669.047 486.13C683.582 469.728 701.95 453.501 724.413 439.542C756.391 419.65 795.504 404.819 839.903 398.363C869.37 394.175 899.101 394.088 928.172 394.437C952.353 394.698 976.139 395.396 999.659 394.175C1042.34 392.081 1081.59 384.753 1117.66 373.934C1142.11 366.606 1165.63 357.794 1187.43 348.023C1219.01 333.889 1248.35 317.4 1279.66 299.602C1300.67 287.562 1321.95 274.912 1344.67 262.349C1378.24 243.853 1414.44 225.619 1450.91 209.043C1507.73 183.044 1565.48 160.622 1623.09 145.18" stroke="#8CC640" stroke-miterlimit="10"/>
<path d="M-132.641 830.397C-93.7917 772.554 -13.4511 718.899 82.0855 683.478C121.859 668.734 164.673 657.217 209.071 651.547C253.47 645.963 299.983 645.701 341.871 647.097C368.563 647.97 392.084 649.627 414.548 649.016C453.264 647.97 483.921 642.386 516.295 627.816C536.776 618.655 554.879 605.743 570.34 592.046C589.632 574.772 604.96 555.229 619.496 535.599C633.238 517.016 646.848 497.997 664.159 479.588C679.355 463.448 698.25 447.569 721.111 433.959C753.881 414.591 793.523 400.457 837.922 394.612C867.521 390.773 897.252 390.948 926.191 391.733C950.372 392.344 974.157 393.303 997.546 392.605C1040.23 391.297 1079.34 385.277 1115.94 375.68C1140.65 369.224 1164.44 361.285 1186.64 352.211C1218.75 339.212 1249.01 323.77 1281.12 306.67C1302.66 295.154 1324.33 282.765 1347.45 270.463C1381.41 252.229 1417.75 234.083 1454.09 217.244C1510.64 190.897 1567.33 167.602 1623.89 150.852" stroke="#8CC640" stroke-miterlimit="10"/>
<path d="M-145.594 812.423C-105.159 754.841 -24.6864 701.535 70.8502 665.852C110.624 651.021 153.305 639.243 197.704 633.485C242.103 627.727 289.012 627.465 330.636 629.384C357.328 630.606 380.584 633.048 402.652 633.31C440.708 633.746 470.968 630.169 504.267 616.995C525.145 608.707 544.041 596.493 560.294 583.145C580.511 566.481 596.896 547.375 612.356 528.094C626.892 509.86 641.295 491.102 659.266 473.042C675.123 457.164 694.415 441.547 717.804 428.373C751.235 409.529 791.405 396.093 835.936 390.771C865.535 387.281 895.399 387.805 924.337 388.852C948.519 389.724 972.304 391.033 995.692 390.858C1038.37 390.422 1077.49 385.624 1114.35 377.248C1139.2 371.665 1163.24 364.598 1186.1 356.31C1218.88 344.532 1249.93 330.049 1282.7 313.647C1304.77 302.567 1326.97 290.615 1350.22 278.488C1384.71 260.603 1421.18 242.369 1457.39 225.443C1513.81 198.659 1569.44 174.493 1624.94 156.607" stroke="#8CC640" stroke-miterlimit="10"/>
<path d="M-158.543 794.451C-116.523 737.218 -35.9178 684.174 59.4867 648.229C99.1284 633.311 141.677 621.271 186.34 615.338C230.871 609.406 277.913 609.057 319.404 611.674C346.096 613.332 369.089 616.472 390.892 617.519C428.419 619.439 458.018 617.956 492.375 606.09C513.649 598.762 533.338 587.071 550.384 574.246C571.526 558.28 588.968 539.523 605.221 520.678C620.682 502.793 635.746 484.297 654.377 466.499C670.762 450.883 690.583 435.528 714.5 422.703C748.592 404.294 789.291 391.644 833.822 386.933C863.554 383.792 893.417 384.664 922.355 386.06C946.537 387.282 970.19 388.939 993.578 389.114C1036.13 389.55 1075.37 385.973 1112.64 378.906C1137.61 374.108 1162.06 368.001 1185.44 360.498C1218.74 349.854 1250.59 336.418 1284.28 320.802C1306.88 310.245 1329.48 298.641 1353 286.689C1388.01 269.066 1424.75 250.919 1460.56 233.732C1516.85 206.686 1571.42 181.56 1625.73 162.453" stroke="#8CC640" stroke-miterlimit="10"/>
<path d="M-171.492 776.565C-127.886 719.595 -47.1492 666.899 48.2552 630.693C87.897 615.687 130.314 603.473 174.977 597.366C219.508 591.258 266.946 590.909 308.173 594.05C334.997 596.144 357.593 599.896 379 601.902C415.866 605.305 445.069 605.828 480.482 595.272C502.285 588.816 522.635 577.823 540.474 565.434C562.541 550.079 581.173 531.845 598.218 513.262C614.472 495.639 630.328 477.405 649.621 460.043C666.667 444.688 687.016 429.682 711.33 417.206C746.214 399.321 787.31 387.369 831.973 383.268C861.836 380.564 891.7 381.61 920.638 383.443C944.82 384.926 968.472 386.932 991.729 387.63C1034.28 388.939 1073.52 386.583 1111.05 380.738C1136.29 376.812 1161 371.49 1184.92 364.86C1218.88 355.35 1251.51 342.961 1286 328.042C1309 318.009 1332.12 306.668 1356.04 295.064C1391.58 277.703 1428.32 259.643 1463.99 242.194C1520.15 214.712 1573.54 188.801 1626.92 168.473" stroke="#8CC640" stroke-miterlimit="10"/>
<path d="M-184.441 758.595C-139.25 701.886 -58.2485 649.539 36.8917 613.071C76.4013 597.978 118.818 585.502 163.481 579.22C208.144 572.939 255.846 572.503 296.809 576.341C323.634 578.871 345.965 583.321 366.975 586.113C403.181 590.998 431.856 593.616 468.326 584.368C490.525 578.784 511.536 568.402 530.299 556.537C553.292 541.88 572.98 523.995 590.951 505.848C607.997 488.574 624.779 470.601 644.6 453.501C662.306 438.321 683.052 423.664 707.894 411.537C743.44 394.175 785.064 382.921 829.859 379.344C859.855 376.988 889.85 378.384 918.656 380.565C942.838 382.397 966.491 384.753 989.615 385.887C1032.03 387.981 1071.41 386.847 1109.33 382.31C1134.7 379.256 1159.81 374.807 1184.12 368.962C1218.61 360.673 1252.18 349.244 1287.32 335.024C1310.85 325.427 1334.37 314.521 1358.55 303.092C1394.49 286.08 1431.49 268.02 1466.9 250.397C1522.8 222.566 1575.26 195.695 1627.45 174.232" stroke="#8CC640" stroke-miterlimit="10"/>
<path d="M-197.391 740.621C-150.613 684.262 -69.4799 632.177 25.5282 595.447C65.0378 580.266 107.322 567.529 152.117 561.073C196.781 554.617 244.747 554.18 285.578 558.63C312.402 561.509 334.47 566.744 355.083 570.408C390.761 576.864 418.774 581.401 456.434 573.549C479.03 568.837 500.833 559.153 520.389 547.637C544.307 533.591 565.052 516.142 583.816 498.431C601.787 481.506 619.229 463.795 639.843 447.044C658.078 432.126 679.485 417.73 704.724 406.04C741.062 389.201 783.082 378.645 828.009 375.679C858.137 373.672 888.133 375.417 916.807 377.947C940.988 380.041 964.641 382.745 987.766 384.403C1030.18 387.369 1069.56 387.457 1107.75 384.141C1133.25 381.96 1158.75 378.383 1183.6 373.323C1218.61 366.169 1252.97 355.787 1289.04 342.264C1313.09 333.191 1337.01 322.547 1361.46 311.379C1397.93 294.629 1435.06 276.569 1470.21 258.771C1525.97 230.591 1577.37 202.848 1628.51 180.164" stroke="#8CC640" stroke-miterlimit="10"/>
<path d="M-210.473 722.649C-161.978 666.551 -80.8441 614.815 14.1639 577.823C53.5414 562.468 95.6938 549.556 140.621 543.013C185.416 536.382 233.647 535.859 274.214 540.919C301.038 544.234 322.841 550.08 343.058 554.703C378.075 562.643 405.56 569.186 444.277 562.643C467.269 558.804 489.865 549.731 510.347 538.738C535.189 525.389 556.992 508.289 576.68 490.928C595.444 474.351 613.679 456.903 634.954 440.413C653.85 425.756 675.653 411.623 701.42 400.368C738.419 384.054 780.968 374.195 826.027 371.839C856.287 370.269 886.282 372.188 914.957 375.067C939.138 377.51 962.659 380.564 985.783 382.658C1028.2 386.496 1067.45 387.805 1106.16 385.799C1131.93 384.49 1157.7 381.785 1183.07 377.51C1218.61 371.49 1253.89 362.155 1290.76 349.33C1315.34 340.693 1339.78 330.486 1364.36 319.493C1401.36 303.091 1438.62 285.031 1473.51 267.059C1529.14 238.443 1579.35 209.914 1629.43 185.922" stroke="#8CC640" stroke-miterlimit="10"/>
<path d="M-223.426 704.677C-173.345 648.84 -92.0795 597.453 2.79647 560.2C42.0418 544.758 84.1942 531.671 129.122 524.866C174.049 518.148 222.544 517.538 262.978 523.209C289.935 526.96 311.341 533.503 331.294 538.913C365.651 548.335 392.607 556.798 432.381 551.737C455.77 548.771 479.026 540.396 500.433 529.839C526.2 517.102 549.192 500.525 569.674 483.512C589.362 467.285 608.258 450.098 630.193 433.958C649.75 419.562 672.081 405.778 698.245 394.785C736.037 378.994 778.982 369.833 824.174 368.001C854.433 366.78 884.561 369.048 913.235 372.276C937.417 374.981 960.938 378.383 983.93 380.913C1026.21 385.624 1065.59 388.154 1104.57 387.369C1130.47 386.846 1156.64 385.101 1182.4 381.611C1218.61 376.725 1254.68 368.437 1292.21 356.398C1317.32 348.284 1342.16 338.425 1367.13 327.694C1404.66 311.554 1442.06 293.582 1476.68 275.348C1532.04 246.383 1581.33 216.894 1630.35 191.768" stroke="#8CC640" stroke-miterlimit="10"/>
<path d="M-236.367 686.793C-184.701 631.219 -103.171 580.181 -8.55925 542.666C30.6861 527.136 72.7064 513.788 117.634 506.896C162.561 500.003 211.32 499.393 251.623 505.587C278.579 509.775 299.721 517.016 319.278 523.297C353.106 534.203 379.534 544.672 420.365 540.921C444.15 538.74 468.199 531.062 490.398 521.029C517.09 508.902 541.14 492.762 562.546 476.098C583.028 460.133 602.849 443.294 625.312 427.503C645.53 413.37 668.258 399.847 694.818 389.29C733.27 374.023 776.744 365.56 822.068 364.338C852.46 363.466 882.587 366.083 911.262 369.66C935.443 372.714 958.964 376.465 981.956 379.432C1024.24 385.015 1063.62 388.68 1103 389.203C1129.03 389.552 1155.59 388.592 1181.88 385.975C1218.62 382.223 1255.48 374.982 1293.94 363.64C1319.57 356.05 1344.81 346.453 1370.05 335.984C1407.97 320.193 1445.63 302.133 1480.12 283.812C1535.35 254.411 1583.59 224.137 1631.42 197.789" stroke="#8CC640" stroke-miterlimit="10"/>
<path d="M-249.316 668.819C-196.064 613.594 -114.402 562.818 -19.7907 525.041C19.3225 509.424 61.3428 495.814 106.402 488.747C151.462 481.68 200.485 480.982 240.523 487.875C267.48 492.499 288.358 500.351 307.518 507.592C340.685 519.981 366.584 532.369 408.472 530.101C432.654 528.792 457.364 521.725 480.488 512.129C508.105 500.7 533.212 484.908 555.411 468.681C576.818 453.064 597.299 436.488 620.424 420.958C641.169 406.999 664.558 393.825 691.514 383.618C730.76 368.874 774.762 361.196 820.086 360.498C850.61 360.062 880.738 362.941 909.28 366.867C933.461 370.182 956.85 374.283 979.842 377.772C1021.99 384.141 1061.5 389.114 1101.15 390.946C1127.44 392.168 1154.13 392.08 1181.09 390.248C1218.35 387.631 1256.15 381.437 1295.39 370.793C1321.55 363.639 1347.19 354.478 1372.69 344.183C1411.14 328.741 1448.8 310.594 1483.16 292.099C1538.13 262.261 1585.3 231.202 1632.21 203.633" stroke="#8CC640" stroke-miterlimit="10"/>
<path d="M-262.27 650.847C-207.432 595.883 -125.638 545.456 -31.1582 507.418C7.95504 491.714 49.8432 477.929 94.9026 470.601C139.962 463.359 189.25 462.661 229.156 470.077C256.112 475.137 276.594 483.687 295.49 491.714C328.128 505.673 353.367 519.894 396.444 519.108C421.022 518.672 446.525 512.303 470.442 503.143C498.852 492.324 525.148 477.057 548.272 461.178C570.471 445.911 591.746 429.596 615.531 414.415C636.937 400.718 660.722 387.893 688.207 378.034C728.113 363.726 772.644 356.834 818.1 356.66C848.756 356.572 879.016 359.713 907.426 364.075C931.608 367.74 954.996 372.102 977.856 376.115C1020.01 383.356 1059.52 389.551 1099.56 392.604C1125.98 394.611 1153.07 395.483 1180.43 394.349C1218.35 392.866 1256.93 387.719 1296.84 377.773C1323.53 371.142 1349.56 362.331 1375.46 352.297C1414.44 337.117 1452.24 319.057 1486.33 300.387C1541.03 270.201 1587.28 238.182 1633.13 209.479" stroke="#8CC640" stroke-miterlimit="10"/>
<path d="M-275.219 632.874C-218.663 578.172 -136.869 528.094 -42.3895 489.793C-3.40846 473.915 38.3475 459.956 83.5391 452.54C128.731 445.124 178.283 444.426 217.925 452.453C245.013 457.949 265.098 467.197 283.598 476.096C315.575 491.538 340.285 509.074 384.42 508.289C409.394 507.853 435.69 502.967 460.4 494.33C489.735 484.123 517.22 469.291 541.137 453.762C564.129 438.843 586.329 422.79 610.774 407.871C632.842 394.435 657.155 381.872 685.037 372.45C725.735 358.665 770.663 352.558 816.119 352.907C846.907 353.256 877.167 356.659 905.577 361.283C929.758 365.209 953.147 370.007 975.875 374.369C1017.9 382.57 1057.4 389.812 1097.84 394.174C1124.4 397.053 1151.88 398.71 1179.77 398.449C1218.22 398.1 1257.6 393.999 1298.43 384.751C1325.52 378.557 1352.21 370.094 1378.24 360.323C1417.75 345.491 1455.67 327.345 1489.5 308.5C1544.07 277.877 1589.27 245.073 1633.93 215.148" stroke="#8CC640" stroke-miterlimit="10"/>
<path d="M-288.168 614.989C-230.027 560.549 -148.1 510.907 -53.7531 472.258C-14.772 456.292 26.8518 442.071 72.1756 434.481C117.499 426.891 167.184 426.193 206.693 434.83C233.782 440.762 253.603 450.621 271.838 460.48C303.155 477.405 327.468 495.465 372.528 497.559C397.899 498.693 424.855 493.72 450.49 485.606C480.75 476.009 509.292 461.614 534.002 446.521C557.919 431.951 580.779 416.16 605.886 401.59C628.614 388.416 653.324 376.202 681.734 367.041C723.093 353.867 768.549 348.371 814.137 349.243C845.058 349.941 875.317 353.693 903.727 358.666C927.909 362.941 951.165 368.088 974.025 372.886C1016.05 381.873 1055.56 390.423 1096.39 396.006C1123.08 399.67 1150.96 402.288 1179.37 402.811C1218.35 403.596 1258.65 400.543 1300.14 392.08C1327.76 386.409 1354.85 378.296 1381.15 368.699C1421.18 354.216 1459.24 336.069 1492.8 317.05C1547.11 286.078 1591.25 252.402 1634.99 221.256" stroke="#8CC640" stroke-miterlimit="10"/>
<path d="M-301.25 597.018C-241.523 542.927 -159.333 493.546 -65.2495 454.635C-26.4005 438.582 15.2233 424.1 60.547 416.422C105.871 408.658 155.952 407.96 195.197 417.12C222.285 423.489 241.842 434.046 259.681 444.689C290.469 463.098 314.122 483.077 360.371 486.567C386.138 488.573 413.887 484.211 440.447 476.534C471.632 467.547 501.231 453.676 526.866 438.931C551.576 424.711 575.229 409.181 600.996 394.873C624.253 381.961 649.623 370.008 678.43 361.284C720.582 348.634 766.434 343.835 812.155 345.318C843.075 346.365 873.467 350.466 901.877 355.788C926.059 360.411 949.315 365.821 972.043 371.143C1014.06 381.001 1053.57 390.685 1094.67 397.665C1121.62 402.202 1149.77 405.604 1178.58 407C1218.22 408.919 1259.31 406.913 1301.6 399.148C1329.74 393.913 1357.23 386.236 1383.79 376.813C1424.36 362.593 1462.54 344.533 1495.84 325.252C1550.02 293.931 1593.1 259.383 1635.65 226.928" stroke="#8CC640" stroke-miterlimit="10"/>
<path d="M-314.207 579.045C-252.894 525.216 -170.572 476.184 -76.4887 437.012C-37.6398 420.871 3.85192 406.214 49.1757 398.275C94.6315 390.336 144.844 389.551 183.958 399.409C211.046 406.214 230.338 417.469 247.781 428.985C277.909 448.877 301.165 470.688 348.339 475.748C374.634 478.54 402.912 474.876 430.397 467.722C462.375 459.346 493.295 445.911 519.723 431.515C545.358 417.643 569.804 402.376 596.1 388.417C620.017 375.766 645.784 364.163 675.119 355.7C717.932 343.573 764.313 339.473 810.165 341.566C841.218 343.05 871.61 347.412 899.888 353.083C924.069 357.968 947.326 363.814 969.921 369.572C1011.81 380.303 1051.45 391.208 1092.94 399.409C1120.03 404.819 1148.57 409.093 1177.91 411.275C1218.08 414.328 1259.97 413.368 1303.18 406.302C1331.85 401.59 1359.73 394.262 1386.69 385.101C1427.65 371.229 1465.97 353.083 1499.14 333.714C1553.18 301.957 1595.2 266.536 1636.7 232.947" stroke="#8CC640" stroke-miterlimit="10"/>
<path d="M-327.152 561.073C-264.254 507.505 -181.799 458.822 -87.8483 419.301C-49.1316 403.073 -7.77198 388.155 37.816 380.041C83.2719 371.927 133.881 371.142 172.73 381.524C199.819 388.765 218.847 400.63 235.893 413.106C265.492 434.568 288.22 458.212 336.451 464.755C363.143 468.332 392.213 465.366 420.491 458.735C453.394 450.97 485.371 438.058 512.724 424.012C539.284 410.489 564.391 395.483 591.347 381.873C615.925 369.484 642.221 358.143 671.952 350.116C715.558 338.513 762.335 335.11 808.319 337.727C839.504 339.559 869.896 344.271 898.174 350.291C922.356 355.525 945.48 361.632 968.208 367.914C1010.1 379.517 1049.74 391.557 1091.49 401.067C1118.85 407.261 1147.65 412.408 1177.52 415.462C1218.35 419.562 1261.03 419.737 1304.9 413.368C1334.1 409.18 1362.51 402.114 1389.6 393.215C1431.09 379.605 1469.54 361.545 1502.58 341.915C1556.36 309.809 1597.32 273.516 1637.76 238.705" stroke="#8CC640" stroke-miterlimit="10"/>
<path d="M-340.098 543.102C-275.482 489.883 -193.027 441.462 -99.0758 401.679C-60.4912 385.364 -19.1316 370.184 26.4564 361.983C72.0444 353.782 122.786 352.909 161.503 363.902C188.591 371.58 207.355 384.143 224.137 397.404C253.075 420.349 275.407 445.912 324.562 453.851C351.651 458.301 381.514 455.945 410.585 449.838C444.412 442.684 477.447 430.208 505.593 416.511C532.946 403.337 558.845 388.592 586.462 375.244C611.701 363.117 638.393 352.037 668.653 344.447C712.919 333.28 760.225 330.662 806.342 333.89C837.659 336.071 868.183 341.044 896.328 347.413C920.51 352.909 943.634 359.453 966.23 366.083C1007.99 378.559 1047.76 391.733 1089.91 402.639C1117.4 409.618 1146.6 415.725 1176.99 419.564C1218.35 424.799 1261.96 425.933 1306.62 420.349C1336.35 416.598 1365.16 409.967 1392.51 401.243C1434.53 387.982 1473.12 369.835 1505.89 350.118C1559.53 317.576 1599.44 280.497 1638.82 244.465" stroke="#8CC640" stroke-miterlimit="10"/>
<path d="M-353.051 525.217C-286.849 472.259 -204.13 424.188 -110.443 384.143C-71.8586 367.653 -30.6312 352.386 14.9568 343.923C60.5448 335.548 111.551 334.762 150.135 346.191C177.224 354.305 195.723 367.566 212.108 381.7C240.386 406.128 262.321 433.523 312.402 443.033C340.019 448.267 370.411 446.61 400.407 441.026C435.159 434.483 469.383 422.443 498.322 409.182C526.468 396.27 553.292 381.874 581.437 368.875C607.337 357.01 634.557 346.191 665.214 338.95C710.141 328.306 758.107 326.387 804.224 330.226C835.673 332.843 866.197 338.078 894.343 344.795C918.524 350.641 941.649 357.446 964.112 364.6C1005.87 377.861 1045.64 392.344 1088.06 404.471C1115.81 412.323 1145.28 419.215 1176.06 423.926C1218.08 430.208 1262.35 432.476 1307.94 427.678C1338.2 424.449 1367.4 418.168 1395.15 409.618C1437.7 396.619 1476.42 378.559 1508.92 358.58C1562.44 325.689 1601.29 287.65 1639.48 250.484" stroke="#8CC640" stroke-miterlimit="10"/>
<path d="M-366 507.244C-298.213 454.548 -215.361 406.826 -121.807 366.519C-83.3543 349.943 -42.1269 334.413 3.59328 325.863C49.3134 317.313 100.583 316.441 138.904 328.568C213.034 351.949 219.773 414.94 300.51 432.214C361.03 445.213 435.688 425.845 491.319 401.766C546.95 377.686 596.898 347.761 662.043 333.366C738.948 316.353 823.252 324.554 892.493 342.003C961.734 359.452 1020.67 385.538 1086.47 406.128C1152.28 426.63 1229.32 441.898 1309.52 434.657C1387.49 427.677 1458.84 400.108 1512.09 366.781C1565.35 333.453 1603.14 294.63 1640.4 256.242" stroke="#8CC640" stroke-miterlimit="10"/>
<path d="M-354.238 502.446C-287.376 450.274 -205.846 402.987 -113.745 362.768C-74.3675 345.581 -31.9508 329.702 14.8264 321.239C60.2823 313.038 110.892 312.341 148.948 324.293C222.285 347.325 230.742 408.658 310.422 425.933C358.917 436.489 416.265 426.543 465.95 410.054C477.71 406.128 489.074 401.853 499.777 397.404C555.276 374.197 605.092 344.883 669.708 330.487C713.578 320.716 759.695 318.884 804.094 322.199C836.732 324.642 868.313 329.789 897.384 336.682C965.964 352.822 1024.63 377.25 1089.91 396.793C1108.67 402.377 1128.36 407.524 1148.71 411.973C1199.45 422.966 1254.56 429.161 1311.11 424.537C1321.15 423.751 1331.06 422.53 1340.84 421.134C1406.38 411.363 1465.98 387.981 1512.62 359.976C1565.88 327.87 1604.46 289.831 1641.46 251.793" stroke="#8CC640" stroke-miterlimit="10"/>
<path d="M-342.344 497.646C-276.406 445.91 -196.198 399.06 -105.55 359.015C-65.3801 341.217 -21.642 324.903 26.3245 316.614C71.5161 308.762 121.465 308.152 159.389 319.93C232.065 342.526 242.24 402.376 320.731 419.563C368.697 430.119 425.385 420.959 474.805 405.08C486.565 401.329 497.797 397.228 508.5 392.866C563.735 370.444 613.551 341.915 677.506 327.433C720.848 317.574 766.436 315.393 810.306 318.098C842.416 320.104 873.733 324.728 902.539 331.01C970.327 345.754 1028.73 368.612 1093.61 387.021C1112.24 392.255 1131.8 397.228 1152.02 401.416C1202.63 411.885 1257.07 418.167 1313.1 413.892C1323.01 413.194 1332.78 412.06 1342.43 410.751C1407.18 401.678 1466.64 379.605 1513.42 352.559C1566.8 321.675 1606.18 284.334 1642.78 246.645" stroke="#8CC640" stroke-miterlimit="10"/>
<path d="M-330.59 492.761C-265.577 441.549 -186.822 395.047 -97.6285 355.177C-56.6654 336.855 -11.4738 320.104 37.4177 311.904C82.345 304.4 131.633 303.964 169.293 315.568C241.176 337.815 253.069 396.007 330.634 413.194C378.205 423.751 434.099 415.288 483.387 400.195C495.016 396.618 506.247 392.604 516.951 388.417C571.921 366.78 621.869 338.949 685.032 324.467C727.977 314.608 772.904 312.078 816.246 314.172C847.959 315.742 878.88 319.843 907.422 325.514C974.549 338.949 1032.69 360.15 1096.91 377.511C1115.54 382.484 1134.83 387.108 1154.92 391.121C1205.26 401.067 1259.18 407.349 1314.54 403.597C1324.32 402.987 1334.1 402.027 1343.61 400.718C1407.7 392.343 1466.77 371.579 1513.81 345.493C1567.32 315.829 1607.36 279.274 1643.7 241.934" stroke="#8CC640" stroke-miterlimit="10"/>
<path d="M-318.695 487.962C-254.608 437.273 -177.174 391.121 -89.4339 351.338C-47.5457 332.406 -1.16491 315.218 48.9158 307.192C93.5789 300.038 142.206 299.689 179.601 311.118C250.824 332.929 264.303 389.638 340.811 406.738C387.985 417.294 443.087 409.617 492.243 395.134C503.871 391.732 515.103 387.893 525.674 383.88C580.38 363.028 630.328 335.895 692.83 321.326C735.247 311.467 779.645 308.501 822.459 309.984C853.776 311.118 884.3 314.695 912.445 319.755C978.779 331.795 1036.66 351.512 1100.48 367.652C1118.98 372.276 1138.27 376.638 1158.09 380.477C1208.17 389.987 1261.56 396.181 1316.26 392.866C1326.04 392.255 1335.56 391.47 1345.07 390.336C1408.5 382.745 1467.17 363.203 1514.47 338.076C1567.99 309.548 1608.82 273.865 1644.89 236.873" stroke="#8CC640" stroke-miterlimit="10"/>
<path d="M-306.934 483.163C-243.771 432.911 -167.791 387.195 -81.372 347.586C-38.6911 328.043 9.01116 310.42 60.2812 302.568C104.68 295.763 152.646 295.588 189.778 306.843C260.34 328.305 275.404 383.356 350.987 400.456C397.632 411.1 452.206 404.033 501.097 390.248C512.594 386.933 523.825 383.356 534.397 379.43C588.97 359.451 638.786 332.929 700.76 318.359C742.78 308.5 786.518 305.098 828.803 306.057C859.591 306.755 889.719 309.809 917.732 314.258C983.405 324.815 1040.89 343.136 1104.31 358.142C1122.68 362.504 1141.84 366.605 1161.53 370.182C1211.35 379.255 1264.33 385.362 1318.38 382.571C1328.02 382.047 1337.54 381.349 1346.92 380.302C1409.55 373.41 1467.96 355.176 1515.4 330.922C1569.05 303.615 1610.67 268.717 1646.35 232.074" stroke="#8CC640" stroke-miterlimit="10"/>
<path d="M-295.172 478.365C-232.934 428.636 -158.276 383.182 -73.4423 343.834C-29.9686 323.594 19.0551 305.709 71.3822 297.944C115.517 291.401 162.69 291.488 199.689 302.568C269.459 323.594 286.241 377.162 360.767 394.174C407.016 404.818 460.796 398.537 509.424 385.45C520.92 382.309 532.019 378.819 542.59 375.155C596.9 355.961 646.716 330.137 708.029 315.567C749.52 305.709 792.73 301.957 834.354 302.306C864.746 302.655 894.477 305.098 922.226 309.024C987.239 318.272 1044.46 334.935 1107.35 348.895C1125.59 352.908 1144.62 356.747 1164.17 360.149C1213.73 368.699 1266.18 374.806 1319.57 372.45C1329.08 372.014 1338.6 371.404 1347.85 370.531C1409.82 364.424 1467.7 347.411 1515.53 324.117C1569.18 297.944 1611.6 263.831 1647.01 227.625" stroke="#8CC640" stroke-miterlimit="10"/>
<path d="M-283.281 473.566C-221.969 424.273 -148.764 379.255 -65.2516 339.995C-20.8529 319.143 29.36 300.822 82.8764 293.232C126.747 287.037 173.26 287.212 210.126 298.117C279.235 318.794 297.603 370.705 371.072 387.717C416.924 398.361 469.912 392.865 518.407 380.389C529.771 377.422 540.871 374.107 551.442 370.53C605.487 352.122 655.303 326.995 715.955 312.425C756.918 302.567 799.599 298.379 840.694 298.117C870.69 298.03 900.025 299.949 927.51 303.265C991.73 311.117 1048.81 326.21 1111.18 339.035C1129.29 342.786 1148.18 346.363 1167.61 349.504C1216.89 357.618 1268.83 363.638 1321.55 361.718C1330.93 361.369 1340.31 360.846 1349.56 360.061C1410.87 354.739 1468.36 338.948 1516.45 316.613C1570.1 291.661 1613.31 258.334 1648.46 222.477" stroke="#8CC640" stroke-miterlimit="10"/>
<path d="M-271.523 468.682C-211.136 419.912 -139.384 375.156 -57.1937 336.157C-12.0021 314.695 39.5322 295.938 94.1056 288.522C137.712 282.589 183.564 283.026 220.166 293.757C288.482 313.997 308.567 364.425 381.112 381.35C426.436 392.081 478.895 387.283 527.126 375.505C538.49 372.713 549.457 369.572 560.028 366.082C613.941 348.546 663.625 324.03 723.617 309.373C764.183 299.515 806.204 294.891 846.77 294.106C876.237 293.495 905.308 294.891 932.396 297.683C995.955 304.139 1052.64 317.662 1114.62 329.44C1132.72 332.842 1151.35 336.157 1170.64 339.124C1219.67 346.714 1271.07 352.734 1323.26 351.338C1332.65 351.076 1341.9 350.64 1351.01 349.942C1411.67 345.318 1468.75 330.836 1517.11 309.461C1570.76 285.73 1614.76 253.188 1649.65 217.68" stroke="#8CC640" stroke-miterlimit="10"/>
<path d="M-259.625 463.883C-200.162 415.637 -129.864 371.142 -48.9952 332.406C-3.01076 310.333 49.8449 291.139 105.608 283.898C148.949 278.314 194.141 278.838 230.479 289.394C298.134 309.286 319.805 358.055 391.293 374.981C436.22 385.712 487.886 381.699 535.985 370.531C547.217 367.914 558.184 364.86 568.755 361.632C622.404 344.881 672.088 321.064 731.419 306.407C771.457 296.548 812.949 291.488 852.987 290.179C882.057 289.22 910.732 290.005 937.556 292.186C1000.32 297.246 1056.88 309.199 1118.19 319.842C1136.16 322.983 1154.79 325.949 1173.82 328.741C1222.71 335.808 1273.45 341.828 1324.99 340.868C1334.24 340.694 1343.36 340.345 1352.47 339.821C1412.33 335.895 1469.15 322.721 1517.78 302.306C1571.56 279.71 1616.35 247.953 1650.71 212.881" stroke="#8CC640" stroke-miterlimit="10"/>
<path d="M-247.867 459.084C-189.33 411.274 -120.485 367.128 -41.0694 328.566C5.70786 305.883 60.0171 286.253 116.837 279.186C159.782 273.864 204.445 274.649 240.519 285.032C307.514 304.487 330.77 351.773 401.2 368.612C445.731 379.343 496.605 376.115 544.571 365.558C555.803 363.115 566.771 360.236 577.21 357.095C630.594 341.13 680.278 318.01 739.08 303.353C778.722 293.407 819.553 288.085 858.93 286.078C887.605 284.683 915.75 284.944 942.442 286.602C1004.55 290.353 1060.71 300.648 1121.62 310.245C1139.46 313.037 1157.96 315.829 1176.99 318.359C1225.62 324.989 1275.83 330.922 1326.7 330.486C1335.82 330.399 1344.94 330.137 1353.92 329.701C1413.12 326.56 1469.55 314.607 1518.3 295.152C1572.09 273.69 1617.67 242.805 1651.77 208.082" stroke="#8CC640" stroke-miterlimit="10"/>
<path d="M-235.973 454.287C-178.36 407.001 -110.969 363.117 -32.8748 324.816C14.6953 301.435 70.3259 281.456 128.203 274.651C170.884 269.591 214.886 270.55 250.696 280.845C316.898 299.952 342.004 345.581 411.377 362.419C455.379 373.15 505.724 370.62 553.295 360.848C564.394 358.58 575.362 355.875 585.801 352.909C638.921 337.729 688.737 315.307 746.746 300.65C785.859 290.704 826.162 284.946 865.011 282.416C893.289 280.584 921.038 280.322 947.466 281.369C1008.78 283.724 1064.81 292.536 1125.19 300.999C1142.9 303.529 1161.27 305.972 1180.16 308.327C1228.53 314.434 1278.34 320.192 1328.55 320.367C1337.67 320.367 1346.66 320.28 1355.51 319.844C1414.05 317.401 1469.94 306.757 1519.1 288.261C1572.88 268.02 1619.26 237.921 1653.09 203.547" stroke="#8CC640" stroke-miterlimit="10"/>
<path d="M-224.215 449.488C-167.527 402.725 -101.59 359.103 -24.8168 321.065C23.5461 297.072 80.498 276.657 139.564 270.027C181.981 265.315 225.323 266.45 260.868 276.483C326.409 295.153 353.101 339.299 421.417 356.049C465.023 366.868 514.575 365.036 562.013 355.875C573.113 353.781 583.948 351.164 594.387 348.372C647.243 334.064 697.059 312.34 754.408 297.509C793.125 287.563 832.766 281.456 871.087 278.315C898.836 276.046 926.321 275.261 952.352 275.698C1013 276.657 1068.63 283.898 1128.63 291.227C1146.33 293.408 1164.44 295.676 1183.2 297.858C1231.3 303.441 1280.59 309.374 1330.14 309.897C1339.12 309.985 1347.98 309.985 1356.83 309.723C1414.57 307.978 1470.21 298.643 1519.63 281.107C1573.41 262 1620.71 232.773 1654.14 198.748" stroke="#8CC640" stroke-miterlimit="10"/>
<path d="M-212.449 444.688C-156.686 398.361 -92.2026 355.001 -16.8833 317.224C32.2725 292.534 90.5459 271.683 150.801 265.314C192.954 260.864 235.635 262.173 271.048 272.119C335.796 290.353 364.206 332.928 431.597 349.679C474.807 360.497 523.566 359.45 570.872 350.9C581.839 348.894 592.675 346.538 603.114 343.834C655.837 330.311 705.522 309.285 762.209 294.453C800.397 284.507 839.511 277.964 877.302 274.213C904.655 271.508 931.744 270.199 957.511 270.025C1017.37 269.676 1072.87 275.26 1132.33 281.541C1149.91 283.373 1168.01 285.38 1186.51 287.387C1234.47 292.534 1283.1 298.379 1331.99 299.339C1340.85 299.514 1349.7 299.601 1358.42 299.426C1415.51 298.467 1470.74 290.353 1520.42 273.776C1574.2 255.804 1622.3 227.362 1655.47 193.773" stroke="#8CC640" stroke-miterlimit="10"/>
<path d="M-200.559 439.803C-145.721 394 -82.6905 350.901 -8.69256 313.386C41.256 288.085 100.851 266.798 162.163 260.603C204.052 256.416 246.072 257.986 281.221 267.67C345.308 285.555 375.304 326.56 441.638 343.224C484.319 354.042 532.417 353.693 579.591 345.928C590.559 344.096 601.262 341.915 611.701 339.385C664.16 326.647 713.844 306.319 769.871 291.488C807.663 281.542 846.116 274.563 883.247 270.288C910.203 267.147 936.763 265.315 962.398 264.529C1021.6 262.785 1076.83 266.798 1135.63 272.032C1153.08 273.603 1171.05 275.261 1189.41 277.093C1237.12 281.717 1285.21 287.562 1333.58 288.958C1342.3 289.22 1351.02 289.394 1359.74 289.307C1416.16 289.045 1470.87 282.153 1520.82 266.536C1574.6 249.785 1623.49 222.129 1656.39 188.889" stroke="#8CC640" stroke-miterlimit="10"/>
<path d="M-188.801 435.005C-134.888 389.638 -73.4433 346.801 -0.634594 309.635C50.1069 283.636 111.023 261.912 173.525 255.98C215.017 252.054 256.508 253.886 291.393 263.396C354.82 280.844 386.401 320.279 451.678 336.855C493.962 347.761 541.268 348.11 588.178 340.956C599.013 339.298 609.716 337.204 620.155 334.849C672.35 322.896 722.035 303.266 777.533 288.435C814.796 278.489 852.72 271.16 889.323 266.275C915.751 262.698 942.046 260.342 967.417 259.033C1025.82 255.98 1080.79 258.335 1139.2 262.436C1156.51 263.657 1174.35 265.053 1192.58 266.711C1240.02 270.811 1287.59 276.657 1335.29 278.576C1344.01 278.925 1352.6 279.187 1361.19 279.274C1416.82 279.71 1471.26 274.127 1521.48 259.47C1575.26 243.853 1624.94 217.069 1657.58 184.178" stroke="#8CC640" stroke-miterlimit="10"/>
<path d="M-176.91 430.208C-124.054 385.364 -63.9312 342.789 7.424 305.884C58.9583 279.275 121.196 257.115 184.755 251.357C225.982 247.692 266.813 249.699 301.434 259.121C364.068 276.221 397.367 314.085 461.718 330.575C503.607 341.48 550.252 342.527 596.897 336.071C607.732 334.588 618.303 332.668 628.742 330.487C680.673 319.32 730.357 300.388 785.195 285.469C821.93 275.523 859.325 267.759 895.399 262.262C921.431 258.336 947.33 255.37 972.304 253.451C1030.05 249.001 1084.75 249.699 1142.63 252.84C1159.94 253.8 1177.65 254.934 1195.62 256.33C1242.79 259.994 1289.83 265.839 1336.88 268.108C1345.47 268.544 1353.92 268.893 1362.51 269.067C1417.48 270.202 1471.39 265.839 1522 252.229C1575.78 237.747 1626.39 211.835 1658.64 179.293" stroke="#8CC640" stroke-miterlimit="10"/>
<path d="M-165.148 425.408C-113.086 381.088 -54.6801 338.687 15.4858 302.045C67.8129 274.737 131.372 252.141 196.12 246.645C237.083 243.155 277.121 245.51 311.61 254.671C373.583 271.335 408.468 307.628 471.762 324.117C513.122 335.023 559.106 336.855 605.619 331.097C616.323 329.788 626.894 328.043 637.333 325.95C688.999 315.567 738.683 297.333 792.861 282.415C829.199 272.469 865.933 264.355 901.479 258.248C927.114 253.886 952.485 250.396 977.327 247.866C1034.28 242.108 1088.72 241.148 1146.2 243.155C1163.38 243.765 1180.95 244.638 1198.79 245.859C1245.7 249 1292.35 254.845 1338.73 257.637C1347.18 258.161 1355.64 258.597 1363.97 258.859C1418.28 260.778 1471.79 257.637 1522.67 244.987C1576.45 231.638 1627.85 206.512 1659.83 174.406" stroke="#8CC640" stroke-miterlimit="10"/>
<path d="M-153.254 420.61C-102.116 376.726 -45.1641 334.587 23.6804 298.293C76.8004 270.288 141.681 247.255 207.618 242.021C248.317 238.793 287.695 241.323 321.919 250.396C383.099 266.711 419.702 301.434 481.939 317.836C522.902 328.742 568.094 331.359 614.475 326.212C625.178 325.077 635.749 323.42 646.056 321.5C697.458 311.903 747.142 294.367 800.659 279.449C836.469 269.416 872.675 260.953 907.559 254.322C932.666 249.524 957.772 245.511 982.35 242.37C1038.64 235.216 1092.82 232.686 1149.77 233.645C1166.82 233.907 1184.26 234.518 1201.97 235.565C1248.74 238.182 1294.73 244.027 1340.45 247.255C1348.9 247.866 1357.23 248.39 1365.42 248.826C1418.94 251.443 1472.06 249.524 1523.33 237.92C1576.98 225.706 1629.3 201.452 1661.02 169.695" stroke="#8CC640" stroke-miterlimit="10"/>
<path d="M-141.492 415.811C-91.2793 372.451 -35.913 330.486 31.6101 294.541C85.3907 265.838 151.592 242.369 218.719 237.396C259.022 234.43 297.871 237.222 331.962 246.034C392.482 261.912 430.803 295.065 491.983 311.467C532.55 322.46 576.948 325.688 623.197 321.238C633.768 320.191 644.339 318.795 654.646 317.051C705.916 308.239 755.601 291.401 808.324 276.482C843.737 266.449 879.283 257.637 913.639 250.309C938.349 245.074 963.059 240.537 987.241 236.786C1042.74 228.323 1096.78 224.484 1153.21 224.048C1170.12 223.874 1187.43 224.397 1205.01 225.182C1251.52 227.276 1296.97 233.122 1342.03 236.873C1350.36 237.571 1358.55 238.182 1366.74 238.705C1419.6 242.02 1472.32 241.41 1523.73 230.766C1577.37 219.686 1630.49 196.304 1661.94 164.896" stroke="#8CC640" stroke-miterlimit="10"/>
<path d="M-129.738 410.925C-80.4504 368.088 -26.5376 326.385 39.6641 290.615C94.2376 261.214 161.761 237.309 230.077 232.598C270.115 229.893 308.303 232.859 342.131 241.584C401.99 257.113 441.896 288.608 502.019 305.01C542.057 316.003 585.927 320.016 631.78 316.265C642.351 315.392 652.79 314.171 663.097 312.513C714.102 304.487 763.787 288.347 815.982 273.428C850.867 263.395 885.883 254.147 919.711 246.295C944.025 240.624 968.338 235.564 992.255 231.289C1047.09 221.43 1100.74 215.672 1156.64 214.451C1173.55 214.102 1190.73 214.189 1208.04 214.8C1254.29 216.37 1299.21 222.216 1343.75 226.403C1351.94 227.189 1360.13 227.886 1368.19 228.584C1420.39 232.598 1472.58 233.208 1524.38 223.611C1578.03 213.666 1632.07 191.069 1663.13 160.098" stroke="#8CC640" stroke-miterlimit="10"/>
<path d="M-117.844 406.125C-69.4808 363.725 -17.1537 322.284 47.8588 286.863C103.225 256.763 172.07 232.422 241.443 227.973C281.217 225.443 318.744 228.758 352.307 237.308C411.374 252.401 452.997 282.413 512.196 298.728C551.837 309.721 594.915 314.432 640.635 311.378C651.074 310.68 661.513 309.546 671.82 308.15C722.561 300.909 772.246 285.554 823.78 270.461C858.268 260.428 892.624 250.831 925.923 242.281C949.708 236.261 973.758 230.59 997.411 225.704C1051.46 214.537 1104.97 207.034 1160.34 204.853C1177.12 204.155 1194.17 203.98 1211.34 204.417C1257.33 205.551 1301.73 211.396 1345.6 215.933C1353.66 216.805 1361.72 217.591 1369.78 218.376C1421.18 223.087 1473.11 224.919 1525.17 216.369C1578.82 207.47 1633.66 185.834 1664.45 155.211" stroke="#8CC640" stroke-miterlimit="10"/>
<path d="M-106.082 401.329C-58.6441 359.451 -7.90263 318.185 55.9206 283.113C111.948 252.315 182.246 227.451 252.808 223.438C292.318 221.169 329.184 224.659 362.483 233.034C420.889 247.779 464.098 276.133 522.24 292.448C561.485 303.528 603.769 308.85 649.357 306.494C659.796 305.971 670.103 305.011 680.41 303.702C730.887 297.246 780.572 282.589 831.445 267.496C865.405 257.463 899.233 247.43 931.871 238.356C955.26 231.9 978.781 225.706 1002.3 220.209C1055.69 207.734 1108.81 198.573 1163.78 195.345C1180.42 194.385 1197.34 193.862 1214.38 194.123C1260.24 194.734 1303.97 200.667 1347.18 205.64C1355.24 206.599 1363.17 207.559 1371.1 208.344C1421.84 213.753 1473.25 216.807 1525.7 209.217C1579.35 201.452 1634.98 180.688 1665.51 150.414" stroke="#8CC640" stroke-miterlimit="10"/>
<path d="M-94.1875 396.53C-47.6745 355.089 1.48124 314.084 63.9831 279.361C120.671 247.866 192.422 222.565 264.174 218.813C303.287 216.719 339.625 220.558 372.66 228.759C430.405 243.067 475.2 269.938 532.284 286.166C571.001 297.246 612.625 303.353 658.081 301.695C668.388 301.259 678.694 300.474 688.869 299.34C739.082 293.669 788.766 279.71 838.979 264.616C872.41 254.583 905.71 244.201 937.819 234.517C960.812 227.625 983.936 220.907 1007.06 214.8C1059.65 200.928 1112.64 190.197 1167.08 185.835C1183.73 184.526 1200.38 183.828 1217.29 183.828C1262.88 183.915 1306.09 189.848 1348.77 195.257C1356.7 196.304 1364.63 197.351 1372.43 198.311C1422.51 204.418 1473.51 208.693 1526.24 202.15C1579.88 195.519 1636.44 175.627 1666.57 145.615" stroke="#8CC640" stroke-miterlimit="10"/>
<path d="M-82.4297 391.732C-36.8417 350.814 10.7284 309.896 72.041 275.522C129.522 243.242 202.594 217.505 275.403 214.102C314.252 212.27 349.93 216.371 382.832 224.397C439.784 238.356 486.297 263.57 542.456 279.797C580.777 290.877 621.608 297.682 666.799 296.723C677.106 296.461 687.281 295.85 697.456 294.89C747.404 290.005 797.089 276.744 846.773 261.65C879.808 251.617 912.446 240.799 944.027 230.504C966.623 223.176 989.351 216.022 1012.21 209.304C1064.14 194.211 1116.73 181.647 1170.78 176.325C1187.3 174.668 1203.94 173.708 1220.59 173.534C1265.92 173.01 1308.6 179.03 1350.62 184.963C1358.42 186.097 1366.21 187.231 1374.01 188.278C1423.43 195.083 1473.91 200.579 1526.89 195.083C1580.54 189.499 1637.89 170.48 1667.75 140.904" stroke="#8CC640" stroke-miterlimit="10"/>
<path d="M-70.5352 386.933C-25.8721 346.539 20.1123 305.796 80.2356 271.77C138.377 238.792 212.903 212.619 286.901 209.478C325.486 207.82 360.503 212.183 393.141 220.034C449.432 233.557 497.531 257.288 552.633 273.428C590.557 284.595 630.727 292.098 675.655 291.749C685.829 291.662 696.004 291.226 706.179 290.353C755.863 286.253 805.547 273.69 854.571 258.509C887.077 248.476 919.187 237.309 950.24 226.403C972.307 218.639 994.771 210.874 1017.37 203.633C1068.64 187.143 1120.96 173.01 1174.35 166.554C1190.73 164.547 1207.25 163.326 1223.77 162.977C1268.83 162.017 1311.11 167.95 1352.34 174.318C1360.14 175.54 1367.8 176.761 1375.46 177.895C1424.09 185.399 1474.3 192.116 1527.56 187.667C1581.2 183.13 1639.35 165.071 1668.94 135.844" stroke="#8CC640" stroke-miterlimit="10"/>
<path d="M-58.7773 382.047C-15.0393 342.089 29.3595 301.608 88.1614 267.932C146.963 234.256 222.943 207.559 297.998 204.767C447.316 199.271 536.906 285.555 684.109 286.864C776.474 287.649 870.293 254.758 956.051 222.478C1041.81 190.197 1133.25 155.823 1226.67 152.682C1279.92 150.937 1328.68 159.662 1376.78 167.863C1424.75 176.064 1474.43 184.003 1528.08 180.6C1581.73 177.198 1640.66 160.011 1670 131.133" stroke="#8CC640" stroke-miterlimit="10"/>
</g>
</g>
<defs>
<clipPath id="clip0_5303_26218">
<rect width="1600" height="735" fill="white"/>
</clipPath>
</defs>
</svg>
